<?xml version="1.0" encoding="utf-8"?>
<!-- Generator: Adobe Illustrator 16.2.0, SVG Export Plug-In . SVG Version: 6.00 Build 0)  -->
<!DOCTYPE svg PUBLIC "-//W3C//DTD SVG 1.0//EN" "http://www.w3.org/TR/2001/REC-SVG-20010904/DTD/svg10.dtd">
<svg version="1.0" id="Layer_1" xmlns="http://www.w3.org/2000/svg" xmlns:xlink="http://www.w3.org/1999/xlink" x="0px" y="0px"
	 width="62.333px" height="178.861px" viewBox="0 0 62.333 178.861" enable-background="new 0 0 62.333 178.861"
	 xml:space="preserve" style="transform:scale(2);">
<g>
	<path fill="#FEFEFE" d="M26.997,1.735c9.833,0,19.667,0.147,29.496-0.089c2.994-0.072,3.59,0.606,3.584,3.589
		c-0.113,56.493-0.084,112.986-0.084,169.479c-4.629,0.25-5.777-0.888-7.592-7.507c-0.863-13.831,0.93-27.943-4.408-41.299
		c-0.188-0.469-0.385-0.957-0.365-1.44c0.422-10.175-1.594-20.057-3.559-29.943c-0.186-3.442,1.286-6.467,2.391-9.579
		c1.875-4.418,4.56-8.467,6.03-13.076c1.14-3.646,1.001-7.403,0.966-11.149c-0.033-1.217-0.123-2.432-0.281-3.642
		c-0.913-5.184-1.754-10.376-3.346-15.417c-2.197-6.954-2.158-6.966-9.16-7.557c-0.695-0.29-1.17-0.865-1.715-1.348
		c-0.856-0.812-1.873-1.407-2.859-2.047c-1.092-2.179-2.926-3.527-5.069-4.534c-0.241-0.432-0.398-0.891-0.489-1.376
		c-1.258-3.225,2.5-4.605,2.675-7.302c1.123-2.636,1.764-5.287,0.228-8.001c-0.808-2.377-3.52-2.3-4.978-3.845
		C27.916,4.371,26.103,3.552,26.997,1.735z"/>
	<path fill="#FEFEFE" d="M51.995,177.713c-10,0-19.998,0-29.997,0c-1.338-3.261-1.056-6.856,0.12-9.733
		c4.026-9.85,0.585-19.378-0.462-29.013c-0.147-1.354-0.673-2.661-0.374-4.066c1.54-7.236,0.675-14.813,3.021-21.922
		c0.971-2.94,0.332-5.846,0.296-8.77c0.087-1.254,0.675-2.228,1.674-2.963c0.505-0.261,1.048-0.371,1.616-0.33
		c1.873,0.44,2.547,2.063,3.134,3.547c2.71,6.863,5.614,13.625,9.42,19.974c4.619,12.709,3.67,26.025,4.195,39.167
		c0.062,1.528,0.653,2.76,0.942,4.133c0.385,1.464,0.938,2.853,1.959,4.01C48.18,174.363,53.204,173.714,51.995,177.713z"/>
	<path fill="#FEFEFE" d="M14.999,177.713c-4.333,0-10.356,1.69-12.522-0.476C0.31,175.071,2,169.047,2,164.714
		c0-27.997,0-55.992,0-83.988c4.442,1.677,3.88,5.888,4.38,9.311c0.493,3.374,0.068,6.883,1.597,10.102
		c0.276,1.091,0.935,1.983,1.531,2.91c3.392,2.105,4.974,5.159,4.926,9.14c-0.088,7.301-0.064,14.598-0.269,21.903
		c-0.276,9.919,0.348,19.878,3.355,29.486C18.403,168.593,18.49,173.472,14.999,177.713z"/>
	<path fill="#FEFEFE" d="M2,50.729C2,34.397,2,18.066,2,1.735c7.666,0,15.332,0,22.997,0c0.387,3.211-3.611,3.8-3.932,6.586
		c-0.256,0.627-0.507,1.256-0.736,1.891c-2.372,2.77,1.437,4.856,0.841,7.429c-0.053,1.106,0.216,2.187,0.313,3.284
		c-0.148,1.447,0.976,2.583,0.971,3.994c0.034,0.948,0.042,1.895-0.032,2.841c-2.179,2.257-1.81,5.137-1.929,7.904
		c-0.805,3.8-3.134,4.708-6.585,3.508c-4.618-1.138-7.473,0.908-8.258,6.13c-0.318,2.115-0.136,4.35-2.348,5.642
		C2.836,51.066,2.404,50.985,2,50.729z"/>
	<path fill="#6B6B6B" d="M14.999,177.713c-0.378-4.327-0.337-8.612,1.208-12.757c0.412-0.788,0.812-1.583,1.229-2.37
		c1.516-2.05,2.852-4.146,1.892-6.882c-0.164-5.54-1.031-10.99-2-16.429c-0.806-2.426-0.18-4.647,0.95-6.801
		c1.637-4.101,1.523-8.448,1.095-12.639c-0.448-4.381,0.271-8.422,1.596-12.48c1.581-1.301,2.163-3.989,4.971-3.594
		c1.352,4.479,0.626,8.871-0.586,13.231c-1.701,6.115-2.279,12.479-2.208,18.681c0.082,7.069,1.992,14.098,2.637,21.186
		c0.657,7.225-0.467,14.277-3.785,20.855C19.665,177.713,17.332,177.713,14.999,177.713z"/>
	<path fill="#707070" d="M51.995,177.713c-1.826-1.938-5.598-1.441-6.179-4.937c1.882-3.042,3.706-6.179,8.167-5.062
		c1.494,2.771,3.604,5.012,6.012,6.997c-0.049,1.654,0.648,3.732-2.515,3.066C55.724,177.41,53.829,177.713,51.995,177.713z"/>
	<path fill="#F2F2F2" d="M5.935,101.753c-1.617-3.273-0.698-6.789-0.946-10.189C4.71,87.744,3.574,84.177,2,80.725
		c0-3.667,0-7.333,0-10.999c1.331-1.202-0.734-4.063,2.194-4.485c0.932,0.153,1.47,0.736,1.756,1.6
		c0.4,6.625-1.057,13.465,2.304,19.743c0.207,0.911,0.225,1.84,0.279,2.771c0.102,2.251,0.304,4.489,0.531,6.726
		C9.33,98.702,8.293,100.587,5.935,101.753z"/>
	<path fill="#787878" d="M19.139,7.735c0.791-3.135,3.269-4.622,5.859-6c0.667,0,1.333,0,2,0c0.981,0.711,1.962,1.422,2.943,2.133
		c0.129,0.683,0.083,1.553-0.529,1.747C26.067,6.672,22.864,8.513,19.139,7.735z"/>
	<path fill="#FBFBFB" d="M3.999,65.727c-0.667,1.333-1.332,2.667-1.999,4c0-6.333,0-12.665,0-18.998
		c0.307,0.005,0.613,0.011,0.919,0.018c0.228,0.12,0.455,0.239,0.682,0.358c1.688,2.979,0.468,6.604,2.129,9.593
		c0.293,0.985,0.247,2.006,0.304,3.016C5.828,64.86,4.966,65.346,3.999,65.727z"/>
	<path fill="#AAAAAA" d="M15.135,36.533c3.103,2.996,2.67-1.001,3.794-1.919c0.876-1.213,1.76-2.412,3.548-2.027
		c2.84,0.871,5.593-0.551,8.402-0.338c0.44,0.003,0.886,0.024,1.325,0.058c1.043-0.032,1.819,0.888,2.875,0.771
		c1.748-0.761,2.826-2.858,5.086-2.52c0.271,0.313,0.545,0.629,0.817,0.942c9.577,3.76,9.538,12.745,11.166,20.759
		c0.44,2.173-0.256,4.284-2.024,5.853c-0.718,0.705-1.39,1.46-1.974,2.288c-0.264,0.408-0.534,0.813-0.79,1.221
		c-1.525,1.521,0.057,4.44-2.459,5.521c-2.418-0.032-2.822-1.687-2.891-3.281c-0.278,2.183,0.346,4.597,0.75,7.04
		c1.096,6.623-1.033,9.498-7.639,10.187c-3.529,0.368-7.23,1.875-10.387-1.183c-0.167-1.372,0.7-1.64,1.854-1.691
		c-8.363,2.432-8.363,2.432-12.3,0.952c-1.442-2.096,0.558-4.092,0.185-6.151c-0.086-6.629,0.156-13.315-3.039-19.456
		c-0.297-0.385-0.576-0.785-0.851-1.187c-0.283-0.388-0.565-0.778-0.865-1.153c-0.504-0.528-1.099-0.97-1.563-1.548
		c-0.277-0.424-0.439-0.891-0.545-1.382c0.344-2.593-1.458-4.771-1.45-7.305C8.49,38.161,10.676,35.055,15.135,36.533z"/>
	<path fill="#6C6C6C" d="M53.982,167.716c-2.931,1.351-4.599,4.737-8.167,5.062c-1.15-0.632-1.359-1.811-1.688-2.917
		c0.399-0.988,0.912-1.908,1.646-2.692c1.773-1.478,2.512-3.278,2.471-5.673c-0.293-17.311-2.416-34.414-5.465-51.431
		c-1.009-5.638-2.021-11.178-6.908-15.016c-0.646-0.507-0.768-1.448-0.719-2.318c0.159-0.925,0.676-1.581,1.503-2.006
		c3.511-0.243,6.488,1.143,9.294,3.048c1.896,9.721,1.456,19.976,3.707,29.31c3.243,13.449,3.206,26.974,4.98,40.41
		C54.847,165.07,54.993,166.426,53.982,167.716z"/>
	<path fill="#DCDCDC" d="M19.987,20.773c-1.188-0.752-1.531-1.771-0.968-3.074c2.628-1.525-0.555-3.975,0.9-5.689
		c2.489-3.11,5.567-4.768,9.536-3.233c3.338,1.291,4.471,4.136,4.502,7.523c0.166,0.517,0.463,0.941,0.895,1.273
		c0.461,2.965-2.402,4.593-2.887,7.178c-3.845,4.979-4.137,5.064-7.937,2.361C22.701,24.991,22.306,22.27,19.987,20.773z"/>
	<path fill="#6D6D6D" d="M47.947,57.706c1.112-1.019,2.382-2.176,1.986-3.75c-1.854-7.395-0.438-16.063-8.097-21.26
		c-0.381-0.258-0.573-0.79-0.854-1.195c12.432,2.269,11.548,13.091,13.906,21.781c0.377,1.389,0.085,2.959,0.102,4.446
		C52.637,59.642,50.288,59.821,47.947,57.706z"/>
	<path fill="#727272" d="M19.139,7.735c3.233-2.314,7.065-2.958,10.802-3.868c2.998,0.19,4.548,1.948,5.138,4.746
		c0.852,1.715,0.103,2.611-1.556,3.041c-3.989-1.529-7.908-3.864-12.281-1.09c-0.855,0.084-1.592-0.144-2.152-0.829
		C19.106,9.068,19.122,8.402,19.139,7.735z"/>
	<path fill="#C3C3C3" d="M54.079,72.717c-1.342,4.325-3.478,8.265-5.859,12.083c-0.676,0.496-1.398,0.61-2.176,0.269
		c-1.529-1.843-0.092-3.347,0.564-4.94c3.365-5.251,5.454-10.635,1.727-16.63c0.037-0.573,0.244-1.068,0.625-1.499
		c1.514-0.857,3.021-1.739,4.805-0.681C55.071,65.084,54.622,68.9,54.079,72.717z"/>
	<path fill="#BFBFBF" d="M46.106,84.735c0.704,0.021,1.408,0.044,2.113,0.064c-0.366,3.09-2.551,5.719-2.268,8.972
		c-3.293,0.428-6.022-1.452-9.027-2.207c-1.275-0.154-2.5-0.369-2.418-2.093c0.273-1.041,0.998-1.644,1.955-2.016
		c0.461-0.095,0.931-0.143,1.4-0.135c2.735,0.682,5.305,0.785,7.016-2.055C45.241,84.982,45.653,84.811,46.106,84.735z"/>
	<path fill="#F0F0F0" d="M34.084,35.943c-0.734-0.768-1.47-1.533-2.203-2.299c-0.364-0.316-0.735-0.624-1.114-0.923
		c-1.946-2.139,0.472-4.076,0.279-6.134c0.271-0.407,0.632-0.709,1.083-0.902c2.617,0.209,4.299,1.521,4.879,4.136
		C36.456,32.063,38.984,35.776,34.084,35.943z"/>
	<path fill="#919191" d="M34.084,35.943c3.084-1.033,1.199-4.44,2.924-6.123c1.15-0.176,2.207,0.055,3.156,0.737
		c-1.51,1.448-2.187,3.227-2.259,5.311c-0.034,0.993-0.31,2.069-1.541,2.211C34.866,38.252,34.475,37.055,34.084,35.943z"/>
	<path fill="#8D8D8D" d="M33.045,10.71c1.047-0.341,1.672-1.09,2.033-2.097c1.418,3.024,0.604,5.992-0.227,8.959
		c-0.541,0.378-1.083,0.756-1.625,1.133C32.034,16.066,32.066,13.399,33.045,10.71z"/>
	<path fill="#EAEAEA" d="M54.079,72.717c-0.365-3.662,0.803-7.475-1.082-10.987c-2.142-1.044-5.343,1.981-6.781-1.767
		c-0.01-0.216-0.053-0.426-0.129-0.629c2.939-0.869,5.869-1.025,8.779,0.125C54.708,63.885,55.856,68.388,54.079,72.717z"/>
	<path fill="#626262" d="M54.866,59.46c-2.926-0.042-5.853-0.083-8.779-0.125c0.39-0.806,0.943-1.424,1.859-1.629
		c2.348,0.008,4.696,0.016,7.044,0.022C55.597,58.352,54.976,58.888,54.866,59.46z"/>
	<path fill="#CECECE" d="M32.129,25.685c-0.047,0.348-0.096,0.693-0.144,1.042c-1.149,2.224-2.36,4.44-5.428,3.906
		c-2.963-0.516-4.576-2.409-4.99-5.356c1.429-1.86,2.369-0.256,3.431,0.486c2.883,3.529,4.569-1.198,6.966-1.012
		C32.017,25.063,32.071,25.374,32.129,25.685z"/>
	<path fill="#909090" d="M35.754,92.497c5.785,1.817,7.649,6.708,8.48,11.833c2.276,14.06,5.546,27.994,5.725,42.341
		c0.049,3.979-0.436,8.021,0.584,11.917c1.246,4.753,0.057,8.164-4.695,10.004c-1.813-3.171-1.834-6.722-1.797-10.166
		c0.088-8.174-0.598-16.299-0.998-24.445c-0.18-3.651-3.618-6.07-3.184-9.796c-4.037-5.79-6.545-12.273-8.667-18.962
		c-0.45-1.417-1.061-3.224-3.192-3.235c-0.295-0.107-0.6-0.172-0.913-0.195c-3.16,0.721-3.481,3.429-4.133,5.904
		c-2.253,8.545-1.396,17.443-2.951,26.068c-1.177-3.717-0.102-7.536-0.529-10.657c-0.318,3.956,0.956,8.707-1.614,13.079
		c-0.434,0.737,0.165,1.938,1.176,2.486c3.154,5.269,1.261,11.679,3.867,17.069c-1.646,2.621-2.292,6.396-6.713,5.819
		c-2.27-3.304-0.728-7.102-1.385-10.619c-1.352-7.24-2.47-14.51-1.312-21.902c1.652-10.542-0.371-20.642-3.644-30.595
		c-0.629-2.164-1.046-4.354-0.816-6.624c0.647-2.624-0.225-5.646,2.092-7.816c0.441-0.281,0.908-0.525,1.392-0.729
		c0.694-0.287,1.382-0.605,2.096-0.841c0.695-0.146,1.401-0.168,2.104-0.105c0.439,0.07,0.862,0.21,1.263,0.402
		c0.379,0.199,0.763,0.4,1.15,0.592c0.587,0.255,1.186,0.485,1.801,0.674c0.633,0.175,1.278,0.308,1.888,0.563
		c3.475,2.01,8,1.932,10.731,5.408C34.114,90.964,35.059,91.623,35.754,92.497z"/>
	<path fill="#CFCFCF" d="M40.142,122.626c4.119,8.059,4.872,16.714,4.874,25.592c0.001,6.791,0.536,13.583,0.833,20.374
		c-0.573,0.424-1.146,0.846-1.72,1.269c-2.217-9.463-1.183-19.177-1.719-28.741c-0.345-6.144-3.396-11.372-3.486-17.327
		C38.652,122.696,39.138,122.39,40.142,122.626z"/>
	<path fill="#D3D3D3" d="M40.142,122.626c-0.406,0.39-0.813,0.777-1.218,1.166c-4.545-4.614-6.125-10.716-8.337-16.512
		c-0.697-1.826-1.708-3.532-2.576-5.293c3.51-1.514,3.899,1.531,4.54,3.447C34.545,111.415,36.543,117.364,40.142,122.626z"/>
	<path fill="#919191" d="M22.964,107.696c-0.193-5.45,0.664-6.673,4.133-5.904c-0.386,0.656-0.771,1.313-1.157,1.969
		C24.948,105.072,23.956,106.384,22.964,107.696z"/>
	<path fill="#CECECE" d="M12.003,97.715c2.045,9.032,3.501,18.188,2.643,27.425c-0.634,6.835-1.177,13.609,0.354,20.312
		c1.228,5.374,0.151,10.987,2.017,16.249c0.646,0.521,1.194,1.094,1.073,2.022c-0.628,0.41-1.255,0.821-1.883,1.232
		c-3.462-11.021-3.96-22.357-3.635-33.792c0.16-5.628,0.332-11.26,0.266-16.888c-0.053-4.487-1.513-8.374-5.902-10.521
		C6.97,100.354,8.653,98.335,12.003,97.715z"/>
	<path fill="#DEDEDE" d="M12.003,97.715c0.829,4.125-4.213,3.327-5.067,6.041c-0.333-0.668-0.667-1.335-1.001-2.003
		c1.475-4.256,0.951-8.679,1.089-13.047c0.534-0.538,1.168-0.696,1.896-0.499c1.443,0.712,0.849,2.602,2.008,3.479
		C11.287,93.695,11.645,95.706,12.003,97.715z"/>
	<path fill="#DDDDDD" d="M22.011,24.746c2.433,5.151,6.167,3.752,9.975,1.98c1.591,2.041-0.41,4.063-0.03,6.098
		c-0.273,0.308-0.573,0.59-0.896,0.845c-2.848,1.87-5.803,1.903-8.84,0.515c-0.375-2.159-4.131-3.676-1.231-6.458
		c0.015-0.991,0.03-1.982,0.044-2.974C21.357,24.436,21.684,24.434,22.011,24.746z"/>
	<path fill="#D6D6D6" d="M15.135,36.533c-3.266,0.862-6.431,1.879-8.104,5.217c1.629,2.877,0.179,5.863,0.275,8.787
		c-0.347,0.785-0.885,1.349-1.682,1.656c-1.301,0.315-2.019-0.387-2.53-1.453l-0.175,0.007c0.447-2.274,0.989-4.538,1.322-6.83
		c0.681-4.686,4.037-7.024,7.751-9.072C13.856,33.817,14.768,34.703,15.135,36.533z"/>
	<path fill="#EEEEEE" d="M20.987,27.724c-0.283,2.284,4.224,3.656,1.231,6.458c-1.096,0.144-2.192,0.287-3.289,0.431
		C18.459,31.972,16.922,29.012,20.987,27.724z"/>
	<path fill="#8C8C8C" d="M19.089,9.735c0.636,0,1.271-0.001,1.907-0.001c0.923,0.997,0.704,1.997,0.007,2.999
		c-0.431,1.748,0.287,3.955-1.985,4.967C19.096,15.044,16.889,12.37,19.089,9.735z"/>
	<path fill="#ECECEC" d="M22.011,24.746h-0.49l-0.49,0.005c-0.348-1.326-0.696-2.651-1.045-3.978
		c1.059-1.415,2.071-1.41,2.867,0.199c0.775,1.566,1.435,3.19,2.145,4.79C24.003,25.423,23.007,25.084,22.011,24.746z"/>
	<path fill="#949494" d="M19.046,138.673c-2.33,0.441-2.199-1.413-1.748-2.444c2.41-5.519,1.4-11.37,2.714-17.096
		c0,4.877,0,9.754,0,14.632C18.862,135.237,18.469,136.859,19.046,138.673z"/>
	<path fill="#949494" d="M18.09,163.723c-0.358-0.675-0.715-1.349-1.073-2.022c1.965-1.986,3.931-3.972,5.896-5.958
		C23.182,159.537,20.752,161.701,18.09,163.723z"/>
	<path fill="#DFDFDF" d="M6.974,86.743c-3.833-6.366-3.627-13.128-1.957-20.032c3.678-0.915,4.362,1.337,4.457,4.212
		c0.041,3.726,0.063,7.451-0.006,11.176C9.432,84.042,9.519,86.118,6.974,86.743z"/>
	<path fill="#C5C5C5" d="M7.999,70.726c-0.07-2.024-1.268-3.21-2.981-4.016c-0.339-0.329-0.679-0.656-1.019-0.984
		c0.314-0.658,0.629-1.314,0.943-1.973c0.51-0.371,1.073-0.491,1.69-0.36c3.746,0.701,5.264,2.901,4.908,6.723
		c-0.262,2.806,0.047,5.653-0.151,8.477c-0.12,0.911-0.447,1.713-1.226,2.266c-1.878,0.186-1.548-1.215-1.662-2.306
		C8.231,75.951,9.069,73.277,7.999,70.726z"/>
	<path fill="#D0D0D0" d="M7.999,70.726c1.961,3.07,0.051,6.896,1.943,9.979c2.25,2.981,0.067,5.421-0.975,8
		c-0.647,0-1.295,0-1.943,0c-0.017-0.654-0.034-1.309-0.05-1.963C8.897,81.505,7.648,76.065,7.999,70.726z"/>
	<path fill="#B0B0B0" d="M6.28,63.913c-0.446-0.053-0.892-0.104-1.338-0.158c-0.343-0.666-0.687-1.332-1.03-1.999
		c0.454-3.339-0.806-6.856,1.045-10.051c0.328-0.356,0.655-0.713,0.983-1.07c2.466,1.146,1.207,4.582,3.57,5.797
		c0.321,0.343,0.564,0.729,0.753,1.155c0.243,0.933,0.214,1.88,0.2,2.829c-0.022,0.484-0.089,0.961-0.194,1.435
		C10,62.546,9.528,63.1,9.036,63.641C8.168,64.246,7.254,64.385,6.28,63.913z"/>
	<path fill="#D2D2D2" d="M4.958,51.705c-0.07,3.379,0.618,6.837-1.045,10.051c-1.616-3.571-0.699-7.333-0.818-11.017
		C3.716,51.062,4.337,51.383,4.958,51.705z"/>
	<path fill="#6C6C6C" d="M33.083,91.733c-2.67-3.891-7.973-2.931-11.083-6.009c0.041-0.233,0.013-0.457-0.095-0.666
		c-0.01,0.006-0.255-0.225-0.268-0.215c-0.013,0.011-0.344-0.072-0.356-0.063c-0.282,0.028-0.507,0.138-0.693,0.348
		c-0.214,0.188-0.402,0.388-0.573,0.604c-0.679,0.009-1.357,0.017-2.036,0.025c-0.271-0.301-0.428-0.651-0.471-1.057
		c-0.009-0.409-0.081-0.803-0.22-1.191c-0.225-0.361-0.473-0.699-0.753-1.021c-0.313-0.642-0.301-1.277,0.012-1.915
		c0.324-0.355,0.708-0.604,1.17-0.738c2.423-0.021,4.839-0.433,7.26-0.048c2.98-0.063,5.983,0.09,8.936-0.233
		c5.651-0.62,7.59-3.193,6.213-8.794c-1.332-5.413,0.558-9.985,2.791-15.557c2.02,4.24,0.146,8.264,1.912,11.619
		c1.225,0.407,1.508,1.471,1.776,2.544c0.862,2.349,0.992,4.785,0.866,7.252c-0.008,0.545-0.07,1.085-0.191,1.617
		c-0.615,2.004-1.537,3.89-2.267,5.851c-1.111,2.992-3.226,4.286-6.411,3.658c-0.277-0.113-0.536-0.28-0.811-0.407
		c-0.318-0.146-0.436-0.613-0.881-0.545c0.192,0.239,0.354,0.498,0.491,0.806c0.045,0.5-0.149,0.854-0.542,1.105
		c-0.602,0.373-1.205,0.746-1.807,1.119C34.711,90.787,34.027,91.394,33.083,91.733z"/>
	<path fill="#A6A6A6" d="M8,57.728c-1.086,1.131-1.789,0.767-1.888-0.641c-0.152-2.145-0.123-4.301-0.17-6.453
		c0.364-2.962,0.727-5.923,1.09-8.885c2.136,1.423,1.937,4.007,2.968,5.979c-1.003,1.146,0.518,1.483,0.721,2.246
		c0.109,0.464,0.118,0.93,0.04,1.398C10.58,53.813,10.078,56.113,8,57.728z"/>
	<path fill="#D3D3D3" d="M15.996,72.724c-0.35,2-0.699,4-1.049,6c0.182,0.742,0.365,1.484,0.164,2.255
		c-0.301,0.729-0.785,1.32-1.382,1.829c-0.478,0.271-0.979,0.331-1.506,0.18c-1.707-1.081-1.061-2.822-1.221-4.338
		c-0.134-2.207,0.526-4.336,0.629-6.521c1.326-3.407-0.319-7.454,2.278-10.588c2.183,0.065,1.451,1.756,1.573,2.906
		C15.773,67.197,14.969,70.016,15.996,72.724z"/>
	<path fill="#B0B0B0" d="M13.953,80.665c0.332-0.646,0.663-1.293,0.994-1.939c5.938,0.489,11.769-1.848,18.837-0.576
		c-3.551,1.016-6.493-0.063-8.807,1.642c-2.493,1.574-5.308,0.652-7.956,1.03c-0.373,0.299-0.787,0.521-1.242,0.668
		C15.024,81.54,14.388,81.326,13.953,80.665z"/>
	<path fill="#FEFEFE" d="M45.157,69.702c-0.109-0.958-0.219-1.917-0.328-2.877c0.68-2.243-0.787-4.921,1.389-6.861
		c2.092,1.237,4.76,0.259,6.781,1.767c-1.313,0.335-2.627,0.671-3.939,1.006c-0.889,1.513,0.863,3.061-0.133,4.643
		C48.015,68.825,47.765,71.097,45.157,69.702z"/>
	<path fill="#D3D3D3" d="M15.996,72.724c-2.078-3.411,0.074-7.581-1.976-10.997c-2.286-1.832-2.054-4.821-3.281-7.144
		c-0.063-1.186,0.211-2.204,1.365-2.793c2.24,0.811,2.532,2.729,2.848,4.744C15.794,61.904,16.124,67.297,15.996,72.724z"/>
	<path fill="#717171" d="M12.104,51.792c0.026,0.994,0.051,1.987,0.077,2.98c1.021,1.219,0.778,2.683,0.796,4.095
		c0,0.949-0.3,1.813-0.769,2.621c-0.293,0.34-0.648,0.6-1.068,0.763c-0.439,0.049-0.857-0.033-1.245-0.245
		c-0.261-0.348-0.385-0.745-0.389-1.179C9.496,59.992,9.5,59.156,9.5,58.32c0-0.411,0.002-0.823,0.007-1.233
		c-0.002-0.826,0.152-1.629,0.366-2.423c0.2-1.005,0.037-2.047,0.315-3.044c0.165-0.375,0.354-0.737,0.571-1.084
		c0.398-0.188,0.762-0.146,1.085,0.166C11.93,51.064,12.018,51.427,12.104,51.792z"/>
	<path fill="#7D7D7D" d="M10.076,50.635c-0.034-0.327-0.079-0.653-0.136-0.979c-0.289-0.226-0.371-0.43-0.249-0.614
		c0.115-0.174,0.227-0.261,0.337-0.261c0.628,0.345,1.256,0.69,1.884,1.035c-0.246,0.308-0.509,0.601-0.787,0.88l-0.229,0.084
		C10.566,51.057,10.292,51.008,10.076,50.635z"/>
	<path fill="#B6B6B6" d="M10.029,48.782c-0.032,0.292-0.062,0.583-0.088,0.875C9.45,48.999,9.489,48.355,10,47.728
		C10.009,48.079,10.019,48.43,10.029,48.782z"/>
	<path fill="#676767" d="M11.125,50.697c0.262-0.293,0.525-0.586,0.787-0.88c0.007,0.297-0.016,0.591-0.069,0.884l-0.359,0.001
		L11.125,50.697z"/>
	<path fill="#6A6A6A" d="M31.059,33.668c0.299-0.282,0.598-0.563,0.896-0.845c0.021,0.278-0.004,0.551-0.074,0.82
		C31.607,33.667,31.333,33.676,31.059,33.668z"/>
	<path fill="#BEBEBE" d="M33.083,91.733c0.416-0.885,0.998-1.6,1.97-1.909c0.624,0.58,1.247,1.16,1.87,1.74
		c-0.389,0.311-0.778,0.622-1.168,0.932C34.864,92.243,33.974,91.988,33.083,91.733z"/>
	<path fill="#D4D4D4" d="M21.004,12.732c-0.002-1-0.005-2-0.007-2.999c4.169-1.56,8.151-0.813,12.048,0.977
		c0.062,2.666,0.121,5.331,0.183,7.996c-0.319-0.574-0.771-1.112-0.938-1.728C30.134,9.061,27.502,8.061,21.004,12.732z"/>
	<path fill="#DFDFDF" d="M45.874,77.642c0.086-0.322,0.18-0.642,0.285-0.957c1.129-4.288,1.534-8.735,2.852-12.981
		c2.561,0.46,3.529,1.8,3.23,4.541c-0.494,4.521-1.25,8.855-4.263,12.473C45.432,80.954,46.269,78.876,45.874,77.642z"/>
	<path fill="#F2F2F2" d="M45.874,77.642c0.701,1.024,1.403,2.05,2.104,3.074c-0.624,1.34-1.248,2.679-1.872,4.019
		c-0.059,0.324-0.111,0.649-0.161,0.977c-1.842,3.177-4.569,4.076-8.019,3.12c-0.355-0.042-0.711-0.083-1.067-0.125
		c0.075-0.324,0.144-0.648,0.208-0.976c0.186-0.401,0.497-0.632,0.936-0.695C43.844,86.602,44.174,81.549,45.874,77.642z"/>
	<path fill="#F2F2F2" d="M49.008,63.704c-0.018,4.532-0.059,9.06-2.852,12.981c-0.332-2.328-0.667-4.655-1-6.983
		c2.92-1.415,2.157-4.893,3.902-6.966C49.03,63.057,49.013,63.38,49.008,63.704z"/>
	<path fill="#DFDFDF" d="M37.926,88.831c2.972-0.271,5.445-1.823,8.019-3.12C44.315,91.077,44.116,91.154,37.926,88.831z"/>
	<path fill="#F9F9F9" d="M11.947,78.722c0.061,1.4-0.014,2.828,0.826,4.072c0.733,0.557,0.828,1.195,0.249,1.92
		c-2.294,1.845-1.719,4.551-2.094,6.971c-1.377-0.518-1.828-1.644-1.961-2.979c0.325-2.667,0.65-5.333,0.975-8
		c0.077-0.659,0.153-1.317,0.229-1.977c0.208-0.321,0.5-0.511,0.878-0.568C11.423,78.23,11.722,78.417,11.947,78.722z"/>
	<path fill="#717171" d="M13.022,84.715c-0.083-0.64-0.166-1.279-0.249-1.92c0.086-0.351,0.173-0.702,0.261-1.053
		c1.083-1.029,2.101-0.105,3.142,0.105c0.604,0.282,1.287,0.4,1.809,0.857c0.004,0.34,0.008,0.681,0.012,1.021
		c-0.333,0.673-0.667,0.674-1.001,0c-0.655,0.002-1.311,0.004-1.965,0.006c-0.307,0.354-0.732,0.585-1.019,0.962
		C13.682,84.707,13.352,84.713,13.022,84.715z"/>
	<path fill="#878787" d="M20.015,85.733c0.005-0.319,0.008-0.64,0.01-0.958c1.979-1.394,3.972-1.445,5.98-0.063
		c-0.989,1.708-2.656,0.732-4.005,1.012C21.338,85.728,20.677,85.73,20.015,85.733z"/>
	<path fill="#777777" d="M16.996,83.726c0.334,0,0.667,0,1.001,0c-0.002,0.331-0.004,0.662-0.006,0.991
		c-0.298,0.385-0.605,0.41-0.923,0.023C17.043,84.403,17.02,84.064,16.996,83.726z"/>
	<path fill="#717171" d="M17.067,84.742c0.308-0.01,0.616-0.017,0.923-0.023c-0.004,0.347-0.007,0.693-0.011,1.041
		C17.675,85.42,17.371,85.081,17.067,84.742z"/>
	<path fill="#777777" d="M14.012,84.695c0.339-0.321,0.679-0.643,1.019-0.962C14.691,84.052,14.351,84.374,14.012,84.695z"/>
	<path fill="#F8F8F8" d="M11,78.725c-0.276,0.001-0.552,0.003-0.829,0.005c-0.018-1.656-0.186-3.327-0.023-4.965
		c0.394-3.979-0.217-7.493-3.867-9.853c0.611-0.428,1.221-0.854,1.832-1.283c1.112-0.651,2.306-0.407,3.487-0.322
		c2.418,2.559,0.688,5.575,0.711,8.322C12.333,73.31,12.009,76.121,11,78.725z"/>
	<path fill="#AFAFAF" d="M10.076,50.635c0.274,0.049,0.548,0.098,0.821,0.146c0.027,1.296,0.054,2.591,0.081,3.887
		c-0.86,0.85-0.128,2.149-0.859,3.034l-0.104,0.043c-0.281,0.695-0.583,0.705-0.907,0.028c-0.37-0.016-0.739-0.03-1.108-0.045
		C8.312,55.252,8.712,52.802,10.076,50.635z"/>
	<path fill="#898989" d="M9.107,57.774c0.303-0.008,0.605-0.018,0.907-0.028c-0.008,0.989-0.015,1.978-0.023,2.966
		C9.79,61.468,9.513,61.497,9.159,60.8C9.142,59.791,9.125,58.782,9.107,57.774z"/>
	<path fill="#606060" d="M10.957,62.706c-0.948-0.024-1.897-0.05-2.845-0.076c0.285-0.307,0.57-0.613,0.855-0.922
		c0.339-0.43,0.681-0.456,1.027-0.009c0.348,0.02,0.696,0.04,1.044,0.059c0.21,0.23,0.268,0.447,0.174,0.651
		C11.122,62.606,11.037,62.706,10.957,62.706z"/>
	<path fill="#737373" d="M9.995,61.699c-0.342,0.003-0.685,0.006-1.027,0.01c0.052-0.306,0.115-0.608,0.19-0.91
		c0.279-0.031,0.557-0.061,0.834-0.087C9.995,61.041,9.996,61.37,9.995,61.699z"/>
	<path fill="#8C8C8C" d="M38,87.035c-0.312,0.232-0.623,0.463-0.935,0.695c-0.813-0.116-1.729-0.033-2.418-0.391
		c-1.576-0.815-4.922,0.169-4.5-2.392c0.338-2.059,3.504-1.938,5.577-2.032C38.989,82.766,38.282,85.078,38,87.035z"/>
	<path fill="#717171" d="M26.005,84.713c-1.994,0.021-3.986,0.041-5.98,0.063c0.333-0.682,0.665-1.362,0.997-2.043
		c1.328,0.786,2.654,0.745,3.978-0.011C27.013,82.538,26.173,83.795,26.005,84.713z"/>
	<path fill="#888888" d="M25,82.721c-1.323,0.986-2.649,1.009-3.978,0.011C22.348,82.728,23.673,82.724,25,82.721z"/>
	<path fill="#8B8B8B" d="M17.985,82.705c-0.659-0.007-1.317-0.013-1.976-0.02c-0.294-0.221-0.415-0.463-0.363-0.73
		c0.055-0.278,0.125-0.417,0.209-0.417c0.436-0.299,0.821-0.245,1.157,0.162C17.337,82.035,17.662,82.37,17.985,82.705z"/>
	<path fill="#787878" d="M17.013,81.7c-0.338,0.009-0.677,0.019-1.015,0.028c-0.276-0.213-0.363-0.418-0.261-0.617
		c0.1-0.194,0.198-0.292,0.295-0.292c0.33-0.024,0.659-0.025,0.989,0C17.013,81.113,17.01,81.407,17.013,81.7z"/>
	<path fill="#FBFBFB" d="M10.957,62.706c0.049-0.313,0.076-0.63,0.082-0.948l0.017,0.068c0.47-0.447,1.011-0.563,1.624-0.35
		c1.518,3.692,0.875,7.464,0.408,11.229c-0.38,2.005-0.76,4.011-1.14,6.018c-0.316,0.001-0.631,0.002-0.947,0.002
		C10.986,73.385,10.971,68.045,10.957,62.706z"/>
	<path fill="#E1E1E1" d="M13.087,72.705c-0.492-3.706,0.87-7.633-1.337-11.133c-0.279-0.608-0.292-1.204,0.092-1.778
		c0.113-1.674,0.227-3.348,0.34-5.021c2.712,1.764,1.499,4.564,1.839,6.955C13.699,65.385,14.745,69.161,13.087,72.705z"/>
	<path fill="#868686" d="M16.032,80.819c-0.014,0.303-0.025,0.605-0.034,0.909c0.003,0.318,0.007,0.639,0.011,0.958
		c-0.992-0.315-1.983-0.63-2.976-0.944c0.307-0.359,0.613-0.717,0.919-1.076C14.646,80.716,15.339,80.767,16.032,80.819z"/>
	<path fill="#737373" d="M10.118,57.702c0.287-1.011,0.573-2.021,0.859-3.034C10.691,55.68,10.405,56.691,10.118,57.702z"/>
	<path fill="#737373" d="M11.842,59.794c-0.031,0.594-0.062,1.187-0.092,1.778c-0.235,0.074-0.466,0.159-0.694,0.253
		C11.318,61.149,11.58,60.472,11.842,59.794z"/>
</g>
</svg>
