<?xml version="1.0" encoding="utf-8"?>
<!-- Generator: Adobe Illustrator 16.2.0, SVG Export Plug-In . SVG Version: 6.00 Build 0)  -->
<!DOCTYPE svg PUBLIC "-//W3C//DTD SVG 1.0//EN" "http://www.w3.org/TR/2001/REC-SVG-20010904/DTD/svg10.dtd">
<svg version="1.0" id="Layer_1" xmlns="http://www.w3.org/2000/svg" xmlns:xlink="http://www.w3.org/1999/xlink" x="0px" y="0px"
	 width="46.438px" height="29.051px" viewBox="0 -0.781 46.438 29.051" enable-background="new 0 -0.781 46.438 29.051"
	 xml:space="preserve">
<path fill="#1E3E6C" d="M19.403,11.422c-0.565,0.295-1.142,0.534-1.651,0.875c-1.429,0.958-2.834,1.954-4.242,2.945
	c-1.676,1.181-3.389,2.293-5.345,2.966c-0.982,0.339-1.992,0.561-3.037,0.589c-0.126,0.003-0.253,0-0.427,0
	c0.13-0.776,0.252-1.513,0.376-2.248c0.264-1.556,0.521-3.114,0.798-4.668c0.046-0.259-0.103-0.344-0.262-0.455
	C3.865,10.199,2.118,8.971,0.37,7.742C0.264,7.667,0.161,7.59,0,7.473C0.493,7.42,0.932,7.388,1.366,7.323
	C3.086,7.063,4.59,6.3,5.951,5.251c1.107-0.854,2.172-1.764,3.26-2.642c1.588-1.28,3.29-2.349,5.331-2.74
	c0.582-0.111,1.182-0.134,1.771-0.214c0.295-0.04,0.426,0.089,0.55,0.344c2.005,4.117,4.021,8.229,6.034,12.342
	c0.062,0.127,0.127,0.253,0.217,0.43c0.1-0.179,0.183-0.315,0.255-0.458c2.096-4.102,4.194-8.202,6.277-12.31
	c0.14-0.275,0.291-0.358,0.592-0.353c2.623,0.063,4.928,0.99,6.986,2.566c1.059,0.811,2.069,1.683,3.104,2.525
	C41.466,5.672,42.639,6.557,44.06,7c0.771,0.241,1.582,0.355,2.376,0.527c-0.06,0.045-0.163,0.125-0.271,0.202
	c-1.748,1.229-3.493,2.461-5.248,3.681c-0.235,0.164-0.301,0.323-0.251,0.608c0.388,2.205,0.756,4.413,1.129,6.62
	c0.006,0.037,0,0.077,0,0.146c-0.822,0.056-1.621-0.082-2.412-0.275c-1.967-0.479-3.704-1.447-5.355-2.579
	c-1.282-0.878-2.512-1.833-3.812-2.685c-0.98-0.644-2.032-1.178-3.054-1.76c-0.251-0.144-0.394-0.09-0.532,0.19
	c-0.636,1.288-1.291,2.566-1.957,3.838c-0.123,0.236-0.113,0.413,0.001,0.646c1.667,3.375,3.321,6.757,4.989,10.131
	c0.231,0.467,0.334,0.903-0.043,1.33c-0.431,0.485-0.965,0.74-1.625,0.615c-0.35-0.065-0.525-0.337-0.675-0.642
	c-1.356-2.779-2.718-5.554-4.079-8.331c-0.062-0.127-0.126-0.253-0.213-0.427c-0.085,0.158-0.154,0.277-0.217,0.398
	c-1.412,2.766-2.825,5.53-4.237,8.296c-0.293,0.572-0.603,0.772-1.112,0.721c-0.669-0.07-1.371-0.548-1.438-1.069
	c-0.035-0.271,0.048-0.594,0.174-0.844c1.717-3.395,3.447-6.782,5.188-10.164c0.146-0.283,0.154-0.495,0.008-0.781
	c-0.604-1.174-1.175-2.361-1.761-3.545C19.573,11.726,19.502,11.605,19.403,11.422z M15.086,2.284
	c-0.347,0.118-0.605,0.198-0.858,0.296c-1.215,0.471-2.229,1.253-3.194,2.102C9.419,6.101,7.85,7.576,5.913,8.567
	C5.899,8.574,5.902,8.613,5.892,8.657c0.794,0.565,1.591,1.142,2.397,1.701c0.193,0.135,0.277,0.268,0.233,0.51
	c-0.179,0.979-0.342,1.962-0.507,2.943c-0.11,0.654-0.214,1.311-0.328,2.009c0.188-0.075,0.33-0.112,0.451-0.183
	c1.063-0.612,2.157-1.178,3.177-1.856c2.268-1.512,4.339-3.322,6.93-4.452C17.19,6.975,16.144,4.645,15.086,2.284z"/>
</svg>
