<?xml version="1.0" encoding="utf-8"?>
<!-- Generator: Adobe Illustrator 16.2.0, SVG Export Plug-In . SVG Version: 6.00 Build 0)  -->
<!DOCTYPE svg PUBLIC "-//W3C//DTD SVG 1.0//EN" "http://www.w3.org/TR/2001/REC-SVG-20010904/DTD/svg10.dtd">
<svg version="1.0" id="Layer_1" xmlns="http://www.w3.org/2000/svg" xmlns:xlink="http://www.w3.org/1999/xlink" x="0px" y="0px"
	 width="38.64px" height="36.96px" viewBox="0 0 38.64 36.96" enable-background="new 0 0 38.64 36.96" xml:space="preserve">
<path fill-rule="evenodd" clip-rule="evenodd" d="M0.24,35.521c0-5.44,0-10.881,0-16.32c0.061-0.183,0.164-0.364,0.175-0.55
	c0.098-1.675,0.517-2.1,2.168-2.106c2.438-0.009,4.878-0.057,7.313,0.035c0.64,0.024,1.398,0.354,1.866,0.794
	c0.924,0.871,1.983,0.851,2.69-0.25c0.69-1.075,1.357-2.166,2.074-3.222c1.266-1.865,2.731-3.511,4.717-4.684
	c2.465-1.456,3.922-3.551,3.763-6.564c-0.075-1.422,0.968-2.489,2.296-2.197c0.645,0.142,1.332,0.724,1.719,1.297
	c1.506,2.229,1.194,5.422-0.691,7.667c-1.028,1.224-1.724,2.532-1.654,4.284c2.086,0,4.082-0.084,6.067,0.029
	c1.379,0.079,2.785,0.296,4.103,0.698c1.493,0.455,2.048,1.269,1.824,2.803c-0.179,1.229-0.786,2.396-1.24,3.695
	c1.82,1.63,1.829,3.107-0.171,5.431c1.255,1.806,1.092,2.923-0.771,5.29c0.853,1.551,0.589,3.015-0.935,3.906
	c-0.975,0.57-2.127,1.093-3.225,1.149c-3.706,0.188-7.425,0.093-11.134,0.237c-1.958,0.075-3.684-0.311-5.306-1.432
	c-0.559-0.386-1.355-0.428-2.062-0.632c-0.396,1.951-0.644,2.157-2.365,2.159c-2.957,0.003-5.916-0.043-8.872,0.022
	C1.376,37.087,0.593,36.692,0.24,35.521z M8.842,33.923c0.002,0.183,0.004,0.365,0.007,0.548c0.488,0.337,1.017,0.985,1.452,0.928
	c0.492-0.064,1.188-0.71,1.279-1.199c0.141-0.755-0.474-1.422-1.3-1.274C9.758,33.018,9.318,33.574,8.842,33.923z"/>
</svg>
