<?xml version="1.0" encoding="utf-8"?>
<!-- Generator: Adobe Illustrator 16.2.0, SVG Export Plug-In . SVG Version: 6.00 Build 0)  -->
<!DOCTYPE svg PUBLIC "-//W3C//DTD SVG 1.0//EN" "http://www.w3.org/TR/2001/REC-SVG-20010904/DTD/svg10.dtd">
<svg version="1.0" id="Layer_1" xmlns="http://www.w3.org/2000/svg" xmlns:xlink="http://www.w3.org/1999/xlink" x="0px" y="0px"
	 width="228px" height="198px" viewBox="15.99 276.208 228 198" enable-background="new 15.99 276.208 228 198"
	 xml:space="preserve">
<g>
	<path fill="#FFFFFF" d="M24.194,451.979c0-55.493,0-110.985,0-166.479c0-1.167,0.073-2.339-0.023-3.498
		c-0.073-0.871,0.155-1.099,1.024-1.026c1.159,0.098,2.332,0.024,3.498,0.024c30.83,0,61.659,0,92.488,0
		c0.976,6.382-2.167,10.375-8.293,10.446c-0.838,0.01-1.656,0.257-2.453,0.208c-10.293-0.628-8.338,1.273-8.321,8.563
		c0.048,20.66,0.024,41.321,0.003,61.982c-0.007,5.844-0.347,6.151-6.039,6.807c-4.682,0.539-5.989,2.045-5.908,6.812
		c0.163,9.631-0.948,19.363,0.268,28.859c1.073,8.381-0.586,16.789,1.292,25.061c0.488,2.149,1.048,3.979,2.795,5.604
		c3.19,2.971,2.277,6.167-2.019,7.165c-3.708,0.862-7.538,1.194-11.301,1.831c-17.063,2.888-34.205,5.277-51.277,8.113
		C28.052,452.763,25.98,453.58,24.194,451.979z"/>
	<path d="M24.194,451.979c3.885-0.699,7.814-1.355,11.624-2.198c4.75-1.052,9.745-0.852,14.305-2.785
		c0.281-0.12,0.672-0.074,0.99-0.007c3.143,0.66,6.049-0.748,9.081-1.054c2.948-0.297,5.829-1.176,8.714-1.759
		c2.757-0.557,5.694-0.687,8.55-1.157c5.192-0.854,10.345-2.053,15.661-2.078c1.24-0.007,1.948-0.94,2.085-2.271
		c0.128-1.255-0.776-1.291-1.493-1.883c-1.358-1.122-3.316-1.757-3.941-3.703c-0.091-0.285-0.565-0.513-0.557-0.756
		c0.182-4.569-1.805-8.982-1.011-13.581c0.321-1.862,1.507-3.628,0.962-5.581c-1.899-6.797-0.732-13.726-0.935-20.588
		c-0.201-6.825-0.059-13.662-0.038-20.493c0.012-3.709,1.303-5.039,4.859-5.094c1.333-0.021,2.711,0.205,3.984-0.072
		c0.939-0.206,1.169,1.779,2.375,0.445c0.803-0.889,0.77-1.741,0.771-2.705c0.007-6.498,0.003-12.997,0.003-19.495
		c0-17.495-0.012-34.991,0.01-52.485c0.004-3.357,0.354-3.697,3.686-3.65c1.095,0.016,2.218-0.407,3.325,0.424
		c1.238,0.93,2.756,0.949,4.006-0.038c0.782-0.618,1.579-0.456,2.336-0.388c3.508,0.313,4.507-0.34,4.609-3.444
		c0.053-1.569-0.171-2.955,2.242-2.657c1.222,0.15,0.633-1.215,0.784-1.927c2.666,0,5.333,0,7.999,0
		c2.541,0.808,5.21,0.634,7.809,1.017c4.746,0.696,6.281,2.482,5.001,7.092c-1.125,4.05-1.463,7.684,0.769,11.508
		c1.125,1.927,0.64,4.246-1.012,6.017c-0.913,0.979-1.869,1.918-2.331,3.205c-0.75,2.093-1.233,4.299,0.125,6.239
		c1.392,1.986,3.563,1.381,5.522,1.035c7.522-1.326,14.968-2.791,22.678-3.268c8.403-0.519,16.621,0.583,24.888,1.124
		c5.948,0.39,11.969,0.358,17.88,1.604c5.097,1.074,6.121,2.513,5.971,7.773c-0.29,10.18,1.607,20.211,2.609,30.297
		c0.427,4.299,0.545,8.631,1.291,12.912c0.519,2.981,1.896,5.199,4.838,5.615c7.553,1.068,10.604,5.723,10.949,12.816
		c0,5.666,0,11.332,0,16.998c-0.732,1-0.732,2,0,3c0,0.666,0,1.332,0,2c-0.627,4.231-0.848,8.457-0.597,12.756
		c0.423,7.243-0.048,14.44-7.506,18.33c-7.236,3.771-14.553,3.444-21.087-1.71c-3.467-2.737-7.067-3.451-11.196-2.583
		c-5.864,1.234-11.792,2.071-17.733,2.813c-4.082,0.509-6.972,2.414-9.07,6.122c-2.607,4.608-5.588,8.969-10.536,11.671
		c-7.185,3.924-14.263,3.222-20.92-0.614c-5.786-3.334-10.546-3.241-15.139,1.736c-1.5,1.625-3.549,2.428-5.754,2.751
		c-19.063,2.793-37.901,7.063-57.159,8.566c-4.76,0.372-9.557,0.302-14.278,1.152c-2.666,0-5.333,0-7.999,0
		c-1.397-0.883-3.079-1.602-2.637-3.738c0.557-2.695,2.731-3.748,5.017-4.291c7.128-1.691,14.303-3.223,21.538-4.342
		c13.166-2.034,26.164-4.98,39.328-7.004c0.823-0.126,1.659-0.226,2.447-0.49c1.065-0.356,3.088-0.586,2.756-1.562
		c-0.587-1.727-2.16-0.319-3.33-0.063c-11.549,2.527-23.258,4.146-34.963,5.655c-11.393,1.469-22.701,3.492-34.101,4.876
		c-3.46,0.421-7.118,1.187-9.055-3.041C24.194,453.978,24.194,452.979,24.194,451.979z"/>
	<path fill="#FFFFFF" d="M236.167,385.987c-0.989,0.078-1.025-0.615-0.992-1.291c0.096-2.021-0.542-3.698-1.954-5.202
		c-1.691-1.802-3.997-3.072-6.079-3.304c-2.708-0.303-5.24-1.571-8.063-1.256c-1.942,0.217-2.059-0.047-1.252-2.049
		c0.395-0.979,0.671-1.937-0.018-2.688c-0.882-0.965-0.86-1.643,0.081-2.463c0.197-0.172,0.364-0.694,0.253-0.854
		c-1.861-2.702-0.755-5.733-0.922-8.6c-0.122-2.091-1.4-3.862-1.131-6.087c0.244-2.016,0.591-4.229-0.898-6.09
		c-0.163-0.203-0.061-0.653-0.016-0.98c0.697-5.094-1.53-9.99-1.03-15.077c0.061-0.603,0.234-1.261-0.272-1.879
		c-1.357-1.653-0.898-3.155,0.168-4.864c0.26-0.418,1.616-1.351,0.618-2.277c-0.912-0.848-1.469-2.09-3.146-2.076
		c-5.206,0.042-10.371-0.834-15.557-1.184c-4.857-0.328-9.836-0.078-14.547-0.99c-3.264-0.631-6.419-0.549-9.622-0.75
		c-0.917-0.059-1.929-0.368-2.767,0.568c-0.603,0.674-1.848,0.432-2.384,1.362c-0.487-1.013-1.68-0.808-2.425-1.396
		c-0.351-0.277-0.926-0.64-1.245-0.526c-3.622,1.28-7.495,1.235-11.128,2.151c-1.553,0.392-3.182,0.351-4.596,0.897
		c-1.37,0.531-2.654,1.11-4.113,0.892c-1.612-0.24-2.635,0.959-3.866,1.539c-1.164,0.551-2.016,0.748-3.104-0.01
		c-1.175-0.816-1.252-2.04-0.936-3.089c1.087-3.596,1.737-7.129,0.188-10.772c-0.115-0.271,0.555-1.1,1.027-1.351
		c1.083-0.574,2.388-0.804,3.505-1.12c1.999-0.564,1.005-1.771,1.213-2.688c0.35-1.535-0.709-1.551-1.779-1.489
		c-0.761,0.044-1.218-0.207-1.21-1.089c0.025-2.831,0.067-5.664-0.021-8.492c-0.031-1.014,0.557-1.506,1.159-2.025
		c1.545-1.332,0.88-3.106,0.786-4.636c-0.072-1.173-2.063-1.641-2.527-1.598c-2.517,0.231-4.59-1.752-7.1-1.181
		c-0.642,0.146-1.364,0.015-1.286-0.976c34.996,0,69.991,0.017,104.987-0.051c1.732-0.003,2.054,0.317,2.051,2.05
		C236.15,317.329,236.167,351.658,236.167,385.987z"/>
	<path fill="#FFFFFF" d="M45.191,468.977c0.015-1.375,1.101-1.082,1.783-0.968c3.138,0.526,6.045-0.742,9.071-1.05
		c2.958-0.301,5.831-1.348,8.687-1.757c2.664-0.382,5.282-1.735,8.029-1.186c1.918,0.386,3.145-1.448,5.098-1.125
		c1.663,0.276,3.606,0.623,5.062-0.915c2.977,0.701,5.686-1.361,8.558-0.929c1.944,0.293,3.217-1.188,5.086-1.174
		c2.681,0.021,5.28-1.363,8.068-0.897c1.888-2.447,5.13,0.308,7.248-1.911c0.555-0.582,2.242-0.159,3.399-0.074
		c2.652,0.193,5.266-0.819,6.12-2.972c1.103-2.772,3.44-3.263,5.42-3.868c1.657-0.507,2.717-0.54,2.384-2.551
		c-0.073-0.437-0.007-1.101,0.271-1.346c0.512-0.45,0.78,0.276,1.007,0.559c4.552,5.652,11.282,7.082,17.677,9.159
		c1.703,0.555,3.122-0.577,4.547-1.074c4.268-1.489,8.87-2.703,10.709-7.658c3.164-2.462,4.142-6.217,5.587-9.663
		c0.402-0.962,0.466-1.551,1.786-1.66c4.089-0.337,8.144-0.852,12.186-1.791c2.732-0.635,5.759-0.119,8.534-1.146
		c2.958-1.096,6.284-0.358,9.189-1.93c0.772-0.417,1.963-0.022,2.956-0.083c0.964-0.059,1.083,0.533,1.604,1.221
		c5.557,7.352,14.069,8.948,22.059,4.686c4.695-2.505,10.065-10.593,7.135-17.154c-0.312-0.695-0.53-1.748-0.226-2.348
		c1.414-2.781,0.802-5.718,0.958-8.598c0.028-0.521,0.354-0.904,0.984-0.79c0,19.831-0.017,39.662,0.039,59.493
		c0.003,1.3-0.238,1.541-1.538,1.537c-24.997-0.052-49.994-0.037-74.991-0.037C121.516,468.977,83.354,468.977,45.191,468.977z"/>
	<path fill="#FFFFFF" d="M24.194,454.978c2.703,1.675,5.683,0.833,8.559,0.941c1.079-1.581,2.737-0.634,4.104-0.958
		c3.538-0.837,7.24-0.568,10.738-1.813c2.062-0.734,4.563,0.519,6.516-1.17c3.633,0.774,7.013-1.585,10.57-0.938
		c2.109,0.383,3.646-1.078,5.594-1.103c1.885-0.024,3.687-0.005,5.657-0.772c2.249-0.876,5.034-0.751,7.529-0.982
		c5.429-0.503,10.637-2.511,16.146-2.204c1.615,0.091,2.028-1.044,2.634-2.271c0.804-1.627,3.842-2.652,4.421-1.527
		c1.424,2.773,4.338,2.611,6.313,4.124c0.612,0.47,1.553,1.039,1.158,1.961c-0.291,0.681-1.124,1.669-1.625,1.619
		c-1.716-0.173-3.101,0.964-4.596,1.016c-4.815,0.165-9.339,1.875-14.142,2.315c-3.914,0.359-8.044,1.038-11.873,2.522
		c-1.906,0.737-4.237-0.403-5.983,1.24c-5.163-0.148-10.102,1.461-15.139,2.19c-3.943,0.572-8.007,1.22-11.893,2.522
		c-2.367,0.794-4.96,1.053-7.476,1.212c-1.222,0.078-2.112,0.57-3.075,1.08c-3.218,1.701-3.297,2.091-1.138,4.992
		c-4,0-8-0.032-11.998,0.026c-0.862,0.013-1.038-0.164-1.025-1.027C24.226,463.645,24.194,459.311,24.194,454.978z"/>
	<path fill="#FFFFFF" d="M236.167,405.983c-1.37-1.006-1.37-1.993,0-3C236.167,403.983,236.167,404.983,236.167,405.983z"/>
	<path fill="#FFFFFF" d="M206.171,332.517c-0.33,5.547,1.812,11.131,1,16.887c1.811,4.074,0.255,8.477,1.128,12.547
		c0.833,3.891,0.749,7.723,0.903,11.601c0.063,1.616-1.328,1.871-1.805,1.36c-1.497-1.608-3.673,1.418-4.835-0.924
		c-1.998,0-3.996,0-5.994,0c-1.999,0-3.997-0.016-5.994,0.005c-2.026,0.021-0.612-0.657-0.534-1.497
		c0.292-3.135,0.108-6.313,0.146-9.473c0.007-0.612-0.255-0.951-0.774-1.016c-0.713-0.087-1.26,0.104-1.249,1.032
		c0.028,2.831,0.016,5.661,0.005,8.492c-0.001,0.472,0.193,1.143-0.393,1.282c-0.271,0.063-0.681-0.511-1.048-0.766
		c-1.365-0.947-1.665-2.264-1.579-3.855c0.154-2.86-0.512-5.857,1.642-8.32c1.218-1.393,1.251-0.57,1.48,0.635
		c0.122,0.643,1.238,0.809,1.596,0.221c1.163-1.916,0.192-5.443-1.703-5.613c-1.504-0.135-2.519-1.199-4.07-1.215
		c-2.345-0.025-3.073-0.791-2.871-2.859c0.646-6.592-1.483-13.008-1.061-19.573c0.113-1.778,1.17-3.139,2.914-3.468
		c0.16-0.03,0.335-0.023,0.499-0.001c4.432,0.63,8.627-1.353,13.079-1.109c2.648,0.146,5.276-1.252,8.077-0.934
		c0.999,0.112,1.499,0.278,1.457,1.386C206.125,329.002,206.171,330.669,206.171,332.517z"/>
	<path fill="#FFFFFF" d="M218.102,398.092c0,2.153,0.521,4.492-0.158,6.404c-0.585,1.646-2.375,2.885-3.438,4.541
		c-2.925,4.553-5.018,9.321-5.335,14.775c-0.21,3.61-1.4,4.693-4.772,5.224c-2.688,0.423-5.313,1.228-8.08,0.945
		c-2.142,2.239-5.524-0.274-7.656,2c-4.542-0.379-8.741,1.488-13.148,1.994c-0.493,0.057-1.035,0.038-1.265-0.479
		c-0.053-0.117,0.345-0.521,0.604-0.677c1.361-0.813,1.414-2.082,1.331-3.455c-0.154-2.55,0.414-5.145-0.946-7.606
		c-0.46-0.833-0.154-1.857,1.414-1.81c5.826,0.176,10.388-2.763,15.043-5.867c6.779-4.521,10.878-11.399,16.006-17.349
		c1.377-1.6,2.752-3.291,4.146-4.924c0.433-0.507,0.918-0.766,1.65-0.856c4.303-0.538,4.662-0.252,4.671,4.144
		c0.002,0.998,0,1.997,0,2.995C218.147,398.092,218.125,398.092,218.102,398.092z"/>
	<path fill="#FFFFFF" d="M140.18,330.994c1.089-0.589,2.225-1.106,3.256-1.783c1.924-1.262,2.938-1.349,5.67-1.257
		c4.493,0.148,8.995,0.021,13.493,0.05c1.718,0.011,1.813,0.155,1.062,1.99c-1.457,3.562-3.529,6.975-4.334,10.67
		c-0.866,3.976-2.01,7.836-3.045,11.748c-0.258,0.975-1.072,1.567-1.109,2.557c-0.047,1.269-0.984,1.317-1.655,0.796
		c-1.955-1.521-4.137-0.507-6.194-0.74c-0.791-0.09-2.017,2.188-1.585,2.961c0.246,0.442,0.247,1.074,0.48,1.281
		c1.606,1.428,0.884,2.398-0.357,3.592c-2.413,2.322-3.891,5.426-5.147,8.353c-1.214,2.829-3.67,2.565-5.511,3.748
		c-0.48,0.308-0.959-0.208-0.998-0.726c-0.074-0.994-0.021-1.998-0.021-2.998c0-7.496,0.01-14.993-0.005-22.49
		c-0.005-2.582,0.046-4.997,1.824-7.287c0.796-1.025,1.701-2.742,1.181-4.465c-0.005-0.233-0.011-0.465-0.017-0.698
		c0.448-1.833,1.223-3.51,2.378-5.006C139.754,331.188,139.967,331.092,140.18,330.994z"/>
	<path fill="#FFFFFF" d="M128.181,379.063c0-2.83-0.077-5.664,0.032-8.489c0.054-1.406-0.533-1.701-1.739-1.599
		c-0.827,0.069-1.667,0.059-2.495-0.004c-0.525-0.039-0.861-0.344-0.81-0.979c0.054-0.662,0.012-1.331,0.012-1.997
		c0-26.972,0-53.944,0-80.916c0-0.833-0.095-1.681,0.035-2.492c0.08-0.501,0.663-0.716,1.166-0.565
		c0.317,0.094,0.785-0.041,0.519,0.852c-1.011,3.388-0.869,3.585,2.743,4.08c1.571,0.215,2.797,1.178,2.41,2.335
		c-0.619,1.851,2.313,2.924,0.55,4.916c-1.096,1.239-0.316,3.171-0.4,4.788c-0.051,0.976-0.802,0.73-1.279,1.049
		c-2.425,1.611-2.382,2.083,0.076,4.273c0.752,0.67,1.345,1.336,1.214,2.512c-0.146,1.314-0.03,2.66-0.035,3.992
		c-0.004,1.113,0.317,2.463-1.579,2.257c-0.069,1.304-1.499,2.005-1.44,3.407c0.064,1.6,0.988,2.216,2.38,2.53
		c0.507,0.115,0.723,0.585,0.643,1.136c-0.081,0.55-0.339,0.861-0.948,0.851c-1.165-0.021-2.332-0.031-3.496,0.001
		c-1.324,0.036-2.221,1.632-1.359,2.628c1.149,1.33,2.223,2.701,4.503,2.448c2.231-0.248,2.282,0.057,2.294,2.396
		c0.016,2.996,0.654,6.182-0.149,8.945c-1.185,4.077-0.396,8.112-0.933,12.105c-0.228,1.694,1.229,2.586,1.111,4.095
		c-0.117,1.489,0.351,3.118-0.094,4.471c-1.577,4.816-0.768,9.729-0.901,14.593c-0.134,4.825-0.035,9.656-0.023,14.484
		c0.002,0.814,0.014,1.641,0.147,2.439c0.076,0.457,1.333,0.764,0.27,1.342c-0.628,0.341-1.159-0.25-1.69-0.684
		c-0.768-0.625-0.744-1.38-0.739-2.213C128.192,385.058,128.181,382.062,128.181,379.063z"/>
	<path fill="#FFFFFF" d="M149.293,454.13c-1.394,0.188-2.191-0.618-2.982-1.508c-1.107-1.247-2.109-2.414-3.968-0.73
		c-0.57,0.518-1.549-0.154-0.454-1.183c0.255-0.239,0.328-1.179,0.172-1.272c-1.692-1.01-2.205-3.665-4.75-3.45
		c-0.563,0.048-1.018-0.162-1.104-0.669c-0.109-0.648-0.059-1.38,0.92-1.33c0.924,0.046,1.267-0.604,0.999-1.22
		c-0.289-0.666-0.897-1.36-1.544-1.665c-1.284-0.603-1.324-0.486-0.713-1.315c0.602-0.817,2.034-1.242,0.91-2.798
		c-0.66-0.916-2.36-0.605-2.269-1.714c0.063-0.767,1.334-1.124,2.256-1.512c0.958-0.402,0.464-1.424-0.277-1.953
		c-1.61-1.149-1.21-1.77,0.487-2.126c-0.364-1.056,1.693-1.72,0.614-2.729c-1.769-1.655-1.554-1.893,0.823-2.096
		c1.386-0.12,1.062-1.821,0.356-2.726c-1.111-1.429,0.536-1.908,0.933-2.057c2.333-0.875,2.45-0.828,1.775-2.241
		c-0.324-0.679-0.549-1.251,0.095-1.683c0.298-0.198,0.906-0.074,1.319,0.064c2.088,0.704,2.085,0.723,2.282-1.414
		c0.03-0.33-0.045-0.674,0.013-0.996c0.229-1.25,0.627-0.451,1.188-0.175c2.034,0.998,2.962,0.507,2.901-1.983
		c-0.022-0.948,0.688-0.594,0.914,0.244c0.544,1.996,1.472,1.135,2.327,0.237c0.674-0.706,1.293-1.59,2.12-0.183
		c0.743,1.267,1.391,0.878,2.129-0.037c0.976-1.209,1.501-1.063,1.412,0.557c-0.036,0.646-0.152,1.389,0.772,1.501
		c0.726,0.089,1.264-0.137,1.245-1.049c-0.005-0.274,0.243-0.556,0.375-0.833c0.202,0.18,0.558,0.342,0.578,0.542
		c0.104,0.948-0.055,1.825,0.776,2.707c0.994,1.056,1.248-0.071,1.817-0.286c-0.523,2.203,2.316,2.572,2.411,4.393
		c0.066,1.267-0.265,2.551,1.684,2.792c0.59,0.072,0.497,1.05-0.034,1.629c-1.083,1.179-1.123,1.816,0.759,2.196
		c1.142,0.231-0.185,0.841-0.192,1.265c-0.023,1.152-2.111,2.381,0.108,3.479c0.816,0.404,0.613,0.876-0.011,1.413
		c-1.009,0.867-2.155,1.766-0.487,3.137c0.216,0.179,0.19,1.136-0.02,1.271c-1.544,0.993-1.41,2.796-2.182,4.1
		c-0.732,1.239-1.95,2.154-1.664,3.816c-1.948,0.456-2.03,2.398-3.009,3.629c-1.04,1.308-2.582,2.404-3.988,3.182
		C154.728,452.673,151.924,453.244,149.293,454.13z"/>
	<path fill="#FFFFFF" d="M235.168,396.179c0,0.579,0.002,0.744,0,0.91c-0.02,1.485,0.479,3.299-0.196,4.368
		c-0.766,1.208-2.745,0.283-4.156,0.549c-1.688,0.318-3.193,1.322-5.071,1.022c-1.568-0.25-3.145-0.117-4.591,0.908
		c-0.677,0.48-1.148-0.304-1.117-1.345c0.104-3.467-0.279-7.001,0.291-10.38c0.293-1.736-2.197-2.51-0.86-3.95
		c1.101-1.186,0.548-2.467,0.7-3.71c0.313-2.566,0.052-4.921-2.395-6.482c-0.221-0.142-0.332-0.456-0.493-0.691
		c0.278-0.13,0.543-0.318,0.835-0.382c3.614-0.788,7.017,0.797,10.517,1.167c3.448,0.363,5.344,3.846,5.348,6.896
		C233.984,388.999,235.901,392.655,235.168,396.179z"/>
	<path fill="#FFFFFF" d="M118.183,433.636c0,5.492-0.057,10.986,0.036,16.477c0.026,1.558-0.619,1.625-1.924,1.99
		c-1.537,0.432-3.032,1.281-4.598,0.82c-1.696-0.5-2.599,1.303-4.096,1.053c-2.629-0.438-4.913,1.709-7.575,1.003
		c-1.804,2.054-4.854-0.049-6.66,2c-2.801-0.549-5.416,0.716-8.046,1.168c-5.833,1.001-11.795,1.472-17.468,3.522
		c-1.986,0.718-4.301,0.944-6.464,1.236c-4.723,0.637-9.262,2.549-14.141,2.071c-2.059,2.13-5.101-0.021-7.298,1.691
		c-0.744,0.58-1.111-0.485-1.343-0.854c-0.676-1.08,0.418-0.739,0.856-0.827c3.382-0.687,6.745-1.604,10.163-1.913
		c2.088-0.188,3.866-1.78,6.069-1.103c2.342,0.722,4.234-1.255,6.58-1.071c2.017,0.155,4.036-0.734,6.038-1.101
		c3.554-0.647,7.074-1.425,10.659-2.006c2.024-0.329,4.213-0.278,6.058-0.948c2.071-0.752,4.219-0.334,6.094-0.962
		c5.51-1.845,11.423-1.776,16.867-3.859c1.435-0.55,3.194,0.521,4.65-0.901c0.702-0.686,3.06,0.566,2.47-1.785
		c-0.261-1.042,2.051-1.743,0.192-2.734c1.123-2.584,0.859-5.318,0.876-8.023c0.005-0.832-0.035-1.666,0.013-2.496
		c0.034-0.576-0.232-1.118-0.696-1.066c-2.25,0.252-3.65-1.813-5.67-1.989c-0.91-0.08-1.476-0.422-2.112-0.985
		c-3.516-3.104-3.532-3.088-3.532-8.034c0-1.665,0.019-3.328-0.007-4.992c-0.015-1.013,0.868-1.699,1.417-1.817
		c0.81-0.175,0.438,0.881,0.602,1.413c0.934,3.015,3.329,4.161,6.161,4.306c1.591,0.082,1.913,0.595,1.854,2.026
		c-0.104,2.491-0.073,4.993,0.011,7.486c0.016,0.472,0.694,0.657,1.197,0.531c0.279-0.069,0.708-0.315,0.729-0.517
		c0.083-0.824,0.035-1.661,0.035-2.493c0-4.993-0.006-9.986,0.016-14.979c0.002-0.285,0.226-0.566,0.346-0.85
		c0.353,0.26,0.709,0.518,1.059,0.779c0.993,0.75,0.556,1.826,0.563,2.756C118.203,422.984,118.183,428.31,118.183,433.636z"/>
	<path fill="#FFFFFF" d="M104.184,328.94c0-12.146,0.01-24.291-0.012-36.438c-0.003-1.521,0.143-1.125,1.466-0.771
		c1.852,0.498,2.604,0.824,2.596,2.92c-0.08,23.625-0.047,47.252-0.055,70.877c-0.001,2.531-0.3,2.733-2.821,2.479
		c-0.773-0.077-1.205-0.28-1.181-1.133c0.032-1.164,0.008-2.33,0.008-3.494C104.184,351.899,104.184,340.42,104.184,328.94z"/>
	<path fill="#FFFFFF" d="M177.668,375.988c-1.36,0-2.025-0.022-2.688,0.005c-1.055,0.043-1.81,0.057-1.917-1.471
		c-0.053-0.752-1.168-1.793-2.005-2.056c-2.165-0.677-2.36-2.422-3.244-4.089c-1.149-2.169-0.327-3.527,0.275-5.343
		c0.362-1.091-0.008-2.364,1.791-2.045c1.009,0.179,1.46-0.632,1.981-1.208c2.862-3.162,4.071-3.768,7.809-3.791
		c0.498-0.003,0.999-0.037,1.493,0.006c1.942,0.167,4.653-0.936,5.647,0.458c1.148,1.608-1.587,2.983-2.354,4.638
		c-1.645,3.549-1.912,6.985-0.148,10.448c0.38,0.747,1.079,1.297,0.012,1.759C181.928,374.335,180.261,377.414,177.668,375.988z"/>
	<path fill="#FFFFFF" d="M218.805,436.98c-4.835,0.483-8.736-1.791-12.188-5.082c-0.909-0.867-0.625-1.661,0.738-1.875
		c1.014-0.159,2.171,0.036,1.785-1.502c-0.302-1.202,1.063-1.562,1.049-2.591c-0.012-1.004,0.36-0.907,1.1-0.387
		c0.898,0.634,0.985,1.658,1.319,2.472c0.712,1.733,1.714,2.913,3.533,3.46c1.473,0.442,2.834,2.175,4.318,1.406
		c1.771-0.917,3.691-1.41,5.381-2.838c3.18-2.691,2.555-6.016,2.179-9.088c-0.297-2.432-2.104-4.416-4.746-5.436
		c-2.979-1.15-5.605-0.646-8.114,1.017c-0.816,0.541-1.412,1.405-2.147,2.081c-0.213,0.195-0.557,0.246-0.841,0.363
		c0-0.332,0.016-0.666-0.002-0.998c-0.102-1.801,0.825-3.394,1.525-4.854c0.869-1.813,3.343-1.694,5.039-1.987
		c1.903-0.33,4.362-1.133,6.021,0.866c0.965,1.164,1.928-2.403,2.303-0.019c0.247,1.574,2.316,0.332,2.172,2.07
		c-0.12,1.447,1.773,0.828,2.477,1.832c0.885,1.267,0.038,2.582,0.626,3.758c3.932,7.856-4.525,18.697-12.846,17.333
		C219.323,436.957,219.153,436.98,218.805,436.98z"/>
	<path fill="#FFFFFF" d="M174.175,339.082c-0.953,3.817,1.125,8.213,1.008,12.774c-0.08,3.133-0.901,4.758-3.845,4.996
		c-2.267,0.183-4.217,1.824-6.573,1.149c-0.308-0.088-0.835-0.151-0.968,0.011c-0.841,1.034-2.313,1.508-3.013,0.869
		c-0.813-0.738,0.928-2.035,0.393-3.259c1.975-1.445,0.435-3.712,1.282-5.468c0.732-1.517,1.153-3.184,1.718-4.782
		c1.792-5.087,3.503-10.206,5.474-15.224c0.276-0.703,0.208-2.955,1.87-2.03c0.938,0.522,2.961,0.418,2.715,2.672
		C173.968,333.26,174.175,335.782,174.175,339.082z"/>
	<path fill="#FFFFFF" d="M177.477,415.958c-2.469,0.223-4.693,0.021-4.301-3.464c-2.596-1.597-2.884-5.468-6.271-6.334
		c-0.478-0.122-1.252-0.886,0.048-1.159c1.22-0.257,2.102-1.171,3.577-1.119c2.518,0.09,5.197,0.813,7.601-0.847
		c0.37-0.255,1.186-0.093,1.855,0.203c3.266,1.437,6.749,1.085,9.988,0.253c1.471-0.377,2.854-0.272,4.26-0.484
		c0.253-0.038,0.554,0.237,0.832,0.368c-0.164,0.235-0.296,0.501-0.496,0.701c-3.285,3.299-6.493,6.684-9.906,9.847
		C182.727,415.718,180.17,416.147,177.477,415.958z"/>
	<path fill="#FFFFFF" d="M175.175,319.995c-4.357,3.313-7.073,7.027-8.924,13.678c-1.37,4.924-3.503,9.598-4.661,14.534
		c-0.855,3.644-2.053,7.207-2.526,10.985c-0.442,3.533-1.36,7.095-2.355,10.498c-0.613,2.097,0.548,4.655-1.53,6.33
		c0.763,2.984-0.894,5.666-1.108,8.563c-0.337,4.568-1.964,8.994-1.923,13.657c0.007,0.749-1.139,1.083-1.015,2.087
		c0.055,0.453-0.516,0.73-1.08,0.665c-0.565-0.067-0.76-0.359-0.894-0.917c-0.717-2.995,1.328-5.645,1.019-8.576
		c-0.157-1.48,1.479-2.408,1.074-4.096c-0.324-1.346-0.399-2.945,0.927-4.063c-0.715-3.139,0.871-6.009,1.106-9.063
		c0.338-4.379,0.977-8.836,2.298-13.002c0.935-2.949,0.659-6.262,2.595-8.896c0.501-5.495,3.087-10.366,4.641-15.547
		c1.199-3.997,2.736-7.894,4.72-11.508c1.045-1.905,0.246-2.938-0.361-4.329c0.894,0.17,4.271-0.202,5.191-0.727
		C173.3,319.738,174.249,320.149,175.175,319.995z"/>
	<path fill="#FFFFFF" d="M207.171,384.94c0.443,2.709-1.114,5.007-2.534,6.836c-1.664,2.144-3.384,4.307-5.13,6.416
		c-1.154,1.394-2.445,1.981-4.265,1.83c-1.738-0.146-3.48-0.222-5.122,0.889c-0.587,0.396-2.018,0.495-1.968-1.217
		c0.078-2.658,0.211-5.34-0.058-7.975c-0.14-1.369,0.993-1.919,1.179-3.07c0.201-1.239,1.649-0.5,2.54-0.656
		c2.671-0.473,5.275-1.184,8.069-1.08c2.457,0.091,3.855-2.051,5.464-3.596c0.452-0.435,1.063-1.256,1.384-1.161
		c0.751,0.22,0.368,1.118,0.435,1.739C207.2,384.226,207.171,384.562,207.171,384.94z"/>
	<path fill="#FFFFFF" d="M177.175,345.284c0-2.822,0.203-5.663-0.065-8.459c-0.209-2.186-1.133-4.256-0.983-6.566
		c0.183-2.822,0.023-2.826-2.951-3.273c-0.294-0.043-0.568-0.225-0.853-0.342c0.137-0.234,0.234-0.504,0.415-0.699
		c1.688-1.809,3.605-2.991,6.245-2.979c6.688,0.033,13.282,1.758,20.002,1.031c0.494-0.053,1.124,0.094,1.06,0.563
		c-0.074,0.536-0.783,0.491-1.258,0.428c-4.09-0.555-7.924,1.377-12.044,1.16c-1.718-0.09-3.617,0.816-5.551,0.912
		c-1.711,0.086-3.815,3.148-2.913,4.277c1.252,1.564,0.77,3.096,0.871,4.651c0.108,1.653,0.092,3.321,0.006,4.977
		c-0.086,1.688,0.602,3.337,0.508,4.899c-0.094,1.545,0.953,2.777,0.563,4.33c-0.272,1.094-0.101,2.313-0.039,3.472
		c0.061,1.116-0.458,1.377-1.473,1.351c-0.922-0.022-1.576-0.072-1.556-1.267C177.208,350.928,177.175,348.106,177.175,345.284z"/>
	<path fill="#FFFFFF" d="M213.058,338.212c0.292,4.404,1.672,9.018,1.112,13.768c1.705,2.697,1.127,5.729,0.915,8.564
		c-0.322,4.29,1.349,8.299,1.187,12.574c-0.117,3.085-1.807,5.912-1.168,9.08c0.082,0.402-0.732,0.986-1.131,1.486
		c-0.378,0.479-0.925,0.387-1.341,0.227c-0.532-0.205-0.595-0.834-0.44-1.273c0.64-1.813,1.081-3.613,1.013-5.586
		c-0.122-3.49,0.017-6.988-0.045-10.479c-0.116-6.527-1.494-12.979-1.129-19.56c0.056-1-0.234-2.021,0.013-3.185
		c0.179-0.841-1.079-1.788-0.911-3.058c0.173-1.309,0.039-2.657,0.039-3.988c0-1.165,0.151-2.354-0.03-3.489
		c-0.433-2.683-1.327-5.293-0.987-8.078c0.09-0.728,0.184-1.263,1.087-1.227c0.599,0.023,0.998,0.329,0.91,0.866
		C211.429,329.295,213.788,333.491,213.058,338.212z"/>
	<path fill="#FFFFFF" d="M129.181,433.923c0.196-2.499-0.514-5.445,0.945-8.218c0.319-0.609,0.248-1.868-0.182-2.333
		c-0.796-0.862-0.466-1.191,0.146-1.845c0.761-0.813,1.165,0.323,1.404,0.227c0.668-0.272,2.038-0.563,1.179-1.694
		c-0.842-1.108-0.508-2.235-0.435-3.297c0.092-1.302,0.685-0.402,1.166-0.08c0.778,0.521,1.558,0.61,1.755-0.586
		c0.105-0.647,0.042-1.328,0.013-1.992c-0.037-0.842,0.532-1.432,1.141-1.07c1.616,0.957,2.364,0.63,2.915-1.152
		c0.33-1.066,0.898-2.689,2.5-0.947c0.471-0.471,1.009-0.892,1.388-1.427c0.289-0.409-0.182-1.62,0.694-1.28
		c1.076,0.416,1.733,1.564,1.341,2.848c-0.251,0.818-0.849,2.111-1.754,1.501c-1.935-1.304-2.306-0.58-2.202,1.243
		c0.046,0.807-0.527,1.146-0.966,1.597c-0.183,0.188-0.449,0.37-0.699,0.407c-2.325,0.338-2.37,0.346-1.569,2.406
		c0.27,0.691,0.38,1.297-0.261,1.677c-0.352,0.206-0.97,0.265-1.327-0.235c-0.428-0.597-1.072-0.977-1.687-0.639
		c-0.883,0.484-0.738,1.671-0.433,2.214c0.567,1.01,1.146,1.912,0.926,3.117c-0.085,0.462-0.038,1.208-0.292,1.332
		c-0.753,0.369-0.865-0.647-1.384-0.89c-0.367-0.171-0.517-0.985-1.023-0.55c-0.278,0.24-0.232,0.881-0.296,1.347
		c-0.198,1.45,1.277,1.789,1.81,2.743c0.188,0.337,0.136,0.944-0.04,1.318c-0.253,0.539-1.009,0.473-1.288,0.235
		c-0.639-0.546-0.931-0.982-1.841-0.158c-1.173,1.06,0.354,1.267,0.321,1.841c-0.081,1.448,1.291,1.804,1.834,2.751
		c0.193,0.336,0.2,1.022-0.02,1.304c-0.553,0.708-0.697-0.227-1.014-0.414c-0.655-0.389-1.284-0.416-1.679,0.224
		c-0.219,0.354-0.235,0.923,0.2,1.335c0.724,0.685,1.415,1.404,2.12,2.108c0.32,0.32,0.533,0.49,0.163,1.083
		c-1.148,1.839-1.04,2.638,0.746,3.733c0.919,0.563,2.337,0.437,0.715,1.875c-0.219,0.194,0.02,0.849,0.315,1.321
		c0.411,0.655,2.208,1.023,1.06,1.987c-0.896,0.751-1.591-0.755-2.328-1.333c-3.183-2.496-4.25-5.873-4.088-9.774
		C129.222,436.622,129.181,435.457,129.181,433.923z"/>
	<path fill="#FFFFFF" d="M174.175,425.397c0,1.609-0.191,2.654,0.039,3.598c0.536,2.198-0.873,3.337-2.154,4.635
		c-0.438,0.446-0.938,0.442-1.352,0.314c-0.501-0.155-0.546-0.719-0.54-1.233c0.019-1.498,0.073-2.999-0.005-4.493
		c-0.304-5.791-1.624-11.242-5.835-15.54c-1.736-1.771-1.194-4.536-3.081-6.271c-0.546-0.503,0.634-0.411,0.925-0.392
		c3.81,0.256,6.063,2.994,7.905,5.74c1.685,2.514,2.559,5.572,3.764,8.4C174.653,422.06,173.824,424.071,174.175,425.397z"/>
	<path fill="#FFFFFF" d="M177.175,396.453c0,0.839,0.015,1.336-0.003,1.833c-0.055,1.552-0.842,2.354-2.017,1.618
		c-1.519-0.953-3.091-1.185-4.585-0.837c-1.696,0.393-2.604-1.406-4.069-1.061c-2.826,0.668-5.23-1.357-8.042-1.119
		c-1.153,0.098-2.952-0.566-1.329-2.582c0.324-0.402,0.093-1.291,0.037-1.949c-0.092-1.075,0.409-1.629,1.41-1.346
		c2.755,0.779,5.703,0.586,8.357,1.432c1.308,0.418,2.502,0.344,3.736,0.527c1.39,0.209,3.001-0.535,4.053,1.018
		C177.139,393.53,177.494,394.869,177.175,396.453z"/>
	<path fill="#FFFFFF" d="M135.18,381.487c0.021-2.465,0.036-2.649,2.288-2.459c3.86,0.328,7.654,1.412,11.585,0.975
		c0.284-0.031,0.809,0.098,0.855,0.258c0.511,1.76,0.418,3.584,0.067,5.325c-0.11,0.545-0.834,1.517-1.839,1.392
		c-3.636-0.453-7.277-0.883-10.894-1.463c-1.577-0.253-2.491-1.248-2.075-3.029C135.244,382.168,135.18,381.819,135.18,381.487z"/>
	<path fill="#FFFFFF" d="M157.063,375.776c0.287-2.49,1.481-4.854,1.264-7.437c1.237-0.356,0.308-2.522,2.389-2.584
		c0.785-0.022,2.617-1.409,2.467-3.259c-0.052-0.645-0.15-1.432,0.77-1.482c0.962-0.053,2.035-0.141,2.875,0.221
		c0.788,0.339-0.268,0.623-0.384,0.983c-0.745,2.313-1.253,4.632-0.257,7.001c0.119,0.282,0.438,0.504,0.49,0.786
		c0.284,1.55,1.54,2.375,2.415,3.492c0.124,0.158-0.664,0.606-1.145,0.478c-1.553-0.414-2.69,0.768-4.062,0.983
		c-0.969,0.151-1.999,0.144-2.97,0c-1.197-0.177-1.857,0.517-2.448,1.282c-0.36,0.468-0.488,1.113-0.72,1.679
		C156.723,377.44,157.431,376.495,157.063,375.776z"/>
	<path fill="#FFFFFF" d="M186.759,385.829c-5.07,0.994-9.745-1.563-14.653-0.863c-0.253,0.036-0.796-0.268-0.786-0.371
		c0.057-0.554,0.502-0.615,0.992-0.613c3.146,0.012,6.323-0.258,9.431,0.092c2.387,0.269,4.235-1.57,6.556-1.106
		c0.542,0.109,0.787-0.313,0.889-0.881c0.464-2.567,2.793-2.659,4.158-1.951c1.762,0.913,3.45,1.039,5.115,0.773
		c1.933-0.308,3.203,1.536,5.074,1.125c0.345-0.076,0.84,0.493,0.18,0.894c-1.186,0.721-2.452,2.023-3.609,1.946
		C195.521,384.567,191.199,386.979,186.759,385.829z"/>
	<path fill="#FFFFFF" d="M218.67,429.982c-2.465-0.048-3.586-1.041-4.539-3.404c-0.722-1.791-0.591-3.324-0.068-5.176
		c0.564-1.999,2.13-2.867,3.356-4.05c1.298-1.25,5.479,0.227,6.729,2.11c1.337,2.018,1.229,4.334,0.944,6.519
		c-0.216,1.655-1.967,2.52-3.119,3.63C221.085,430.466,219.778,429.834,218.67,429.982z"/>
	<path fill="#FFFFFF" d="M175.801,391.901c-2.659-2.269-6.428,0.123-9.514-1.809c-1.076-0.674-2.935-0.031-4.425-0.136
		c-0.875-0.062-2.021,0.595-2.582-0.56c-0.34-0.7,2.148-4.31,2.959-4.396c0.658-0.07,1.55-0.29,1.957,0.034
		c1.582,1.259,3.415,1.147,5.105,0.878c1.784-0.284,2.946,1.214,4.591,1.09c1.159-0.087,2.333-0.076,3.493,0.001
		c0.937,0.063,2.209-0.53,2.733,0.511c0.668,1.325-0.855,1.764-1.513,2.521C177.889,390.868,178.203,393.115,175.801,391.901z"/>
	<path fill="#FFFFFF" d="M115.183,347.958c0,5.82,0,11.641,0,17.461c0,0.666,0.104,1.354-0.033,1.989
		c-0.108,0.503-0.667,0.69-1.177,0.563c-0.286-0.07-0.7-0.277-0.753-0.498c-0.116-0.47-0.036-0.988-0.036-1.488
		c0-11.973,0-23.947,0-35.92c0-0.5-0.106-1.029,0.029-1.488c0.148-0.505,0.672-0.692,1.182-0.564c0.286,0.07,0.723,0.29,0.752,0.493
		c0.098,0.65,0.036,1.325,0.036,1.99C115.183,336.315,115.183,342.137,115.183,347.958z"/>
	<path fill="#FFFFFF" d="M95.186,383.492c0-3.649,0.002-7.298-0.002-10.947c-0.001-0.64-0.147-1.351,0.729-1.55
		c0.766-0.174,1.185,0.384,1.632,0.855c0.331,0.347,0.659,0.637,0.657,1.228c-0.027,7.298-0.026,14.596-0.008,21.894
		c0.002,0.963-0.588,1.038-1.277,1.008c-0.752-0.033-1.737,0.295-1.734-1.041C95.191,391.121,95.186,387.308,95.186,383.492z"/>
	<path fill="#FFFFFF" d="M175.13,381.987c-3.687,0.781-7.526-1.557-11.636-1.03c-1.556,0.199-2.052-1.453-3.029-2.249
		c-0.254-0.206-0.332-0.967-0.157-1.294c0.421-0.787,0.729,0.003,1.013,0.233c0.893,0.72,1.913,0.302,2.856,0.313
		c4.323,0.058,8.647-0.005,12.971,0.048c0.946,0.012,2.13-0.519,2.799,0.352c0.423,0.548,0.084,1.646,0.46,2.272
		c0.454,0.757,1.214,1.292-0.361,1.341C178.55,382.024,177.053,381.987,175.13,381.987z"/>
	<path fill="#FFFFFF" d="M125.182,398.262c0,7.994,0.002,15.988-0.004,23.982c0,0.614,0.21,1.541-0.542,1.606
		c-0.426,0.037-1.409-0.988-1.319-1.296c0.316-1.085-1.396-1.479-0.744-2.42c0.646-0.93-0.127-1.881,0.514-2.979
		c1.985-3.403,1.037-7.229,0.849-10.918c-1.659-0.947,0.54-1.414,0.293-2.285c-0.219-0.771-0.046-1.652-0.046-2.485
		c0-9.159,0-18.319,0-27.479c0-0.5,0.065-1.012-0.018-1.496c-0.087-0.514,0.049-0.729,0.504-0.479c0.24,0.13,0.478,0.499,0.49,0.771
		c0.054,1.164,0.022,2.33,0.022,3.496C125.182,383.604,125.182,390.935,125.182,398.262z"/>
	<path fill="#FFFFFF" d="M197.681,375.988c1.826,0,3.651-0.021,5.478,0.007c1.269,0.018,2.363,0.156,3.638,0.871
		c2.259,1.269,2.392,0.937,1.405,3.046c-0.258,0.55-0.005,0.854-1.037,0.676c-3.908-0.679-7.76-1.854-11.81-1.633
		c-1.229,0.067-2.446,0.261-3.691-0.776c-0.727-0.604-2.377-0.854-2.166-1.836c0.181-0.84,1.759-0.292,2.709-0.332
		C194.027,375.933,195.855,375.988,197.681,375.988z"/>
	<path fill="#FFFFFF" d="M128.181,433.447c0,4.32-0.013,8.641,0.01,12.961c0.005,0.896-0.012,1.703-1.225,1.562
		c-0.933-0.108-0.789-0.844-0.788-1.494c0.005-6.813,0.003-13.626,0.003-20.438c0-1.994,0.021-3.988-0.01-5.981
		c-0.015-0.899,0.485-1.144,1.223-1.058c0.521,0.062,0.822,0.358,0.802,0.989c-0.048,1.495-0.016,2.99-0.016,4.486
		C128.181,427.464,128.181,430.456,128.181,433.447z"/>
	<path fill="#FFFFFF" d="M184.938,318.995c2.327,0,4.729-0.374,6.965,0.072c5.828,1.166,11.689,1,17.545,0.848
		c1.338-0.035,1.848,1.345,3.083,1.111c0.139-0.026,0.356,0.371,0.537,0.572c-0.276,0.131-0.567,0.401-0.83,0.377
		c-4.343-0.422-8.822,1.043-13.061-0.955c-0.408-0.191-0.987-0.054-1.483-0.021c-7.212,0.478-14.295-1.769-21.523-1.035
		c-0.282,0.028-1.162,0.515-0.938-0.455c0.059-0.252,0.8-0.485,1.232-0.491C179.287,318.974,182.112,318.995,184.938,318.995z"/>
	<path fill="#FFFFFF" d="M114.183,407.644c0,1.047-0.013,1.715,0.003,2.381c0.023,0.982-0.675,1.031-1.333,0.945
		c-2.479-0.324-4.56-2.084-7.169-2.043c-0.16,0.002-0.436-0.795-0.477-1.238c-0.078-0.824-0.034-1.662-0.021-2.496
		c0.04-2.502,0.494-2.952,2.851-1.688c1.153,0.62,2.789-0.267,3.472,1.303C113.797,404.718,114.802,405.696,114.183,407.644z"/>
	<path fill="#FFFFFF" d="M179.175,395.985c0-0.666,0.028-1.334-0.007-1.998c-0.052-0.99,0.781-1.249,1.264-0.947
		c0.989,0.619,1.918,0.938,3.115,0.991c3.419,0.151,4.903,2.601,3.403,5.606c-0.396,0.795-1.168,1.646-2.404,1.354
		c-1.521-0.359-2.864-1.432-4.589-1.042c-0.462,0.104-0.832-0.331-0.797-0.966C179.215,397.985,179.175,396.983,179.175,395.985z"/>
	<path fill="#FFFFFF" d="M136.205,391.979c1.635,1.441,3.766,0.53,5.483,1.113c1.864,0.635,3.654,0.93,5.565,0.896
		c0.964-0.017,1.024,0.704,0.905,1.342c-0.313,1.683-1.428,3.181-1.029,5.048c0.084,0.396-0.572,0.673-1.115,0.61
		c-0.621-0.072-1.292,0.177-1.798-0.456c-2.321-2.904-4.229-4.342-6.766-5.901c-0.694-0.426-1.604-0.342-2.057-0.991
		c-0.212-0.305-0.13-0.896-0.013-1.309C135.434,392.153,135.911,392.097,136.205,391.979z"/>
	<path fill="#FFFFFF" d="M166.997,323.269c0.059,1.599-2.017,4.063-3.479,3.653c-5.131-1.44-10.335-0.744-15.507-0.946
		c-0.272-0.011-0.534-0.293-0.801-0.449c0.235-0.176,0.509-0.541,0.702-0.504c3.454,0.687,6.581-1.276,10.03-1.146
		c2.411,0.091,4.92-0.752,7.275-1.519C166.489,321.946,166.314,323.218,166.997,323.269z"/>
	<path fill="#FFFFFF" d="M114.187,443.689c-0.003,2.23-0.756,0.548-1.526,0.355c-2.106-0.523-3.643-1.751-5.151-3.188
		c-0.903-0.86-1.953-1.938-3.411-1.254c-1.189,0.561-1.359-0.601-1.702-1.026c-0.467-0.579-0.435-1.569,0.005-2.272
		c0.418-0.668,1.35-0.494,1.809-0.277c3.048,1.433,6.048,2.972,9.034,4.531C114.531,441.231,114.132,442.524,114.187,443.689z"/>
	<path fill="#FFFFFF" d="M130.58,393.086c0.87,0.07,2.873,2.911,2.347,3.563c-1.155,1.433-0.603,2.365,0.047,3.854
		c0.556,1.271,0.417,2.648,2.187,3.009c0.405,0.083,0.702,0.671,1.063,1.013c0.589,0.56,1.382,1.164,0.833,2.027
		c-0.617,0.969-1.501,1.821-2.854,1.422c-1.625-0.479-2.428-2.595-4.62-2.166c-0.582,0.114-0.043-0.746,0.247-0.938
		c1.264-0.845,1.501-2.019,1.364-3.427c-0.242-2.523,0.632-5.188-0.983-7.547C130.123,393.769,130.447,393.362,130.58,393.086z"/>
	<path fill="#FFFFFF" d="M117.183,347.479c0-6.486-0.004-12.973,0.014-19.459c0.001-0.287,0.168-0.793,0.326-0.82
		c0.623-0.113,0.664,0.361,0.664,0.848c-0.005,10.145-0.004,20.289-0.004,30.434c0,3.16,0.009,6.32-0.015,9.48
		c-0.002,0.287-0.167,0.792-0.325,0.821c-0.623,0.112-0.665-0.362-0.664-0.847C117.185,361.117,117.183,354.298,117.183,347.479z"/>
	<path fill="#FFFFFF" d="M149.954,362.99c1.03,0,1.692-0.042,2.346,0.02c0.281,0.027,0.541,0.269,0.811,0.413
		c-0.188,0.232-0.336,0.518-0.568,0.689c-1.266,0.936-2.319,2.097-3.637,3.027c-2.272,1.607-4.744,3.379-5.761,6.325
		c-0.229,0.667-1.013,0.707-1.64,0.335c-0.533-0.314-0.472-0.986-0.272-1.313c1.21-1.979,2.502-3.91,3.803-5.834
		c0.271-0.401,0.946-0.674,0.993-1.06C146.362,362.836,148.276,362.828,149.954,362.99z"/>
	<path fill="#FFFFFF" d="M121.182,414.983c0,11.724,0.012,23.447-0.008,35.172c-0.005,3.021-0.05,3.021-2.992,3.822
		c1.991-2.644,1.997-2.644,1.999-6.091c0.003-10.215-0.015-20.43,0.032-30.645C120.217,416.446,119.527,415.151,121.182,414.983z"/>
	<path fill="#FFFFFF" d="M154.178,393.044c0.294-1.79,0.682-4.357,1.381-6.67c0.493-1.63,0.371-3.132,0.604-4.676
		c0.093-0.617-0.171-1.521,0.586-1.65c0.72-0.123,1.551-0.32,2.329,0.293c1.047,0.826,1.595,2.063,1.023,2.984
		c-1.228,1.98-1.015,4.597-2.964,6.227c-1.572,1.313-2.046,3.118-1.986,5.123c0.014,0.424-0.292,0.858-0.451,1.288
		c-0.458-0.286-0.562-0.719-0.527-1.222C154.195,394.411,154.178,394.08,154.178,393.044z"/>
	<path fill="#FFFFFF" d="M114.16,416.985c0.184,1.992-0.167,1.442-1.608,1.166c-3.385-0.651-6.035-3.282-9.61-3.198
		c-0.892,0.021-0.834-0.849-0.742-1.481c0.111-0.777-0.405-1.662,0.353-2.308c0.071-0.062,0.43,0.296,0.68,0.356
		c3.433,0.822,6.387,3.037,9.948,3.449C114.917,415.171,113.764,416.524,114.16,416.985z"/>
	<path fill="#FFFFFF" d="M97.185,425.011c0-4.322,0.032-8.645-0.021-12.965c-0.015-1.086,0.46-2.289-0.622-3.232
		c-0.777-0.68,0.13-0.715,0.454-0.809c0.508-0.146,1.054,0.074,1.157,0.579c0.133,0.638,0.032,1.323,0.032,1.987
		c0,4.488-0.106,8.979,0.046,13.463c0.075,2.197-0.789,4.533,0.903,6.609c0.592,0.728-0.933,1.337-0.9,2.036
		c0.113,2.428-0.736,4.99,0.489,7.252c0.686,1.267-0.513,1.242-0.835,1.763c-0.149,0.239-0.953,0.328-1.279,0.15
		c-0.79-0.427,0.035-0.706,0.236-1.016c0.689-1.064,0.304-2.238,0.318-3.353C97.218,433.323,97.185,429.167,97.185,425.011z"/>
	<path fill="#FFFFFF" d="M154.603,404.951c3.762,0.313,5.167,1.628,6.551,4.916c0.094,0.221-0.098,0.616-0.254,0.87
		c-0.171,0.279-0.36,0.022-0.707-0.2c-4.89-3.162-10.342-3.849-16.01-3.568c-0.278,0.015-0.798-0.192-0.813-0.337
		c-0.063-0.605,0.403-0.654,0.89-0.65c1.998,0.012,4.157,0.476,5.948-0.135C151.83,405.292,153.625,406.282,154.603,404.951z"/>
	<path fill="#FFFFFF" d="M101.185,423.89c0,4.473,0.005,8.943-0.006,13.416c-0.001,0.587,0.242,1.455-0.575,1.534
		c-0.468,0.045-0.418-0.766-0.418-1.248c-0.001-8.943-0.002-17.887,0.001-26.831c0-0.634-0.188-1.642,0.507-1.705
		c1.145-0.103,0.439,0.975,0.446,1.42C101.213,414.944,101.185,419.418,101.185,423.89z"/>
	<path fill="#FFFFFF" d="M187.174,390.343c0,0.499-0.008,0.998,0.001,1.496c0.021,1.205-1.005,1.561-1.537,0.987
		c-1.136-1.229-2.435-0.773-3.683-0.817c-1.079-0.037-1.792-0.006-1.857-1.523c-0.063-1.444,0.821-2.063,1.689-2.422
		c0.851-0.354,1.963-0.084,2.961-0.076C187.158,388.007,187.158,388.01,187.174,390.343z"/>
	<path fill="#FFFFFF" d="M224.117,404.983c1.028,0.209,2.179-0.448,3.181,0.586c1.544,1.596,3.164,3.109,3.848,5.305
		c0.075,0.242-0.1,0.609-0.252,0.861c-0.172,0.283-0.389,0.125-0.691-0.199c-2.063-2.207-4.834-3.264-7.497-4.458
		c-0.69-0.31-1.691-0.063-1.526-1.271c0.175-1.271,1.214-0.707,1.921-0.815C223.421,404.944,223.755,404.983,224.117,404.983z"/>
	<path fill="#FFFFFF" d="M95.186,402.718c0-0.652-0.048-1.312,0.023-1.958c0.029-0.272,0.269-0.696,0.482-0.745
		c1.321-0.307,2.082,1.355,3.506,1c0.916-0.229,0.961,0.555,0.992,1.229c0.023,0.469-0.077,1.128,0.187,1.371
		c1.613,1.492-0.282,1.799-0.868,2.309c-0.371,0.324-1.254,0.055-1.907,0.063c-2.377,0.026-2.378,0.029-2.415-2.288
		C95.181,403.371,95.186,403.044,95.186,402.718z"/>
	<path fill="#FFFFFF" d="M188.174,378.492c-0.085,0.938,0.293,1.955-0.686,2.716c-0.521,0.405-0.938,0.975-1.671,0.762
		c-0.503-0.146-0.749-0.583-0.642-1.129c0.373-1.882-1.364-2.447-2.221-3.558c-0.495-0.642-0.235-1.972,0.544-2.089
		c1.12-0.17,2.271-0.125,3.404-0.213c1.169-0.09,1.356,0.561,1.278,1.521C188.131,377.162,188.174,377.829,188.174,378.492z"/>
	<path fill="#FFFFFF" d="M234.182,407.69c0.723,1.787-1.169,3.555-1.042,5.666c0.01,0.158-0.371,0.359-0.599,0.492
		c-0.038,0.021-0.338-0.231-0.326-0.332c0.43-3.199-1.05-5.847-2.523-8.453c-0.476-0.84-0.462-1.058,0.479-1.08
		c0.167-0.004,0.333-0.002,0.5,0C235.018,404.041,234.038,403.479,234.182,407.69z"/>
	<path fill="#FFFFFF" d="M93.186,384.237c-0.604,3.014,0.959,6.896-0.654,10.595c-0.744-3.739-0.015-7.534-0.388-11.272
		c-0.368-3.673,1.206-7.498-0.846-11.066c-0.093-0.162,0.73-1.082,1.271-1.311c0.483-0.203,0.622,0.405,0.621,0.892
		C93.181,375.88,93.186,379.688,93.186,384.237z"/>
	<path fill="#FFFFFF" d="M145.63,391.985c-1.581,0.767-2.526-1.145-4.035-1.024c-1.49,0.118-2.998,0.054-4.495,0.017
		c-0.953-0.024-1.27-0.963-1.866-1.488c-0.169-0.148-0.126-0.659-0.023-0.949c0.063-0.18,0.464-0.405,0.64-0.354
		c3.513,1.02,7.09,1.647,10.745,1.787c0.882,0.032,1.71-0.005,1.575,1.221c-0.104,0.94-0.839,0.813-1.491,0.795
		C146.346,391.978,146.013,391.985,145.63,391.985z"/>
	<path fill="#FFFFFF" d="M137.18,336.993c-0.621-0.113-0.969,0.27-0.977,0.775c-0.019,1.143-1.35,2.18-1.531,2.043
		c-1.174-0.884,0.352-1.58,0.387-2.293c0.181-3.675,2.814-6.125,4.33-9.097c0.849-1.666,2.821-2.442,4.85-2.41
		c0.278,0.005,0.553,0.241,0.828,0.37c-0.169,0.205-0.372,0.605-0.502,0.583c-1.244-0.212-1.813,1.068-2.979,1.269
		c-0.986,0.168-1.749,1.414-1.405,2.762C138.903,332.854,138.446,335.126,137.18,336.993z"/>
	<path fill="#FFFFFF" d="M144.659,323.995c-0.661,0-1.331-0.063-1.981,0.02c-0.508,0.065-0.72-0.051-0.476-0.503
		c0.13-0.239,0.49-0.481,0.759-0.495c1.735-0.082,3.56,0.326,5.039-1.021c3.281,0.75,6.264-1.624,9.496-0.965
		c2.052,0.418,3.52-1.608,5.55-1.06c0.443,0.12,0.926,0.081,0.99,0.631c0.012,0.1-0.497,0.318-0.788,0.385
		c-2.151,0.484-4.275,1.589-6.513,0.962c-1.815-0.509-2.841,1.272-4.563,1.124c-1.503-0.129-3.179-0.635-4.618,0.845
		C147.071,324.412,145.65,323.995,144.659,323.995z"/>
	<path fill="#FFFFFF" d="M136.18,398.744c0-0.661-0.06-1.329,0.014-1.981c0.104-0.921,0.917-0.975,1.465-0.729
		c0.563,0.252,0.924,0.925,1.429,1.346c1.126,0.939,3.323,0.859,3.053,3.09c-0.065,0.551-0.745,0.551-4.394,0.614
		c-0.6,0.01-1.503,1.938-1.564-0.358C136.166,400.065,136.18,399.403,136.18,398.744z"/>
	<path fill="#FFFFFF" d="M172.165,402.26c-0.223,0.206-0.076,1.062-0.864,0.382c-1.098-0.949-2.083-0.471-3.411-0.043
		c-2.386,0.771-5.128,1.219-7.02-1.416c-0.271-0.379-0.9-0.593-0.653-1.181c0.049-0.118,0.625,0.024,0.948-0.022
		c3.572-0.524,6.879,1.623,10.474,1.054C172.031,400.972,172.241,401.698,172.165,402.26z"/>
	<path fill="#FFFFFF" d="M107.276,383.765c-0.71,3.467,0.886,7.356-0.755,11.059c-0.723-3.754-0.292-7.547-0.3-11.318
		c-0.007-3.773-0.392-7.566,0.288-11.324c0.005-0.029,0.321-0.041,0.324-0.025C107.616,375.903,106.916,379.701,107.276,383.765z"/>
	<path fill="#FFFFFF" d="M113.184,297.536c0.002-2.6,0.002-2.6,2.168-2.538c1.015,0.028,2.815,1.907,2.831,2.952
		c0.018,1.128-1.407,1.888-3.241,2.081C112.663,300.271,113.247,298.728,113.184,297.536z"/>
	<path fill="#FFFFFF" d="M113.183,315.019c0-1.154-0.032-2.31,0.014-3.461c0.021-0.524-0.336-1.475,0.626-1.34
		c0.507,0.071,1.279,0.86,1.3,1.352c0.122,2.964,0.073,5.935,0.027,8.902c-0.003,0.178-0.45,0.437-0.729,0.504
		c-0.498,0.123-1.171-0.053-1.197-0.518C113.124,318.649,113.183,316.833,113.183,315.019z"/>
	<path fill="#FFFFFF" d="M129.419,406.987c1.888-0.313,2.47,1.395,3.513,2.32c0.429,0.379-0.327,0.729-0.605,1.004
		c-1.051,1.028-3.32,0.795-3.175,3.096c0.009,0.129-0.391,0.316-0.627,0.406c-0.063,0.024-0.328-0.211-0.329-0.33
		c-0.021-1.99-0.07-3.982,0.026-5.967C128.245,407.053,128.918,406.925,129.419,406.987z"/>
	<path fill="#FFFFFF" d="M100.245,382.108c-0.544,3.123,0.744,6.514-0.715,9.724c-0.752-3.249-0.365-6.55-0.287-9.812
		c0.079-3.291-0.814-6.664,0.595-9.879C100.615,375.392,99.924,378.69,100.245,382.108z"/>
	<path fill="#FFFFFF" d="M139.083,303.42c-0.053,0.104-0.135,0.332-0.164,0.325c-1.687-0.376-2.974,2.188-4.747,0.697
		c-0.604-0.506-1.257-0.248-1.812-0.479c-1.054-0.438-2.026-1.064-3.033-1.613c1.054-0.721,2.233-0.279,3.352-0.334
		c1.662-0.078,3.342-0.13,4.988,0.045C138.182,302.117,138.612,302.942,139.083,303.42z"/>
	<path fill="#FFFFFF" d="M38.608,450.979c0.666,0,1.337-0.041,1.996,0.03c0.167,0.019,0.327,0.39,0.42,0.625
		c0.024,0.063-0.244,0.349-0.327,0.327c-2.666-0.657-4.976,1.188-7.588,1.05c-1.569-0.083-3.208-0.38-4.641,0.899
		c-0.374,0.333-1.866,0.477-2.148-0.432c-0.174-0.561,1.045-0.346,1.55-0.68c0.395-0.261,0.827-0.836,1.15-0.775
		C32.334,452.646,35.377,450.948,38.608,450.979z"/>
	<path fill="#FFFFFF" d="M135.18,411.504c-0.454,0.447-0.919,0.911-1.39,1.369c-1.478,1.437-2.954,2.847-3.638,4.903
		c-0.349,1.05-0.539,1.074-0.86,0.791c-0.591-0.521-1.652-1.289-1.054-1.941c1.845-2.01,3.474-4.298,5.966-5.624
		c0.255-0.136,0.646-0.019,0.976-0.019C135.18,411.147,135.18,411.312,135.18,411.504z"/>
	<path fill="#FFFFFF" d="M95.24,422.098c-0.503,2.468,0.747,5.207-0.721,7.718c-0.741-2.58-0.36-5.227-0.269-7.817
		c0.093-2.612-0.845-5.336,0.602-7.849C95.59,416.729,94.956,419.368,95.24,422.098z"/>
	<path fill="#FFFFFF" d="M118.132,323.002c0.092,1.163,0.179,1.888-0.723,1.976c-0.809,0.08-1.641,0.098-2.442-0.006
		c-0.701-0.093-1.016,1.693-1.71,0.438c-0.282-0.509-0.383-1.525,0.254-2.275c0.849-1,3.318-1.653,4.331-0.921
		C118.141,322.428,118.147,323.048,118.132,323.002z"/>
	<path fill="#FFFFFF" d="M153.591,397.156c0.171,0.101,0.433,0.2,0.625,0.378c1.17,1.074,2.099,2.424,3.797,2.865
		c0.322,0.084,1.31,0.539,0.858,1.314c-0.153,0.262-0.875,0.223-1.343,0.266c-1.307,0.115-2.042-1.271-3.574-1.119
		c-1.398,0.139-0.58-1.521-0.745-2.369C153.126,398.067,152.906,397.472,153.591,397.156z"/>
	<path fill="#FFFFFF" d="M139.18,405.983c0.813,0,1.627-0.047,2.431,0.033c0.21,0.021,0.552,0.447,0.533,0.666
		c-0.034,0.431-0.341,1.228-0.422,1.213c-2.382-0.412-3.364,1.516-4.715,2.783c-0.58,0.543-1.224,0.186-1.827,0.305
		C135.945,408.862,138.415,408.104,139.18,405.983z"/>
	<path fill="#FFFFFF" d="M111.066,369.913c2.055,0.318,4.039-0.341,5.945,0.404c-1.805,1.453-3.897,0.546-5.84,0.615
		c-2.261,0.082-4.57,0.396-6.816-0.271C106.495,369.039,108.94,370.522,111.066,369.913z"/>
	<path fill="#FFFFFF" d="M118.183,379.235c0,1.656,0.022,3.312-0.021,4.965c-0.008,0.266-0.312,0.523-0.479,0.787
		c-0.167-0.262-0.476-0.522-0.479-0.786c-0.032-3.476-0.032-6.951,0-10.427c0.002-0.264,0.312-0.523,0.479-0.785
		c0.167,0.262,0.472,0.521,0.479,0.787C118.203,375.595,118.183,377.416,118.183,379.235z"/>
	<path fill="#FFFFFF" d="M118.183,316.034c-0.37,1.203,0.736,2.716-0.651,3.81c-0.815-1.204-0.109-2.547-0.347-3.805
		c-0.261-1.386,0.599-2.951-0.643-4.175c-0.725-0.715,0.088-0.75,0.407-0.846c0.486-0.145,1.156,0.045,1.191,0.514
		C118.253,313.005,118.183,314.491,118.183,316.034z"/>
	<path fill="#FFFFFF" d="M114.184,421.274c-0.187,0.216-0.373,0.433-0.56,0.648c-1.541-1.426-3.931-1.009-5.417-2.506
		c-0.16-0.161-0.036-0.641,0.021-0.961c0.024-0.135,0.27-0.362,0.331-0.337c1.832,0.722,3.662,1.454,5.463,2.25
		C114.179,420.437,114.135,420.961,114.184,421.274z"/>
	<path fill="#FFFFFF" d="M98.058,368.915c1.761,0.296,3.417-0.301,4.979,0.425c-1.489,1.271-3.264,0.521-4.89,0.597
		c-1.59,0.074-3.25,0.416-4.811-0.297C94.803,368.212,96.628,369.476,98.058,368.915z"/>
	<path fill="#FFFFFF" d="M211.986,387.985c-0.291,0-0.818,0.119-1.255-0.03c-0.525-0.181-0.447-0.522-0.079-0.984
		c1.403-1.76,3.303-0.78,4.976-0.931c0.45-0.041,0.398,0.488,0.072,0.966C214.766,388.363,213.423,387.925,211.986,387.985z"/>
	<path fill="#FFFFFF" d="M118.183,305c0,1.149,0.083,2.31-0.04,3.446c-0.051,0.476-0.681,0.656-1.182,0.533
		c-0.281-0.069-0.52-0.318-0.775-0.486c2.041-1.901,0.529-4.348,1.003-6.488c0.064-0.292,0.184-0.781,0.338-0.808
		c0.606-0.102,0.667,0.358,0.66,0.844C118.172,303.026,118.183,304.013,118.183,305z"/>
	<path fill="#FFFFFF" d="M117.146,402.983c0.396,0,0.733,0.057,1.045-0.008c1.566-0.328,2.511,1.063,3.842,1.375
		c0.009,0.002-0.011,0.31-0.054,0.318c-1.37,0.319-2.754,0.834-4.001-0.366c-0.198-0.19-0.549-0.243-0.84-0.314
		c-0.597-0.146-1.709,0.314-1.722-0.361C115.393,402.415,116.602,403.246,117.146,402.983z"/>
	<path fill="#FFFFFF" d="M218.17,384.233c0,0.99,0.035,1.982-0.023,2.969c-0.016,0.27-0.311,0.523-0.477,0.783
		c-0.167-0.26-0.474-0.52-0.479-0.782c-0.039-2.144-0.039-4.289,0-6.433c0.005-0.265,0.313-0.522,0.479-0.783
		c0.167,0.261,0.465,0.516,0.477,0.783C218.201,381.923,218.17,383.08,218.17,384.233z"/>
	<path fill="#FFFFFF" d="M93.186,403.978c0,0.819,0.032,1.643-0.03,2.459c-0.011,0.144-0.401,0.291-0.64,0.363
		c-0.07,0.021-0.292-0.199-0.319-0.333c-0.399-1.983,0.962-4.261-1.011-5.981c0.259-0.166,0.498-0.412,0.781-0.481
		c0.5-0.123,1.128,0.06,1.179,0.534C93.268,401.671,93.186,402.829,93.186,403.978z"/>
	<path fill="#FFFFFF" d="M133.651,288.006c1.493-0.274,1.599,0.606,1.541,1.712c-0.052,1.006-0.496,1.36-0.762,0.907
		c-0.563-0.958-2.58-0.067-2.244-1.882C132.348,287.871,133.039,287.96,133.651,288.006z"/>
	<path fill="#FFFFFF" d="M115.183,398.231c0,0.658,0.048,1.321-0.022,1.972c-0.03,0.274-0.311,0.522-0.478,0.782
		c-0.167-0.26-0.469-0.517-0.478-0.78c-0.047-1.479-0.047-2.96,0-4.438c0.008-0.266,0.311-0.521,0.478-0.781
		c0.167,0.26,0.456,0.511,0.478,0.781C115.223,396.584,115.183,397.41,115.183,398.231z"/>
	<path fill="#FFFFFF" d="M133.168,315.694c0.071,0.567-0.09,1.271-0.503,1.244c-0.842-0.056-2.031,0.697-2.47-0.703
		c-0.149-0.479,0.117-1.241,0.492-1.178C131.522,315.201,132.736,314.242,133.168,315.694z"/>
	<path fill="#FFFFFF" d="M95.189,410.933c0.062,0.969-0.575,1.155-1.245,1.029c-1.216-0.229-0.662-1.257-0.749-1.97
		c-0.112-0.935,0.566-1.108,1.231-0.986C95.65,409.229,95.033,410.272,95.189,410.933z"/>
	<path fill="#FFFFFF" d="M109.587,400.985c0.742,0,1.42-0.109,2.04,0.035c0.484,0.112,0.679,0.683,0.534,1.172
		c-0.093,0.313-0.124,1.192-0.801,0.443c-0.484-0.537-1.04-0.578-1.688-0.697c-0.771-0.144-2.172,0.804-2.19-0.633
		C107.473,400.627,108.917,401.173,109.587,400.985z"/>
	<path fill="#FFFFFF" d="M168.872,319.849c0.127,0.063-0.272-0.134-0.671-0.33c0.324-0.342,0.679-0.66,0.97-1.028
		c0.613-0.777,1.458-0.452,2.213-0.47c0.252-0.006,0.512,0.293,0.768,0.451c-0.211,0.228-0.443,0.438-0.63,0.686
		C170.995,319.854,170.321,320.16,168.872,319.849z"/>
	<path fill="#FFFFFF" d="M121.266,371.988c-0.647,0-1.297-0.021-1.943,0.007c-0.49,0.021-0.91-0.081-1.021-0.594
		c-0.017-0.078,0.489-0.387,0.758-0.394c1.457-0.04,2.916-0.043,4.372,0.004c0.255,0.009,0.604,0.267,0.729,0.503
		c0.237,0.445,0.03,0.543-0.467,0.495C122.891,371.931,122.076,371.988,121.266,371.988z"/>
	<path fill="#FFFFFF" d="M165.367,382.987c0.979,0,1.639-0.018,2.295,0.015c0.123,0.006,0.354,0.249,0.333,0.317
		c-0.075,0.238-0.223,0.621-0.375,0.637c-0.65,0.07-1.318,0.084-1.97,0.018c-1.104-0.11-2.269,0.364-3.313-0.326
		C163.223,382.249,164.63,383.502,165.367,382.987z"/>
	<path fill="#FFFFFF" d="M124.602,445.899c0.229,0.228,0.357,0.336,0.461,0.465c0.314,0.385-1.115,3.599-1.502,3.414
		c-0.534-0.257-1.326-1.205-1.25-1.31C122.979,447.544,123.814,446.739,124.602,445.899z"/>
	<path fill="#FFFFFF" d="M114.183,305.005c0,0.492,0.022,0.986-0.016,1.475c-0.009,0.125-0.245,0.354-0.315,0.332
		c-0.238-0.071-0.609-0.205-0.639-0.367c-0.085-0.478-0.087-0.987-0.019-1.469c0.136-0.938-0.267-2.746,0.3-2.656
		C114.784,302.53,113.97,304.056,114.183,305.005z"/>
	<path fill="#FFFFFF" d="M95.768,443.979c0.646,0,1.297,0.062,1.933-0.02c0.495-0.063,0.7,0.048,0.464,0.492
		c-0.126,0.237-0.467,0.488-0.725,0.504c-0.963,0.059-1.935,0.064-2.897,0.004c-0.434-0.027-0.853-0.262-1.277-0.402
		c0.288-0.788,0.964-0.55,1.536-0.575C95.123,443.967,95.445,443.979,95.768,443.979z"/>
	<path fill="#FFFFFF" d="M135.18,298.005c0,0.492,0.022,0.986-0.016,1.477c-0.01,0.125-0.245,0.354-0.315,0.332
		c-0.238-0.072-0.609-0.207-0.639-0.369c-0.085-0.477-0.087-0.986-0.019-1.469c0.136-0.936-0.267-2.746,0.298-2.653
		C135.781,295.531,134.967,297.056,135.18,298.005z"/>
	<path fill="#FFFFFF" d="M128.771,285c-0.746,0-1.407,0.039-2.055-0.031c-0.142-0.015-0.276-0.409-0.339-0.649
		c-0.02-0.072,0.212-0.299,0.336-0.305c0.655-0.031,1.347-0.146,1.959,0.018c0.776,0.207,2.185-0.783,2.213,0.644
		C130.898,285.356,129.445,284.81,128.771,285z"/>
	<path fill="#FFFFFF" d="M114.183,375.688c0-0.888-0.018-1.545,0.017-2.198c0.006-0.122,0.257-0.351,0.324-0.328
		c0.236,0.082,0.611,0.233,0.629,0.392c0.071,0.648,0.097,1.318,0.014,1.963c-0.101,0.773,0.377,2.224-0.326,2.198
		C113.347,377.664,114.772,376.147,114.183,375.688z"/>
	<path fill="#FFFFFF" d="M100.804,441.098c0.127,0.268,0.373,0.54,0.358,0.799c-0.04,0.726,0.402,1.699-0.597,2.047
		c-0.569,0.197-1.271-0.025-1.899,0.055c-0.491,0.063-0.778-0.281-0.456-0.45c1.043-0.548,2.169-0.911,2.268-2.348
		C100.481,441.16,100.69,441.132,100.804,441.098z"/>
	<path fill="#FFFFFF" d="M74.18,445.979c-0.492,0-0.986,0.022-1.476-0.016c-0.125-0.01-0.354-0.245-0.332-0.314
		c0.071-0.238,0.206-0.61,0.367-0.64c0.478-0.085,0.987-0.087,1.47-0.018c0.937,0.135,2.746-0.268,2.653,0.299
		C76.655,446.58,75.13,445.766,74.18,445.979z"/>
	<path fill="#FFFFFF" d="M68.599,445.979c0.746,0,1.407-0.038,2.055,0.03c0.143,0.017,0.277,0.409,0.34,0.649
		c0.019,0.073-0.213,0.3-0.337,0.306c-0.654,0.031-1.347,0.146-1.959-0.018c-0.776-0.207-2.185,0.782-2.213-0.645
		C66.471,445.622,67.925,446.17,68.599,445.979z"/>
	<path fill="#FFFFFF" d="M99.79,457.978c-0.746,0-1.406,0.041-2.056-0.029c-0.149-0.017-0.294-0.401-0.365-0.64
		c-0.021-0.069,0.209-0.309,0.332-0.314c0.654-0.032,1.343-0.141,1.96,0.016c0.786,0.199,2.195-0.759,2.236,0.635
		C101.919,458.343,100.461,457.78,99.79,457.978z"/>
	<path fill="#FFFFFF" d="M51.199,448.979c0.491,0,0.985-0.021,1.475,0.017c0.125,0.009,0.354,0.245,0.332,0.314
		c-0.072,0.238-0.206,0.609-0.368,0.64c-0.477,0.085-0.987,0.087-1.469,0.019c-0.938-0.136-2.746,0.267-2.654-0.299
		C48.724,448.378,50.249,449.192,51.199,448.979z"/>
	<path fill="#FFFFFF" d="M44.925,450.979c-0.874,0-1.535,0.041-2.183-0.029c-0.15-0.017-0.295-0.401-0.366-0.64
		c-0.021-0.069,0.209-0.309,0.332-0.314c0.654-0.032,1.343-0.14,1.96,0.016c0.787,0.199,2.216-0.755,2.236,0.634
		C46.917,451.41,45.451,450.66,44.925,450.979z"/>
	<path fill="#FFFFFF" d="M151.837,373.146c0.114,0.275,0.288,0.541,0.33,0.826c0.146,1-0.006,1.91-0.966,2.489
		c-0.222,0.133-0.445,0.282-0.688,0.347c-0.078,0.021-0.304-0.194-0.323-0.322c-0.208-1.352,1.232-2.063,1.318-3.314
		C151.511,373.156,151.723,373.155,151.837,373.146z"/>
	<path fill="#FFFFFF" d="M118.183,453.978c0.065,0.888-0.514,1.003-1.195,1c-1.268-0.002-2.535,0-3.804,0
		c-0.064-0.887,0.514-1.002,1.195-1C115.646,453.979,116.915,453.978,118.183,453.978z"/>
	<path fill="#FFFFFF" d="M95.186,433.971c0,0.49,0.056,0.99-0.031,1.467c-0.027,0.157-0.489,0.411-0.623,0.349
		c-0.504-0.242-0.517-3.316-0.012-3.597c0.125-0.07,0.607,0.168,0.634,0.316C95.238,432.981,95.186,433.481,95.186,433.971z"/>
	<path fill="#FFFFFF" d="M181.419,416.983c0.327,0,0.672-0.065,0.976,0.019c0.283,0.078,0.521,0.313,0.779,0.481
		c-0.258,0.166-0.503,0.447-0.776,0.477c-0.646,0.071-1.313,0.084-1.956,0.002c-0.436-0.056-0.846-0.313-1.267-0.479
		c0.421-0.168,0.832-0.377,1.268-0.485C180.751,416.921,181.093,416.983,181.419,416.983z"/>
	<path fill="#FFFFFF" d="M122.182,409.446c0,0.326,0.079,0.683-0.028,0.971c-0.069,0.189-0.473,0.441-0.613,0.385
		c-0.504-0.205-0.542-3.275-0.035-3.598c0.118-0.075,0.632,0.159,0.646,0.284C122.218,408.134,122.182,408.792,122.182,409.446z"/>
	<path fill="#FFFFFF" d="M89.196,445.979c-0.49,0-0.99,0.056-1.466-0.03c-0.158-0.028-0.412-0.489-0.348-0.622
		c0.242-0.504,3.315-0.518,3.597-0.012c0.07,0.125-0.168,0.606-0.316,0.634C90.186,446.032,89.686,445.979,89.196,445.979z"/>
	<path fill="#FFFFFF" d="M81.687,446.979c-0.327,0-0.685,0.08-0.97-0.028c-0.174-0.067-0.393-0.511-0.323-0.636
		c0.281-0.505,3.355-0.492,3.598,0.012c0.063,0.133-0.2,0.606-0.347,0.623C82.999,447.019,82.341,446.979,81.687,446.979z"/>
	<path fill="#FFFFFF" d="M62.23,447.979c-0.56,0-1.052,0.023-1.539-0.016c-0.124-0.01-0.35-0.255-0.327-0.324
		c0.079-0.235,0.221-0.6,0.389-0.63c0.475-0.085,0.981-0.08,1.464-0.017c0.61,0.08,1.714-0.348,1.734,0.337
		C63.987,448.564,62.767,447.706,62.23,447.979z"/>
	<path fill="#FFFFFF" d="M115.183,390.448c0,0.326,0.079,0.683-0.028,0.971c-0.069,0.189-0.473,0.441-0.612,0.385
		c-0.504-0.205-0.542-3.274-0.035-3.598c0.118-0.075,0.632,0.159,0.645,0.284C115.219,389.137,115.183,389.794,115.183,390.448z"/>
	<path fill="#FFFFFF" d="M184.042,381.615c-0.253,0.12-0.506,0.293-0.784,0.362c-0.531,0.131-0.988-0.166-1.054-0.625
		c-0.111-0.773-0.031-1.576-0.012-2.365c0-0.004,0.4-0.061,0.439,0.008C183.121,379.858,183.578,380.739,184.042,381.615z"/>
	<path fill="#FFFFFF" d="M167.205,375.988c0.489,0,0.981-0.023,1.47,0.016c0.124,0.011,0.35,0.255,0.327,0.324
		c-0.079,0.235-0.221,0.6-0.389,0.63c-0.475,0.085-0.981,0.08-1.464,0.018c-0.609-0.08-1.335,0.346-1.813-0.339
		C165.056,376.238,165.742,375.99,167.205,375.988z"/>
	<path fill="#FFFFFF" d="M111.263,454.978c0.48,0,0.971,0.063,1.438-0.017c0.492-0.084,0.694,0.045,0.462,0.486
		c-0.125,0.235-0.45,0.461-0.717,0.508c-0.465,0.082-0.958,0.049-1.435,0.016c-0.601-0.041-1.59,0.267-1.665-0.422
		c-0.082-0.747,0.87-0.54,1.438-0.57C110.943,454.971,111.104,454.978,111.263,454.978z"/>
	<path fill="#FFFFFF" d="M105.213,455.978c0.49,0,0.981-0.022,1.47,0.017c0.124,0.01,0.351,0.255,0.327,0.324
		c-0.079,0.235-0.22,0.6-0.388,0.63c-0.476,0.085-0.982,0.08-1.464,0.017c-0.61-0.08-1.336,0.346-1.814-0.338
		C103.064,456.228,103.75,455.98,105.213,455.978z"/>
	<path fill="#FFFFFF" d="M56.2,448.979c-0.491,0-0.991,0.056-1.467-0.03c-0.157-0.028-0.412-0.49-0.349-0.623
		c0.242-0.504,3.316-0.518,3.597-0.012c0.07,0.125-0.168,0.606-0.316,0.634C57.19,449.032,56.69,448.979,56.2,448.979z"/>
	<path fill="#FFFFFF" d="M96.244,399.058c-0.307-0.173-1.032-0.478-1.005-0.584c0.305-1.15,1.23-0.221,1.854-0.467
		c0.441-0.174,1.091,0.169,0.956,0.541C97.784,399.272,96.959,398.876,96.244,399.058z"/>
	<path fill="#FFFFFF" d="M101.809,399.985c-0.611-0.03-1.546,0.17-1.462-0.573c0.077-0.681,1.059-0.442,1.645-0.399
		c0.407,0.03,1.144,0.336,1.138,0.495C103.084,400.649,102.165,399.617,101.809,399.985z"/>
	<path fill="#FFFFFF" d="M212.172,420.358c-0.031,0.61,0.169,1.546-0.574,1.462c-0.681-0.077-0.442-1.06-0.399-1.645
		c0.03-0.407,0.337-1.144,0.495-1.138C212.834,419.083,211.803,420.002,212.172,420.358z"/>
	<path fill="#FFFFFF" d="M147.425,409.964c-0.696,0.061-1.27-0.113-1.047-0.615c0.328-0.74,1.161-0.258,1.765-0.356
		c0.479-0.078,1.053,0.116,0.839,0.63C148.653,410.411,147.791,409.726,147.425,409.964z"/>
	<path fill="#FFFFFF" d="M86.856,444.043c-0.656-0.201-1.596,0.311-1.451-0.729c0.078-0.561,0.831-0.352,1.279-0.314
		c0.5,0.04,1.371-0.398,1.271,0.647C87.937,443.832,87.152,443.943,86.856,444.043z"/>
	<path fill="#FFFFFF" d="M93.81,397.985c-0.61-0.03-1.546,0.17-1.462-0.573c0.077-0.681,1.059-0.442,1.645-0.399
		c0.407,0.03,1.144,0.336,1.138,0.495C95.085,398.649,94.166,397.617,93.81,397.985z"/>
	<path fill="#FFFFFF" d="M136.265,326.988c0.271,0.13,0.529,0.254,0.789,0.379c-0.469,0.542-0.879,1.155-1.427,1.601
		c-0.357,0.291-0.498,0.032-0.471-0.441C135.203,327.731,135.121,326.942,136.265,326.988z"/>
	<path fill="#FFFFFF" d="M93.432,458.958c-0.696,0.061-1.27-0.114-1.047-0.616c0.328-0.74,1.161-0.257,1.765-0.355
		c0.479-0.078,1.054,0.117,0.839,0.63C94.66,459.405,93.798,458.72,93.432,458.958z"/>
	<path fill="#FFFFFF" d="M111.183,436.98c0.758,0.149,1.915-0.496,2,1C112.425,437.83,111.269,438.476,111.183,436.98z"/>
	<path fill="#FFFFFF" d="M134.199,322.995c0.273,0.113,0.758,0.191,0.785,0.348c0.102,0.586-0.341,0.725-0.818,0.641
		c-0.286-0.049-0.763-0.18-0.789-0.336C133.276,323.062,133.711,322.953,134.199,322.995z"/>
	<path fill="#FFFFFF" d="M94.041,442.604c-0.335,0.586-0.875,0.369-1.319,0.343c-0.138-0.008-0.411-0.479-0.35-0.613
		c0.258-0.573,0.833-0.352,1.276-0.322C93.797,442.022,93.918,442.408,94.041,442.604z"/>
	<path fill="#FFFFFF" d="M100.264,396.862c-0.172,0.334-0.376,0.729-0.58,1.123c-0.167-0.254-0.491-0.523-0.465-0.756
		c0.046-0.427,0.299-0.832,0.465-1.244C99.852,396.238,100.019,396.491,100.264,396.862z"/>
	<path fill="#FFFFFF" d="M81.31,443.9c0.372,0.246,0.625,0.412,0.877,0.58c-0.414,0.166-0.817,0.419-1.245,0.466
		c-0.231,0.024-0.502-0.3-0.755-0.466C80.582,444.276,80.976,444.072,81.31,443.9z"/>
	<path fill="#FFFFFF" d="M203.172,399.985c0.149-0.758-0.496-1.914,1-2C204.021,398.743,204.668,399.899,203.172,399.985z"/>
	<path fill="#FFFFFF" d="M199.172,403.983c0,0.328-0.011,0.654,0.002,0.981c0.021,0.486-0.053,0.947-0.667,0.81
		c-0.164-0.037-0.272-0.52-0.323-0.812c-0.055-0.317-0.012-0.651-0.012-0.979C198.506,403.983,198.839,403.983,199.172,403.983z"/>
	<path fill="#FFFFFF" d="M142.035,403.608c-0.335,0.586-0.875,0.369-1.319,0.343c-0.138-0.009-0.411-0.478-0.35-0.613
		c0.258-0.573,0.832-0.353,1.276-0.321C141.791,403.026,141.913,403.413,142.035,403.608z"/>
	<path fill="#FFFFFF" d="M133.036,286.374c-0.123,0.195-0.244,0.583-0.393,0.593c-0.443,0.031-1.019,0.252-1.276-0.321
		c-0.062-0.136,0.212-0.605,0.35-0.613C132.161,286.005,132.701,285.789,133.036,286.374z"/>
	<path fill="#FFFFFF" d="M118.183,395.004c-0.113,0.274-0.19,0.758-0.348,0.786c-0.586,0.102-0.725-0.341-0.642-0.818
		c0.051-0.287,0.181-0.763,0.336-0.789C118.116,394.082,118.225,394.517,118.183,395.004z"/>
	<path fill="#FFFFFF" d="M135.036,284.625c-0.335,0.585-0.875,0.369-1.319,0.342c-0.138-0.008-0.411-0.478-0.35-0.612
		c0.258-0.574,0.833-0.354,1.276-0.322C134.792,284.042,134.913,284.428,135.036,284.625z"/>
	<path fill="#FFFFFF" d="M75.311,446.899c0.372,0.245,0.625,0.412,0.876,0.579c-0.413,0.167-0.817,0.42-1.245,0.467
		c-0.231,0.024-0.502-0.3-0.755-0.467C74.583,447.275,74.977,447.072,75.311,446.899z"/>
	<path fill="#FFFFFF" d="M147.318,402.576c-0.528,0.157-0.953,0.364-1.381,0.377c-0.248,0.007-0.505-0.302-0.758-0.468
		c0.414-0.168,0.818-0.42,1.245-0.467C146.656,401.994,146.926,402.317,147.318,402.576z"/>
	<path fill="#FFFFFF" d="M149.166,374.871c0.085,0.536-0.104,0.867-0.573,1.03c-0.138-0.407-0.359-0.812-0.381-1.226
		c-0.012-0.22,0.295-0.625,0.505-0.659C149.655,373.865,148.948,374.646,149.166,374.871z"/>
	<path fill="#FFFFFF" d="M106.775,396.847c0.157,0.528,0.365,0.952,0.377,1.381c0.008,0.248-0.302,0.504-0.468,0.758
		c-0.167-0.414-0.419-0.818-0.466-1.245C106.193,397.508,106.517,397.238,106.775,396.847z"/>
	<path fill="#FFFFFF" d="M102.571,408.108c0.022,0.013,0.51,0.207,0.492,0.281c-0.188,0.795-0.871,0.517-1.41,0.609
		c-0.478,0.083-0.682-0.047-0.451-0.473C101.422,408.12,101.809,407.847,102.571,408.108z"/>
	<path fill="#FFFFFF" d="M149.888,372.035c0.099,0.428,0.312,0.86,0.259,1.26c-0.058,0.453-0.416,0.849-0.955,0.654
		c-0.099-0.036,0.01-0.584-0.02-0.892C149.129,372.574,149.288,372.233,149.888,372.035z"/>
	<path fill="#FFFFFF" d="M135.167,329.876c0.085,0.536-0.104,0.868-0.573,1.032c-0.138-0.408-0.359-0.812-0.38-1.228
		c-0.012-0.22,0.295-0.625,0.505-0.658C135.656,328.87,134.95,329.651,135.167,329.876z"/>
	<path fill="#FFFFFF" d="M110.301,436.968c-0.536,0.085-0.868-0.103-1.032-0.573c0.408-0.138,0.813-0.358,1.228-0.381
		c0.22-0.012,0.625,0.295,0.658,0.505C111.307,437.457,110.525,436.75,110.301,436.968z"/>
	<path fill="#FFFFFF" d="M89.325,459.568c-0.529,0.156-0.953,0.364-1.382,0.377c-0.248,0.007-0.504-0.303-0.757-0.469
		c0.413-0.167,0.818-0.419,1.245-0.466C88.663,458.986,88.934,459.311,89.325,459.568z"/>
	<path fill="#FFFFFF" d="M188.174,413.431c-0.197,0.153-0.446,0.473-0.583,0.43c-0.387-0.121-0.452-0.424-0.188-0.59
		c0.229-0.143,0.513-0.194,0.771-0.287C188.174,413.132,188.174,413.281,188.174,413.431z"/>
	<path fill="#FFFFFF" d="M149.823,356.847c-0.209-0.117-0.427-0.236-0.644-0.356c0.111-0.111,0.247-0.331,0.329-0.313
		c0.235,0.053,0.449,0.201,0.671,0.313C150.067,356.603,149.957,356.712,149.823,356.847z"/>
	<path fill="#FFFFFF" d="M91.186,369.489c-0.222,0.111-0.436,0.26-0.671,0.313c-0.082,0.02-0.217-0.201-0.329-0.313
		c0.223-0.111,0.437-0.26,0.671-0.313C90.939,369.158,91.075,369.377,91.186,369.489z"/>
	<path fill="#FFFFFF" d="M121.764,414.065c0.116,0.115,0.329,0.278,0.309,0.315c-0.117,0.218-0.25,0.486-0.452,0.584
		c-0.418,0.205-0.625-0.001-0.421-0.421C121.297,414.341,121.571,414.222,121.764,414.065z"/>
	<path fill="#FFFFFF" d="M170.82,374.132c0.135,0.135,0.245,0.245,0.356,0.355c-0.222,0.111-0.437,0.261-0.671,0.313
		c-0.082,0.019-0.217-0.2-0.329-0.313C170.393,374.368,170.61,374.248,170.82,374.132z"/>
	<path fill="#FFFFFF" d="M206.171,395.985c0.024,0.691-0.309,1.024-1,1C205.146,396.293,205.479,395.96,206.171,395.985z"/>
	<path fill="#FFFFFF" d="M185.03,416.627c-0.134,0.134-0.244,0.245-0.355,0.356c-0.111-0.223-0.26-0.437-0.313-0.672
		c-0.019-0.082,0.201-0.217,0.313-0.328C184.794,416.2,184.915,416.417,185.03,416.627z"/>
	<path fill="#FFFFFF" d="M203.172,396.431c-0.197,0.154-0.446,0.473-0.583,0.432c-0.387-0.121-0.452-0.424-0.188-0.59
		c0.229-0.143,0.513-0.194,0.771-0.287C203.172,396.134,203.172,396.283,203.172,396.431z"/>
	<path fill="#FFFFFF" d="M172.031,376.632c-0.134,0.135-0.244,0.245-0.355,0.355c-0.111-0.221-0.26-0.436-0.313-0.67
		c-0.019-0.082,0.201-0.217,0.313-0.33C171.796,376.205,171.916,376.422,172.031,376.632z"/>
	<path fill="#FFFFFF" d="M104.328,396.341c0.134-0.134,0.244-0.244,0.355-0.355c0.111,0.222,0.26,0.436,0.313,0.671
		c0.019,0.082-0.201,0.217-0.313,0.329C104.564,396.769,104.444,396.551,104.328,396.341z"/>
	<path fill="#FFFFFF" d="M181.728,378.988c-0.154-0.197-0.472-0.446-0.43-0.583c0.121-0.387,0.423-0.452,0.589-0.188
		c0.143,0.228,0.195,0.513,0.288,0.771C182.026,378.988,181.877,378.988,181.728,378.988z"/>
	<path fill="#FFFFFF" d="M142.18,324.44c-0.197,0.153-0.446,0.473-0.583,0.431c-0.387-0.121-0.452-0.423-0.188-0.589
		c0.228-0.143,0.512-0.195,0.771-0.288C142.18,324.144,142.18,324.292,142.18,324.44z"/>
	<path fill="#FFFFFF" d="M114.683,382.987c0.111,0.222,0.26,0.436,0.313,0.671c0.019,0.082-0.201,0.217-0.313,0.329
		c-0.111-0.223-0.26-0.437-0.313-0.672C114.352,383.233,114.572,383.099,114.683,382.987z"/>
	<path fill="#FFFFFF" d="M133.037,389.342c-0.116,0.209-0.236,0.427-0.356,0.644c-0.111-0.11-0.331-0.246-0.313-0.328
		c0.052-0.235,0.2-0.449,0.313-0.672C132.792,389.099,132.903,389.208,133.037,389.342z"/>
	<path fill="#FFFFFF" d="M132.537,391.842c-0.135-0.134-0.245-0.245-0.356-0.356c0.222-0.11,0.437-0.26,0.671-0.312
		c0.082-0.019,0.217,0.201,0.329,0.312C132.963,391.606,132.746,391.726,132.537,391.842z"/>
	<path fill="#FFFFFF" d="M206.171,395.985c-0.025-0.691,0.308-1.025,1-1C207.197,395.677,206.863,396.011,206.171,395.985z"/>
	<path fill="#FFFFFF" d="M204.172,394.985c0.024,0.691-0.309,1.025-1,1C203.146,395.294,203.48,394.96,204.172,394.985z"/>
	<path fill="#FFFFFF" d="M209.752,391.067c0.116,0.117,0.329,0.279,0.309,0.316c-0.118,0.217-0.25,0.486-0.453,0.585
		c-0.418,0.205-0.625-0.001-0.421-0.421C209.286,391.344,209.56,391.226,209.752,391.067z"/>
	<path fill="#FFFFFF" d="M206.753,392.067c0.116,0.115,0.329,0.278,0.309,0.315c-0.118,0.218-0.25,0.486-0.453,0.585
		c-0.418,0.205-0.625-0.001-0.421-0.421C206.287,392.344,206.56,392.224,206.753,392.067z"/>
	<path fill="#FFFFFF" d="M200.172,399.985c0.024,0.691-0.309,1.024-1,1C199.147,400.293,199.48,399.959,200.172,399.985z"/>
	<path fill="#FFFFFF" d="M202.172,400.985c-0.025-0.692,0.308-1.025,1-1C203.197,400.677,202.864,401.01,202.172,400.985z"/>
	<path fill="#FFFFFF" d="M199.172,401.431c-0.197,0.154-0.446,0.473-0.583,0.432c-0.387-0.121-0.452-0.424-0.188-0.59
		c0.229-0.143,0.513-0.194,0.771-0.287C199.172,401.133,199.172,401.282,199.172,401.431z"/>
	<path fill="#FFFFFF" d="M201.172,401.985c-0.025-0.692,0.308-1.025,1-1C202.197,401.677,201.864,402.01,201.172,401.985z"/>
	<path fill="#FFFFFF" d="M152.822,402.129c0.135,0.134,0.245,0.245,0.356,0.356c-0.222,0.11-0.436,0.26-0.671,0.313
		c-0.082,0.02-0.217-0.201-0.329-0.313C152.396,402.365,152.613,402.245,152.822,402.129z"/>
	<path fill="#FFFFFF" d="M200.172,402.983c-0.025-0.69,0.308-1.024,1-1C201.197,402.677,200.864,403.01,200.172,402.983z"/>
	<path fill="#FFFFFF" d="M205.171,393.985c0.024,0.692-0.309,1.025-1,1C204.146,394.294,204.48,393.96,205.171,393.985z"/>
	<path fill="#FFFFFF" d="M104.103,400.565c-0.116,0.117-0.278,0.33-0.315,0.31c-0.218-0.118-0.485-0.25-0.585-0.453
		c-0.205-0.418,0.002-0.625,0.421-0.421C103.826,400.101,103.946,400.374,104.103,400.565z"/>
	<path fill="#FFFFFF" d="M198.172,403.983c-0.333,0-0.667,0-1,0c-0.036-0.485,0.063-0.928,0.663-0.793
		C197.999,403.229,198.063,403.708,198.172,403.983z"/>
	<path fill="#FFFFFF" d="M103.328,433.337c0.134-0.134,0.244-0.245,0.355-0.355c0.111,0.222,0.26,0.436,0.313,0.671
		c0.019,0.082-0.201,0.217-0.313,0.329C103.564,433.764,103.444,433.546,103.328,433.337z"/>
	<path fill="#FFFFFF" d="M106.04,434.625c-0.135,0.134-0.245,0.245-0.356,0.356c-0.111-0.223-0.26-0.437-0.313-0.672
		c-0.02-0.082,0.2-0.218,0.313-0.328C105.804,434.198,105.924,434.415,106.04,434.625z"/>
	<path fill="#FFFFFF" d="M108.184,435.48c-0.222,0.11-0.436,0.26-0.671,0.313c-0.082,0.02-0.217-0.201-0.329-0.313
		c0.222-0.111,0.437-0.261,0.671-0.313C107.937,435.149,108.072,435.369,108.184,435.48z"/>
	<path fill="#FFFFFF" d="M200.172,402.983c0.024,0.692-0.309,1.025-1,1C199.147,403.292,199.48,402.959,200.172,402.983z"/>
	<path fill="#FFFFFF" d="M197.172,403.983c0.024,0.692-0.309,1.025-1,1C196.147,404.292,196.481,403.959,197.172,403.983z"/>
	<path fill="#FFFFFF" d="M201.172,398.985c0.024,0.69-0.309,1.024-1,1C200.147,399.293,200.48,398.96,201.172,398.985z"/>
	<path fill="#FFFFFF" d="M114.102,438.563c-0.116,0.115-0.279,0.328-0.315,0.309c-0.218-0.118-0.486-0.25-0.585-0.453
		c-0.205-0.417,0.001-0.624,0.421-0.42C113.825,438.096,113.945,438.369,114.102,438.563z"/>
	<path fill="#FFFFFF" d="M138.734,405.983c-0.153-0.196-0.473-0.445-0.43-0.582c0.121-0.387,0.423-0.452,0.588-0.188
		c0.144,0.228,0.195,0.513,0.288,0.771C139.031,405.983,138.882,405.983,138.734,405.983z"/>
	<path fill="#FFFFFF" d="M159.731,399.985c-0.153-0.197-0.473-0.446-0.43-0.584c0.121-0.387,0.423-0.45,0.589-0.188
		c0.144,0.227,0.195,0.512,0.288,0.77C160.029,399.985,159.88,399.985,159.731,399.985z"/>
	<path fill="#FFFFFF" d="M160.731,405.983c-0.153-0.196-0.473-0.445-0.43-0.582c0.121-0.387,0.423-0.452,0.589-0.188
		c0.144,0.228,0.195,0.513,0.288,0.771C161.029,405.983,160.88,405.983,160.731,405.983z"/>
	<path fill="#FFFFFF" d="M206.171,392.985c0.024,0.692-0.309,1.025-1,1C205.146,393.294,205.479,392.96,206.171,392.985z"/>
	<path fill="#FFFFFF" d="M195.173,405.983c-0.025-0.691,0.308-1.024,1-1C196.198,405.676,195.865,406.01,195.173,405.983z"/>
	<path fill="#FFFFFF" d="M109.828,399.129c0.134,0.134,0.244,0.245,0.355,0.356c-0.222,0.11-0.436,0.26-0.671,0.313
		c-0.082,0.02-0.217-0.201-0.329-0.313C109.401,399.365,109.618,399.245,109.828,399.129z"/>
	<path fill="#FFFFFF" d="M208.171,394.985c-0.333,0-0.667,0-1,0c-0.036-0.485,0.063-0.928,0.663-0.793
		C207.998,394.229,208.062,394.709,208.171,394.985z"/>
	<path fill="#FFFFFF" d="M195.173,405.983c0.024,0.692-0.309,1.025-1,1C194.147,406.292,194.481,405.959,195.173,405.983z"/>
	<path fill="#FFFFFF" d="M218.67,405.983c0.11,0.223,0.26,0.437,0.313,0.672c0.02,0.082-0.201,0.217-0.313,0.328
		c-0.111-0.223-0.26-0.436-0.313-0.67C218.339,406.231,218.559,406.097,218.67,405.983z"/>
	<path fill="#FFFFFF" d="M193.173,407.983c-0.025-0.691,0.308-1.024,1-1C194.198,407.676,193.865,408.009,193.173,407.983z"/>
	<path fill="#FFFFFF" d="M201.753,398.067c0.116,0.115,0.329,0.278,0.309,0.315c-0.118,0.218-0.25,0.486-0.453,0.584
		c-0.418,0.205-0.625-0.001-0.421-0.42C201.288,398.343,201.561,398.224,201.753,398.067z"/>
	<path fill="#FFFFFF" d="M193.173,407.983c0.024,0.692-0.309,1.025-1,1C192.148,408.292,192.481,407.958,193.173,407.983z"/>
	<path fill="#FFFFFF" d="M217.814,408.84c-0.209-0.116-0.427-0.235-0.644-0.356c0.11-0.11,0.247-0.33,0.329-0.313
		c0.234,0.053,0.448,0.201,0.671,0.313C218.059,408.595,217.948,408.706,217.814,408.84z"/>
	<path fill="#FFFFFF" d="M117.827,398.841c-0.209-0.115-0.428-0.236-0.645-0.355c0.111-0.111,0.247-0.331,0.329-0.313
		c0.235,0.052,0.449,0.201,0.671,0.313C118.071,398.597,117.96,398.708,117.827,398.841z"/>
	<path fill="#FFFFFF" d="M117.539,292.854c-0.135-0.135-0.245-0.246-0.356-0.356c0.222-0.11,0.437-0.26,0.671-0.313
		c0.082-0.019,0.217,0.201,0.329,0.313C117.965,292.619,117.748,292.739,117.539,292.854z"/>
	<path fill="#FFFFFF" d="M140.18,448.425c-0.197,0.154-0.446,0.474-0.583,0.431c-0.387-0.121-0.452-0.424-0.188-0.59
		c0.228-0.143,0.512-0.194,0.771-0.288C140.18,448.127,140.18,448.276,140.18,448.425z"/>
	<path fill="#FFFFFF" d="M111.327,293.354c0.134-0.135,0.244-0.246,0.355-0.356c0.111,0.222,0.26,0.437,0.313,0.671
		c0.019,0.082-0.201,0.217-0.313,0.328C111.563,293.781,111.443,293.563,111.327,293.354z"/>
	<path fill="#FFFFFF" d="M132.681,305.997c0.111,0.222,0.26,0.436,0.313,0.671c0.019,0.082-0.201,0.217-0.313,0.329
		c-0.111-0.223-0.26-0.436-0.313-0.671C132.35,306.243,132.569,306.108,132.681,305.997z"/>
	<path fill="#FFFFFF" d="M191.173,409.983c-0.025-0.691,0.308-1.024,1-1C192.199,409.676,191.865,410.009,191.173,409.983z"/>
	<path fill="#FFFFFF" d="M209.171,392.433c-0.197,0.153-0.446,0.473-0.582,0.431c-0.387-0.121-0.452-0.425-0.188-0.589
		c0.228-0.144,0.512-0.195,0.771-0.289C209.171,392.134,209.171,392.283,209.171,392.433z"/>
	<path fill="#FFFFFF" d="M190.173,410.983c-0.025-0.691,0.308-1.025,1-1C191.199,410.676,190.865,411.009,190.173,410.983z"/>
	<path fill="#FFFFFF" d="M204.172,397.985c-0.025-0.692,0.308-1.025,1-1C205.197,397.677,204.863,398.011,204.172,397.985z"/>
	<path fill="#FFFFFF" d="M132.325,320.64c0.115-0.209,0.235-0.428,0.355-0.645c0.111,0.111,0.331,0.247,0.313,0.329
		c-0.053,0.235-0.201,0.448-0.313,0.671C132.569,320.884,132.458,320.772,132.325,320.64z"/>
	<path fill="#FFFFFF" d="M189.174,411.983c-0.025-0.692,0.308-1.025,1-1C190.199,411.675,189.865,412.009,189.174,411.983z"/>
	<path fill="#FFFFFF" d="M166.73,320.995c-0.153-0.197-0.473-0.446-0.43-0.583c0.121-0.388,0.423-0.452,0.589-0.188
		c0.144,0.229,0.195,0.512,0.288,0.771C167.028,320.995,166.879,320.995,166.73,320.995z"/>
	<path fill="#FFFFFF" d="M189.174,411.983c0.024,0.691-0.308,1.024-1,1C188.148,412.292,188.482,411.958,189.174,411.983z"/>
	<path fill="#FFFFFF" d="M71.833,462.833c-0.209-0.115-0.428-0.235-0.645-0.355c0.111-0.11,0.247-0.33,0.329-0.313
		c0.235,0.052,0.449,0.201,0.671,0.313C72.077,462.589,71.966,462.699,71.833,462.833z"/>
	<path d="M137.18,336.993c-0.041-2.52,0.492-4.753,3-5.999C140.22,333.515,139.688,335.747,137.18,336.993z"/>
	<path d="M151.328,449.088c-3.606-1.042-6.956-2.543-9.26-6.294c-1.54-2.506-1.523-5.367-2.854-7.835
		c-0.353-0.653,1.488-8.014,1.955-9.146c1.351-3.284,3.815-5.885,6.594-7.627c2.119-1.33,5.203-1.806,7.942-1.148
		c1.771,0.425,3.941,0.934,5.002,2.189c1.865,2.213,3.271,4.924,4.371,7.629c0.617,1.521-0.279,3.552,1.098,5.04
		c-0.942,1.394-0.747,3.037-1.084,4.562c-1.12,5.063-6.137,10.273-11.073,12.249C153.171,449.045,152.413,448.791,151.328,449.088z"
		/>
	<path d="M219.376,420.981c1.977-0.166,2.651,1.561,3.782,2.618c0.081,0.077,0.05,0.33,0.004,0.48
		c-0.402,1.338-1.571,2.114-2.571,2.808c-0.563,0.392-1.749,0.302-2.651-0.554c-1.931-1.827-1.843-1.951-0.859-4.342
		C217.68,420.537,218.584,421.211,219.376,420.981z"/>
	<path fill="#FFFFFF" d="M158.371,430.36c-0.34,6.437-2.143,10.507-6.953,12.984c-1.05,0.541-1.441,0.577-2.483-0.01
		c-4.101-2.311-7.002-8.473-5.563-12.987c1.205-3.78,2.868-7.361,6.95-9.03c1.146-0.469,2.07-0.608,3.082,0.355
		C156.284,424.418,159.055,427.172,158.371,430.36z"/>
	<path fill="#FFFFFF" d="M163.177,427.981c0.165,0,0.463-0.038,0.476,0.005c1.958,6.897-1.118,14.535-7.923,17.994
		c-3.389,1.723-7.564,1.363-10.082-1.095c-1.093-1.065-2.908-1.818-2.469-3.907c1.444,0.276,2.186,1.534,2.905,2.516
		c1.305,1.782,3.565,1.229,5.001,2.484c1.817-1.602,4.418-0.733,6.47-2.611c3.169-2.901,4.369-6.486,5.622-10.229
		C161.841,431.42,163.723,429.701,163.177,427.981z"/>
	<path fill="#FFFFFF" d="M161.207,431.55c-0.13,3.347-1.005,6.445-3.197,9.071c-0.173,0.207-0.55,0.243-0.832,0.359
		c0-0.33-0.067-0.679,0.011-0.988c0.418-1.645,1.435-3.043,2.114-4.568c1.522-3.411,0.654-6.396-0.671-9.401
		c-0.355-0.807-0.376-1.875-1.304-2.47c-0.179-0.113-0.132-1.009,0.108-1.262c0.538-0.568,0.818,0.227,0.989,0.484
		C160.188,425.421,161.355,428.273,161.207,431.55z"/>
	<path fill="#FFFFFF" d="M142.18,434.068c0,1.31,0.04,2.622-0.029,3.928c-0.017,0.313,0.519,1.107-0.457,0.952
		c-0.206-0.033-0.488-0.478-0.491-0.734c-0.035-2.783-0.034-5.565-0.004-8.349c0.004-0.271,0.321-0.785,0.396-0.768
		c0.52,0.12,0.6,0.551,0.592,1.042C142.166,431.449,142.18,432.759,142.18,434.068z"/>
	<path fill="#FFFFFF" d="M158.681,420.981c-1.22,0.255-1.68-0.797-2.401-1.397c0.182-0.201,0.334-0.536,0.547-0.579
		c1.224-0.248,1.672,0.854,2.322,1.51C159.479,420.849,159.177,421.148,158.681,420.981z"/>
	<path fill="#FFFFFF" d="M160.177,421.982c1.579,0.392,2.16,1.447,2,3C160.598,424.59,160.017,423.534,160.177,421.982z"/>
	<path fill="#FFFFFF" d="M152.933,418.981c-0.327,0-0.672,0.065-0.976-0.019c-0.283-0.078-0.521-0.313-0.779-0.481
		c0.258-0.166,0.503-0.446,0.776-0.477c0.646-0.07,1.313-0.084,1.957-0.002c0.435,0.057,0.845,0.313,1.267,0.479
		c-0.421,0.168-0.832,0.377-1.268,0.485C153.602,419.044,153.26,418.981,152.933,418.981z"/>
	<path fill="#FFFFFF" d="M162.177,424.982c1.927,0.469,0.619,2.015,1,3C161.25,427.513,162.558,425.966,162.177,424.982z"/>
	<path fill="#FFFFFF" d="M142.18,438.98c1.496,0.085,0.849,1.241,1,2C141.684,440.895,142.33,439.738,142.18,438.98z"/>
	<path fill="#FFFFFF" d="M144.179,423.982c-0.151,0.758,0.496,1.915-1,2C143.33,425.224,142.683,424.067,144.179,423.982z"/>
	<path fill="#FFFFFF" d="M143.167,426.864c0.085,0.536-0.104,0.868-0.573,1.032c-0.138-0.408-0.359-0.813-0.381-1.228
		c-0.012-0.22,0.295-0.625,0.505-0.659C143.655,425.858,142.949,426.64,143.167,426.864z"/>
	<path fill="#FFFFFF" d="M149.679,418.981c0.111,0.223,0.26,0.437,0.313,0.672c0.019,0.082-0.201,0.217-0.313,0.328
		c-0.111-0.222-0.26-0.436-0.313-0.67C149.348,419.229,149.567,419.094,149.679,418.981z"/>
	<path fill="#FFFFFF" d="M147.76,420.063c0.116,0.117,0.329,0.279,0.309,0.316c-0.117,0.217-0.25,0.486-0.452,0.585
		c-0.419,0.205-0.625-0.001-0.422-0.421C147.294,420.34,147.567,420.222,147.76,420.063z"/>
	<path fill="#FFFFFF" d="M146.179,421.982c-0.025-0.692,0.308-1.025,1-1.001C147.204,421.674,146.871,422.008,146.179,421.982z"/>
	<path fill="#FFFFFF" d="M160.177,421.982c-0.692,0.024-1.025-0.309-1-1.001C159.869,420.957,160.203,421.291,160.177,421.982z"/>
	<path fill="#FFFFFF" d="M146.179,421.982c0.025,0.69-0.308,1.024-1,1C145.154,422.291,145.487,421.957,146.179,421.982z"/>
	<path fill="#FFFFFF" d="M144.179,423.982c-0.025-0.692,0.308-1.025,1-1C145.205,423.674,144.871,424.007,144.179,423.982z"/>
	<path fill="#FFFFFF" d="M156.178,441.979c-0.025-0.69,0.308-1.024,1-1C157.203,441.672,156.87,442.005,156.178,441.979z"/>
	<path fill="#FFFFFF" d="M156.178,442.426c-0.197,0.154-0.446,0.474-0.583,0.431c-0.387-0.121-0.452-0.425-0.188-0.59
		c0.229-0.142,0.513-0.194,0.771-0.288C156.178,442.128,156.178,442.277,156.178,442.426z"/>
	<path fill="#FFFFFF" d="M221.019,423.654c-0.471,0.442-0.957,1.237-1.371,1.202c-0.486-0.044-1.326-0.852-1.283-1.25
		c0.12-1.122,1.178-0.473,1.828-0.614C220.687,422.884,221.022,423.082,221.019,423.654z"/>
	<path d="M151.879,435.98c-3.045,0.054-3.626-0.441-3.7-3.152c-0.08-2.927,0.647-3.857,3.006-3.847
		c2.111,0.009,3.962,1.837,3.993,3.942C155.211,435.188,154.403,435.936,151.879,435.98z"/>
	<path fill="#FFFFFF" d="M153.178,433.02c-0.146,0.65,0.444,1.653-0.727,1.95c-0.995,0.251-2.105-1.018-2.276-2.509
		c-0.11-0.962,0.133-1.491,1.265-1.505C153.013,430.938,153.173,431.047,153.178,433.02z"/>
</g>
</svg>
