<?xml version="1.0" encoding="utf-8"?>
<!-- Generator: Adobe Illustrator 16.2.0, SVG Export Plug-In . SVG Version: 6.00 Build 0)  -->
<!DOCTYPE svg PUBLIC "-//W3C//DTD SVG 1.0//EN" "http://www.w3.org/TR/2001/REC-SVG-20010904/DTD/svg10.dtd">
<svg version="1.0" id="Layer_1" xmlns="http://www.w3.org/2000/svg" xmlns:xlink="http://www.w3.org/1999/xlink" x="0px" y="0px"
	 width="39.602px" height="51.84px" viewBox="0 0 39.602 51.84" enable-background="new 0 0 39.602 51.84" xml:space="preserve">
<g>
	<path fill="#737373" d="M0.24,49.439c0-8.479,0-16.959,0-25.439c0.046-0.065,0.111-0.123,0.137-0.195
		c0.526-1.524,1.389-2.567,3.205-2.448c0.222,0.014,0.616-0.471,0.684-0.778c0.115-0.535,0.038-1.111,0.044-1.669
		c0.029-2.73-0.205-5.471,0.892-8.105C7.548,5.162,11.52,1.592,17.697,0.707C18.053,0.656,18.38,0.4,18.72,0.24
		c0.88,0,1.761,0,2.641,0c0.34,0.16,0.665,0.375,1.022,0.471c1.213,0.327,2.479,0.498,3.646,0.933
		c5.41,2.011,9.812,7.958,9.739,14.021c-0.019,1.436,0.029,2.873-0.009,4.308c-0.026,0.962,0.217,1.53,1.335,1.45
		c1.099-0.079,1.739,0.646,2.235,1.512c0.194,0.34,0.34,0.709,0.508,1.065c0,8.48,0,16.96,0,25.439
		c-0.72,0.881-1.438,1.761-2.159,2.641c-11.761,0-23.521,0-35.279,0C1.68,51.2,0.96,50.32,0.24,49.439z M20.045,21.408
		c2.836,0,5.673,0.026,8.51-0.029c0.403-0.008,1.147-0.417,1.146-0.633c-0.027-2.265,0.207-4.631-0.374-6.769
		c-1.038-3.824-3.628-6.259-7.702-7.091c-4.429-0.904-9.303,2.002-10.541,6.208c-0.646,2.199-0.53,4.622-0.777,6.941
		c-0.11,1.034,0.286,1.415,1.352,1.393C14.451,21.37,17.248,21.408,20.045,21.408z M16.635,40.354c0.003,0,0.006,0,0.008,0
		c0,1.078-0.019,2.154,0.005,3.231c0.023,1.192,0.549,1.765,1.741,1.827c1.033,0.054,2.073,0.048,3.109,0.014
		c1.413-0.046,1.926-0.591,1.938-2.004c0.018-1.955-0.016-3.91,0.047-5.863c0.016-0.518,0.192-1.09,0.469-1.528
		c0.984-1.564,1.044-3.138,0.171-4.732c-1.223-2.233-4.182-3.007-6.438-1.721c-2.162,1.233-3.057,4.017-1.748,6.062
		c0.592,0.924,0.716,1.805,0.699,2.801C16.626,39.077,16.635,39.715,16.635,40.354z"/>
</g>
</svg>
