<?xml version="1.0" encoding="utf-8"?>
<!-- Generator: Adobe Illustrator 16.2.0, SVG Export Plug-In . SVG Version: 6.00 Build 0)  -->
<!DOCTYPE svg PUBLIC "-//W3C//DTD SVG 1.0//EN" "http://www.w3.org/TR/2001/REC-SVG-20010904/DTD/svg10.dtd">
<svg version="1.0" id="Layer_1" xmlns="http://www.w3.org/2000/svg" xmlns:xlink="http://www.w3.org/1999/xlink" x="0px" y="0px"
	 width="113.898px" height="113.973px" viewBox="0 0 113.898 113.973" enable-background="new 0 0 113.898 113.973"
	 xml:space="preserve">
<g>
	<path fill-rule="evenodd" clip-rule="evenodd" fill="#737373" d="M54.151,0c1.84,0,3.681,0,5.521,0
		c0.376,0.098,0.747,0.264,1.127,0.285c6.161,0.341,12.087,1.751,17.771,4.099c24.22,10.003,38.381,34.759,34.771,60.759
		c-1.034,7.445-3.295,14.522-7.325,20.882c-13.03,20.56-31.746,29.909-56,27.608c-11.368-1.079-21.484-5.622-30.062-13.148
		C5.155,87.499-1.385,71.051,0.243,51.427C0.8,44.718,2.575,38.292,5.639,32.28c9.278-18.212,24.08-28.752,44.292-31.715
		C51.335,0.359,52.745,0.188,54.151,0z M64.075,80.738c1,0,2.002-0.048,2.998,0.015c0.812,0.051,1.244-0.185,1.421-1.033
		c0.283-1.36,0.739-2.686,0.986-4.051c0.065-0.363-0.259-0.991-0.59-1.195c-1.221-0.752-2.471-1.502-3.8-2.021
		c-1.782-0.695-2.464-1.805-2.256-3.72c0.1-0.913,0.297-1.561,1.021-2.121c1.454-1.125,2.834-2.346,4.3-3.454
		c0.648-0.49,0.711-0.941,0.364-1.614c-0.622-1.207-1.229-2.424-1.777-3.666c-0.343-0.775-0.816-0.977-1.612-0.725
		c-0.755,0.239-1.541,0.382-2.316,0.554c-2.133,0.474-4.252,1.27-5.835-1.287c-0.465-0.75-0.706-1.328-0.549-2.113
		c0.338-1.677,0.672-3.357,1.071-5.02c0.236-0.986-0.006-1.575-1.003-1.941c-1.158-0.426-2.296-0.935-3.385-1.515
		c-0.818-0.436-1.293-0.226-1.803,0.466c-1.091,1.479-2.229,2.924-3.39,4.35c-0.21,0.257-0.625,0.501-0.937,0.49
		c-0.786-0.028-1.571-0.319-2.35-0.292c-0.932,0.032-1.33-0.426-1.712-1.164c-0.844-1.631-1.781-3.213-2.653-4.83
		c-0.337-0.625-0.715-0.827-1.446-0.581c-1.24,0.417-2.519,0.723-3.791,1.034c-0.8,0.196-1.238,0.542-1.155,1.476
		c0.096,1.071-0.144,2.194,0.072,3.229c0.472,2.253-0.208,3.749-2.313,4.748c-0.624,0.296-1.052,0.521-1.728,0.246
		c-1.81-0.735-3.633-1.447-5.485-2.062c-0.398-0.132-1.147,0.018-1.388,0.317c-0.924,1.148-1.765,2.376-2.504,3.652
		c-0.205,0.353-0.128,1.101,0.124,1.443c0.708,0.961,1.501,1.887,2.394,2.676c1.533,1.356,2.296,2.776,1.295,4.835
		c-0.319,0.657-0.542,1.136-1.286,1.369c-1.825,0.571-3.614,1.256-5.434,1.844c-0.767,0.247-1.116,0.646-1.013,1.477
		c0.171,1.38,0.323,2.766,0.403,4.153c0.048,0.832,0.546,1.079,1.215,1.174c1.336,0.19,2.671,0.423,4.015,0.507
		c1.582,0.1,3.003,0.302,3.291,2.251c0.027,0.188,0.137,0.383,0.259,0.536c0.481,0.605,0.309,1.111-0.077,1.72
		c-1.111,1.753-2.132,3.565-3.226,5.331c-0.355,0.575-0.332,0.993,0.17,1.459c1.111,1.034,2.158,2.141,3.303,3.135
		c0.253,0.219,0.9,0.268,1.202,0.1c1.359-0.757,2.744-1.513,3.96-2.473c1.354-1.07,2.498-1.231,4.034-0.274
		c0.962,0.6,1.259,1.276,1.396,2.255c0.249,1.773,0.617,3.532,0.817,5.31c0.105,0.934,0.614,1.201,1.394,1.261
		c1.31,0.102,2.622,0.167,3.93,0.288c0.752,0.07,1.172-0.173,1.396-0.939c0.538-1.833,1.184-3.634,1.726-5.466
		c0.222-0.749,0.636-1.153,1.394-1.265c0.47-0.069,0.969-0.107,1.393-0.298c0.705-0.317,1.185-0.089,1.71,0.382
		c1.489,1.333,3.037,2.6,4.516,3.942c0.694,0.631,1.276,0.621,1.997,0.066c1.045-0.803,2.125-1.563,3.222-2.295
		c0.609-0.406,0.715-0.818,0.419-1.499c-0.762-1.754-1.424-3.552-2.176-5.312c-0.277-0.65-0.183-1.086,0.182-1.727
		c1.011-1.78,2.391-2.525,4.403-2.151C63.265,80.798,63.676,80.736,64.075,80.738z M92.941,46.174
		c3.237,0.009,3.236,0.009,4.039-3.166c0.039-0.153,0.118-0.297,0.157-0.45c0.178-0.697,0.042-1.216-0.686-1.565
		c-1.187-0.569-2.345-1.201-3.497-1.838c-1.123-0.622-1.326-3.046-0.336-3.862c1.172-0.965,2.384-1.884,3.509-2.901
		c0.255-0.23,0.404-0.85,0.284-1.173c-0.372-1.006-0.919-1.947-1.353-2.932c-0.297-0.674-0.688-0.83-1.42-0.632
		c-1.303,0.353-2.638,0.599-3.971,0.824c-0.335,0.057-0.805-0.024-1.054-0.231c-1.276-1.062-2.263-2.247-1.348-4.072
		c0.188-0.377,0.18-0.853,0.263-1.283c0.576-2.966,0.574-2.299-1.741-3.429c-0.43-0.21-0.877-0.388-1.302-0.607
		c-0.668-0.346-1.173-0.266-1.643,0.389c-0.744,1.039-1.506,2.079-2.386,2.997c-0.374,0.39-1.063,0.646-1.616,0.66
		c-1.406,0.035-2.459-0.55-2.974-2.002c-0.29-0.817-0.882-1.522-1.233-2.323c-0.47-1.072-1.15-1.271-2.195-0.839
		c-0.731,0.302-1.518,0.48-2.292,0.662c-0.691,0.163-1.021,0.521-0.966,1.258c0.099,1.31,0.193,2.623,0.221,3.936
		c0.024,1.197-2.107,2.701-3.241,2.303c-1.315-0.461-2.63-0.935-3.915-1.475c-0.791-0.332-1.331-0.264-1.784,0.531
		c-0.435,0.761-0.935,1.493-1.482,2.178c-0.55,0.687-0.532,1.203,0.113,1.835c0.913,0.893,1.75,1.866,2.581,2.837
		c0.243,0.285,0.509,0.683,0.505,1.026c-0.019,1.722-0.649,2.5-2.345,3.073c-0.264,0.089-0.532,0.161-0.792,0.258
		c-1.04,0.39-2.475,0.508-3.002,1.261c-0.509,0.725-0.079,2.107-0.061,3.201c0.004,0.24-0.072,0.539,0.041,0.707
		c0.249,0.371,0.548,0.891,0.911,0.972c1.432,0.319,2.899,0.472,4.348,0.726c1.247,0.218,2.13,2.227,1.48,3.327
		c-0.751,1.273-1.488,2.554-2.282,3.8c-0.401,0.631-0.484,1.103,0.158,1.646c0.761,0.643,1.382,1.459,2.174,2.055
		c0.343,0.257,1.063,0.355,1.434,0.169c1.139-0.57,2.189-1.313,3.276-1.986c1.773-1.098,3.56-0.194,3.836,1.897
		c0.184,1.381,0.418,2.76,0.721,4.12c0.071,0.318,0.479,0.745,0.785,0.794c1.055,0.172,2.137,0.172,3.202,0.291
		c0.793,0.088,1.167-0.282,1.375-0.991c0.382-1.297,0.771-2.595,1.221-3.869c0.131-0.371,0.416-0.831,0.745-0.963
		c1.204-0.484,2.441-0.834,3.415,0.516c0.227,0.314,0.6,0.523,0.906,0.779c2.826,2.357,2.812,2.336,5.813,0.111
		c0.676-0.501,0.818-0.975,0.495-1.721c-0.539-1.244-1.043-2.504-1.511-3.777c-0.127-0.343-0.235-0.871-0.065-1.114
		c0.759-1.084,1.413-2.41,3.168-1.952C92.038,46.266,92.502,46.174,92.941,46.174z"/>
	<path fill-rule="evenodd" clip-rule="evenodd" fill="#737373" d="M43.348,61.044c4.697-0.12,9.44,3.65,9.457,9.396
		c0.016,5.3-4.352,9.416-9.476,9.396c-4.993-0.019-9.479-4.216-9.425-9.238C33.966,64.979,38.272,61.019,43.348,61.044z"/>
	<path fill-rule="evenodd" clip-rule="evenodd" fill="#737373" d="M76.749,30.802c3.979,0.005,7.463,3.375,7.279,7.317
		c-0.214,4.601-3.339,7.317-7.344,7.276c-4.583-0.048-7.206-3.481-7.297-7.34C69.295,34.108,72.733,30.797,76.749,30.802z"/>
</g>
</svg>
