<?xml version="1.0" encoding="utf-8"?>
<!-- Generator: Adobe Illustrator 16.2.0, SVG Export Plug-In . SVG Version: 6.00 Build 0)  -->
<!DOCTYPE svg PUBLIC "-//W3C//DTD SVG 1.0//EN" "http://www.w3.org/TR/2001/REC-SVG-20010904/DTD/svg10.dtd">
<svg version="1.0" id="Layer_1" xmlns="http://www.w3.org/2000/svg" xmlns:xlink="http://www.w3.org/1999/xlink" x="0px" y="0px"
	 width="67.43px" height="38.996px" viewBox="0 0 67.43 38.996" enable-background="new 0 0 67.43 38.996" xml:space="preserve">
<path fill="#1E3E6C" d="M47.032,32.042c-4.236,0-8.437,0.006-12.637-0.01c-0.484-0.002-0.514,0.293-0.626,0.627
	c-1.051,3.149-3.188,5.073-6.503,5.523c-3.672,0.499-7.106-1.702-8.29-5.217c-0.1-0.295-0.196-0.592-0.312-0.939
	c-1.98,0-3.94,0-5.945,0c0-1.178,0-2.291,0-3.472c2.042,0,4.055,0,5.792,0c0.827-1.259,1.399-2.476,2.277-3.405
	c3.887-4.107,10.707-2.711,12.724,2.574c0.253,0.665,0.565,0.831,1.239,0.824c4.068-0.035,8.14-0.021,12.21-0.024
	c0.051,0,0.103-0.017,0.202-0.036c0.112-0.289,0.222-0.607,0.358-0.912c1.374-3.041,3.738-4.744,7.062-4.789
	c3.29-0.045,5.699,1.566,7.141,4.541c0.618,1.274,0.589,1.289,2.184,1.148c0-0.236,0-0.486,0-0.736c0-2.39-0.017-4.779,0.013-7.169
	c0.006-0.511-0.119-0.862-0.586-1.073c-0.023-0.01-0.045-0.027-0.064-0.044c-1.965-1.808-4.253-2.301-6.914-2.197
	c-4.798,0.187-9.607,0.054-14.413,0.052c-1.784,0-2.342-0.563-2.343-2.36c-0.001-3.466,0-6.932,0-10.399c0-0.308,0-0.616,0-1.01
	c-9.003,0-17.914,0-26.877,0c0-1.199,0-2.312,0-3.525c0.294,0,0.574,0,0.854,0c12.63,0,25.26,0.008,37.89-0.016
	c1.041-0.002,1.706,0.375,2.251,1.247c2.601,4.16,5.236,8.299,7.88,12.431c0.245,0.384,0.597,0.73,0.968,0.996
	c1.28,0.917,2.583,1.803,3.894,2.676c0.673,0.449,0.973,1.035,0.969,1.849c-0.019,3.624-0.001,7.247-0.012,10.871
	c-0.003,1.335-0.649,1.958-1.998,1.972c-0.814,0.006-1.629,0.025-2.441-0.008c-0.497-0.023-0.701,0.127-0.867,0.637
	c-1.027,3.158-3.182,5.07-6.499,5.518c-3.714,0.5-7.2-1.786-8.34-5.379C47.196,32.562,47.119,32.314,47.032,32.042z M57.293,13.732
	c-0.195-0.312-0.325-0.531-0.466-0.742c-1.711-2.547-3.528-5.03-5.095-7.664c-0.867-1.459-1.858-1.991-3.515-1.835
	c-1.658,0.155-3.342,0.034-5.045,0.034c0,3.45,0,6.816,0,10.207C47.865,13.732,52.506,13.732,57.293,13.732z M26.323,26.313
	c-2.343,0-4.195,1.843-4.204,4.183c-0.01,2.342,1.832,4.209,4.166,4.225c2.377,0.015,4.254-1.852,4.245-4.223
	C30.522,28.162,28.664,26.313,26.323,26.313z M54.682,26.313c-2.344,0.001-4.192,1.845-4.2,4.188
	c-0.007,2.345,1.832,4.205,4.167,4.219c2.375,0.014,4.25-1.855,4.241-4.229C58.881,28.158,57.022,26.311,54.682,26.313z"/>
<path fill="#1E3E6C" d="M15.39,15.195c0,1.15,0,2.261,0,3.414c-5.145,0-10.243,0-15.39,0c0-1.134,0-2.247,0-3.414
	C5.125,15.195,10.241,15.195,15.39,15.195z"/>
<path fill="#1E3E6C" d="M20.28,7.663c0,1.134,0,2.247,0,3.399c-4.042,0-8.035,0-12.07,0c0-1.146,0-2.238,0-3.399
	C12.221,7.663,16.236,7.663,20.28,7.663z"/>
<path fill="#1E3E6C" d="M3.95,21.494c2.983,0,5.938,0,8.958,0c0,1.11,0,2.223,0,3.398c-2.971,0-5.94,0-8.958,0
	C3.95,23.767,3.95,22.653,3.95,21.494z"/>
</svg>
