<?xml version="1.0" encoding="utf-8"?>
<!-- Generator: Adobe Illustrator 16.2.0, SVG Export Plug-In . SVG Version: 6.00 Build 0)  -->
<!DOCTYPE svg PUBLIC "-//W3C//DTD SVG 1.0//EN" "http://www.w3.org/TR/2001/REC-SVG-20010904/DTD/svg10.dtd">
<svg version="1.0" id="Layer_1" xmlns="http://www.w3.org/2000/svg" xmlns:xlink="http://www.w3.org/1999/xlink" x="0px" y="0px"
	 width="66.96px" height="57.6px" viewBox="0 0 66.96 57.6" enable-background="new 0 0 66.96 57.6" xml:space="preserve">
<g>
	<path fill-rule="evenodd" clip-rule="evenodd" fill="#737373" d="M-74.784-98.267c-26.88,0-53.76,0-80.64,0
		c-0.88-0.96-1.76-1.92-2.64-2.88c0-36.48,0-72.96,0-109.44c0.88-0.96,1.76-1.92,2.64-2.88c20.08,0,40.16,0,60.24,0
		c0.01,7.989,0.04,15.979,0.004,23.967c-0.004,1.073,0.317,1.346,1.356,1.339c7.071-0.041,14.142-0.02,21.213-0.025
		c0.316,0,0.631-0.053,0.947-0.082c0,29.04,0,58.08,0,87.12C-72.704-100.187-73.744-99.227-74.784-98.267z M-114.847-170.353
		c-1.758,0-3.517,0-5.276,0c-8.633,0-17.266,0.017-25.899-0.022c-1.055-0.005-1.413,0.288-1.351,1.354
		c0.087,1.474,0.022,2.956,0.022,4.435c0,1.603,0.001,1.604,1.653,1.604c20.543,0,41.087,0,61.63,0c0.24,0,0.481-0.02,0.719,0.002
		c0.722,0.065,0.997-0.243,0.98-0.973c-0.036-1.638-0.098-3.283,0.016-4.914c0.089-1.268-0.387-1.517-1.561-1.512
		C-94.223-170.334-104.535-170.353-114.847-170.353z M-114.847-148.581c10.352,0,20.704-0.013,31.055,0.02
		c1.057,0.003,1.52-0.222,1.439-1.386c-0.103-1.471-0.025-2.956-0.025-4.435c0-1.567-0.001-1.57-1.567-1.57
		c-14.188-0.001-28.377,0-42.566,0c-6.475,0-12.95,0.021-19.424-0.02c-1.057-0.007-1.519,0.222-1.439,1.386
		c0.103,1.512,0.099,3.041,0.002,4.553c-0.075,1.166,0.316,1.481,1.472,1.477C-135.551-148.599-125.199-148.581-114.847-148.581z
		 M-114.87-134.181c2.718,0,5.436,0,8.153,0c7.674,0,15.348-0.02,23.021,0.022c1.07,0.006,1.401-0.316,1.338-1.365
		c-0.083-1.394-0.021-2.796-0.021-4.195c0-1.832,0-1.833-1.784-1.833c-20.464,0-40.927,0-61.391,0c-0.28,0-0.562,0.022-0.839-0.002
		c-0.734-0.065-0.984,0.267-0.969,0.984c0.035,1.598,0.01,3.197,0.011,4.796c0,1.59,0.001,1.593,1.545,1.593
		C-135.494-134.181-125.182-134.181-114.87-134.181z M-114.784-127.152c-10.392,0-20.783,0.015-31.175-0.022
		c-1.097-0.004-1.485,0.289-1.414,1.411c0.094,1.473,0.022,2.956,0.023,4.435c0.001,1.544,0.001,1.547,1.591,1.547
		c17.106,0.001,34.212,0,51.319,0c3.637,0,7.274-0.022,10.911,0.016c0.882,0.009,1.202-0.265,1.168-1.164
		c-0.061-1.596-0.094-3.202,0.008-4.794c0.077-1.199-0.374-1.456-1.496-1.452C-94.161-127.136-104.472-127.152-114.784-127.152z"/>
	<path fill-rule="evenodd" clip-rule="evenodd" fill="#737373" d="M-87.691-213.109c5.335,5.928,10.446,11.607,15.718,17.465
		c-5.381,0-10.505,0-15.718,0C-87.691-201.377-87.691-207.084-87.691-213.109z"/>
</g>
<g>
	<path fill-rule="evenodd" clip-rule="evenodd" fill="#737373" d="M-10.2-101.147c0-30.08,0-60.16,0-90.24
		c0.22-0.212,0.511-0.386,0.647-0.643c0.75-1.421,1.979-2.095,3.51-2.116c3.719-0.051,7.438-0.007,11.158-0.032
		c0.77-0.005,1.048,0.247,1.03,1.048c-0.052,2.238-0.032,4.479-0.02,6.718c0.01,2.001,1.197,3.22,3.176,3.22
		c16.277,0.007,32.554,0.007,48.83,0c1.961-0.001,3.172-1.24,3.184-3.224c0.013-2.24,0.021-4.479-0.015-6.719
		c-0.011-0.686,0.137-1.046,0.909-1.042c3.839,0.024,7.679-0.032,11.517,0.05c1.375,0.029,2.502,0.732,3.212,1.997
		c0.162,0.288,0.465,0.497,0.703,0.741c0,30.08,0,60.16,0,90.24c-0.96,0.96-1.92,1.92-2.88,2.88c-27.36,0-54.72,0-82.08,0
		c-0.761-0.789-1.519-1.582-2.286-2.365C-9.788-100.818-10.001-100.976-10.2-101.147z M42.599-129.927
		c-5.237,0-10.475-0.009-15.711,0.005c-1.808,0.005-3.018,1.169-3.028,2.844c-0.011,1.689,1.192,2.914,2.963,2.916
		c10.514,0.013,21.029,0.011,31.543-0.009c0.496,0,1.05-0.115,1.477-0.355c1.257-0.707,1.782-2.065,1.409-3.379
		c-0.33-1.159-1.542-2.013-2.94-2.016C53.073-129.93,47.836-129.924,42.599-129.927z M42.688-165.62
		c-5.277,0-10.554-0.009-15.83,0.005c-1.79,0.005-3.001,1.195-3.001,2.876c0,1.678,1.21,2.879,2.997,2.881
		c10.473,0.012,20.947,0.012,31.42-0.009c0.535-0.001,1.133-0.117,1.592-0.374c1.262-0.708,1.768-2.074,1.375-3.389
		c-0.335-1.122-1.525-1.981-2.843-1.984C53.162-165.625,47.925-165.619,42.688-165.62z M42.522-141.996
		c5.277,0,10.554,0.011,15.832-0.006c1.745-0.006,2.976-1.243,2.975-2.903c-0.001-1.664-1.223-2.854-3.006-2.855
		c-10.475-0.01-20.949-0.011-31.423,0.009c-0.536,0.001-1.136,0.108-1.594,0.366c-1.247,0.702-1.726,2.055-1.328,3.401
		c0.338,1.142,1.492,1.979,2.833,1.983C32.048-141.988,37.285-141.996,42.522-141.996z M10.292-122.786
		c2.399,0.023,4.306-1.795,4.341-4.139c0.037-2.455-1.808-4.362-4.228-4.371c-2.391-0.009-4.262,1.828-4.277,4.197
		C6.113-124.701,7.94-122.809,10.292-122.786z M6.128-144.875c0.005,2.38,1.857,4.236,4.234,4.243
		c2.429,0.007,4.292-1.882,4.272-4.332c-0.019-2.354-1.908-4.187-4.301-4.175C7.963-149.127,6.123-147.261,6.128-144.875z
		 M10.4-158.482c2.373-0.004,4.227-1.863,4.233-4.244c0.006-2.38-1.841-4.245-4.217-4.255c-2.445-0.011-4.302,1.851-4.289,4.298
		C6.141-160.318,8.013-158.478,10.4-158.482z"/>
	<path fill-rule="evenodd" clip-rule="evenodd" fill="#737373" d="M36.6-213.467c0.745,0.241,1.483,0.507,2.235,0.72
		c2.724,0.773,5.503,1.603,6.688,4.484c0.502,1.222,0.355,2.732,0.4,4.115c0.056,1.737,0.01,1.741,1.714,1.742
		c2.279,0.002,4.558,0.025,6.836-0.011c0.82-0.013,1.109,0.242,1.099,1.104c-0.044,3.757-0.045,7.516,0.002,11.273
		c0.011,0.874-0.301,1.094-1.108,1.093c-13.833-0.015-27.665-0.016-41.498,0c-0.815,0.001-1.112-0.234-1.101-1.1
		c0.046-3.757,0.046-7.516,0-11.273c-0.011-0.87,0.293-1.109,1.106-1.097c2.358,0.034,4.719-0.042,7.076,0.034
		c1.186,0.038,1.51-0.404,1.482-1.533c-0.035-1.386-0.122-2.853,0.269-4.148c0.649-2.156,2.559-3.188,4.533-3.953
		c1.032-0.4,2.149-0.58,3.216-0.897c0.446-0.133,0.862-0.366,1.292-0.553C32.76-213.467,34.68-213.467,36.6-213.467z"/>
</g>
<g>
	<path fill-rule="evenodd" clip-rule="evenodd" fill="#FFFFFF" d="M263.947-98.627c-38.174,0-76.288,0-114.411,0
		c0-38.148,0-76.297,0-114.462c38.133,0,76.276,0,114.411,0C263.947-174.947,263.947-136.787,263.947-98.627z"/>
</g>
<g>
	<path fill-rule="evenodd" clip-rule="evenodd" fill="#737373" d="M-146.904,2.76c10.88,0,21.76,0,32.64,0
		c2.355,0.971,2.703,1.5,2.703,4.152c0.001,9.958,0.001,19.917,0,29.875c0,1.926-0.056,1.981-1.938,1.981
		c-11.358,0-22.716,0-34.074,0c-1.958,0-2.104-0.144-2.104-2.108c-0.001-9.878-0.001-19.757,0-29.635
		C-149.677,4.398-149.24,3.728-146.904,2.76z"/>
	<path fill-rule="evenodd" clip-rule="evenodd" fill="#737373" d="M-77.304,46.68c-0.643,0.231-1.278,0.637-1.928,0.661
		c-2.236,0.083-4.477,0.013-6.715,0.044c-0.688,0.009-1.048-0.121-1.235-0.903c-0.903-3.794-4.578-6.668-8.477-6.729
		c-3.809-0.059-7.548,2.697-8.573,6.441c-0.263,0.959-0.66,1.214-1.624,1.204c-4.957-0.054-9.914-0.043-14.871-0.007
		c-0.814,0.006-1.083-0.237-1.376-1.029c-0.528-1.429-1.359-2.746-2.083-4.146c5.122,0,10.438,0,15.937,0c0-0.597,0-1.058,0-1.519
		c0-9.434-0.001-18.869,0-28.303c0-2.292,0.619-2.908,2.915-2.911c2.958-0.003,5.917-0.004,8.875-0.004
		c3.229,0,5.775,1.29,7.593,3.991c2.027,3.013,4.084,6.006,6.114,9.018c1.096,1.626,1.665,3.401,1.644,5.396
		c-0.045,4.277-0.014,8.555-0.014,12.832c0,0.429,0,0.858,0,1.075c1.39,0.382,2.603,0.714,3.817,1.048
		C-77.304,44.12-77.304,45.4-77.304,46.68z M-95.733,24.834c2.116,0,4.234,0.042,6.348-0.033c0.478-0.017,1.125-0.333,1.354-0.716
		c0.188-0.313,0.008-1.023-0.246-1.396c-1.549-2.272-3.123-4.532-4.794-6.716c-0.369-0.482-1.153-0.875-1.764-0.902
		c-2.352-0.104-4.71-0.054-7.066-0.038c-1.236,0.009-1.685,0.416-1.705,1.635c-0.036,2.156-0.033,4.313-0.002,6.468
		c0.019,1.297,0.451,1.688,1.767,1.695C-99.806,24.844-97.77,24.835-95.733,24.834z"/>
	<path fill-rule="evenodd" clip-rule="evenodd" fill="#737373" d="M-131.304,55.32c-1.052-0.435-2.211-0.711-3.137-1.334
		c-2.575-1.731-3.407-5.047-2.15-7.946c1.181-2.726,4.242-4.272,7.292-3.685c2.938,0.566,5.167,3.277,5.192,6.316
		c0.025,3.09-2.116,5.735-5.206,6.433c-0.267,0.06-0.528,0.143-0.792,0.216C-130.504,55.32-130.904,55.32-131.304,55.32z
		 M-127.229,48.75c0.009-1.892-1.487-3.439-3.362-3.477c-1.876-0.038-3.536,1.611-3.51,3.488c0.025,1.855,1.598,3.398,3.46,3.395
		C-128.75,52.152-127.239,50.644-127.229,48.75z"/>
	<path fill-rule="evenodd" clip-rule="evenodd" fill="#737373" d="M-96.264,55.32c-1.632-0.411-3.19-0.918-4.361-2.267
		c-1.914-2.203-2.209-5.288-0.661-7.767c1.534-2.455,4.496-3.605,7.266-2.822c2.86,0.809,4.731,3.227,4.76,6.15
		c0.032,3.285-2.115,5.893-5.358,6.517c-0.232,0.044-0.458,0.125-0.686,0.189C-95.624,55.32-95.944,55.32-96.264,55.32z
		 M-92.352,48.786c0.023-1.9-1.436-3.45-3.309-3.514c-1.89-0.064-3.504,1.526-3.505,3.455c-0.001,1.905,1.488,3.412,3.387,3.429
		C-93.883,52.172-92.375,50.689-92.352,48.786z"/>
	<path fill-rule="evenodd" clip-rule="evenodd" fill="#737373" d="M-152.424,43.08c0.548-0.31,1.093-0.88,1.646-0.889
		c4.588-0.072,9.178-0.041,13.735-0.041c-0.9,1.679-1.797,3.353-2.798,5.22c-3.527,0-7.353,0.032-11.177-0.041
		c-0.475-0.009-0.938-0.579-1.407-0.889C-152.424,45.32-152.424,44.2-152.424,43.08z"/>
</g>
<g>
	<path fill-rule="evenodd" clip-rule="evenodd" fill="#737373" d="M0.24,39.84c1.032-0.236,2.058-0.515,3.1-0.699
		c1.795-0.318,3.601-0.582,5.403-0.859c1.413-0.217,2.837-0.374,4.24-0.642c1.983-0.379,3.935-1.006,5.932-1.216
		c2.229-0.234,4.511-0.309,6.737-0.101c2.199,0.205,4.369,0.802,6.53,1.318c1.225,0.292,2.447,0.675,3.593,1.188
		c1.05,0.47,1.271,1.674,0.683,2.773c-1.014,1.898-2.749,2.828-4.697,3.431c-2.008,0.621-4.039,0.885-6.088,0.132
		c-0.112-0.041-0.282,0.075-0.632,0.179c0.34,0.413,0.537,0.893,0.864,1.009c1.703,0.604,3.407,1.394,5.171,1.601
		c3.21,0.378,5.852-1.072,7.767-3.575c1.138-1.488,2.492-2.022,4.254-2.15c1.372-0.1,2.722-0.487,4.083-0.736
		c0.976-0.178,1.953-0.351,2.934-0.504c3.993-0.625,7.979-1.311,11.985-1.835c1.924-0.251,3.634,0.338,4.688,2.171
		c0.063,0.109,0.271,0.133,0.413,0.197c0,0.32,0,0.64,0,0.96c-0.752,0.78-1.378,1.788-2.283,2.294
		c-1.933,1.08-4.004,1.916-6.031,2.825c-6.147,2.756-12.293,5.513-18.455,8.236c-1.479,0.654-2.976,1.499-4.534,1.694
		c-3.042,0.382-6.115,0.215-9.043-0.931c-3.498-1.369-7.065-2.586-10.475-4.147c-2.356-1.079-4.633-1.972-7.281-1.679
		c-1.265,0.14-2.562,0.1-3.834,0.006c-0.41-0.03-1.012-0.408-1.146-0.769c-0.953-2.553-1.738-5.169-2.739-7.702
		c-0.265-0.671-0.035-1.758-1.139-1.987C0.24,40.16,0.24,40,0.24,39.84z"/>
	<path fill-rule="evenodd" clip-rule="evenodd" fill="#737373" d="M33.607,0.406c6.475,0,12.949,0.021,19.423-0.02
		c1.124-0.007,1.547,0.312,1.511,1.488c-0.079,2.516-0.043,5.035-0.01,7.553c0.009,0.731-0.137,1.237-0.942,1.379
		c-0.751,0.133-0.853,0.652-0.849,1.337c0.027,5.275,0.021,10.551,0.019,15.827c0,0.357,0,0.725-0.078,1.069
		c-0.374,1.631-0.65,1.868-2.303,2.021c-0.396,0.037-0.798,0.036-1.197,0.036c-10.312,0.002-20.623,0.001-30.934,0.001
		c-0.16,0-0.32,0.001-0.479,0c-2.471-0.024-3.087-0.646-3.088-3.13c-0.001-5.236-0.011-10.472,0.016-15.707
		c0.004-0.767-0.088-1.352-0.969-1.497c-0.71-0.116-0.815-0.605-0.811-1.23c0.02-2.558,0.065-5.117-0.017-7.672
		c-0.039-1.197,0.424-1.479,1.525-1.473C20.818,0.425,27.212,0.406,33.607,0.406z M33.717,7.854c0.917,0,1.833,0.017,2.749-0.004
		c1.351-0.031,2.165-0.828,2.214-2.128c0.05-1.302-0.807-2.433-2.03-2.474c-1.949-0.065-3.904-0.064-5.853,0
		c-1.224,0.04-2.084,1.168-2.037,2.468c0.048,1.306,0.857,2.102,2.208,2.134C31.884,7.871,32.801,7.854,33.717,7.854z"/>
</g>
<image overflow="visible" width="164" height="200" xlink:href="D7163BC2.jpg"  transform="matrix(0.24 0 0 0.24 149.2866 4.8003)">
</image>
<image overflow="visible" width="165" height="216" xlink:href="D7163BC6.jpg"  transform="matrix(0.24 0 0 0.24 253.814 2.8804)">
</image>
<image overflow="visible" width="233" height="161" xlink:href="D7163BC1.jpg"  transform="matrix(0.24 0 0 0.24 368.0601 9.4805)">
</image>
<image overflow="visible" width="240" height="124" xlink:href="D7163BC3.jpg"  transform="matrix(0.24 0 0 0.24 473.8774 18.3604)">
</image>
</svg>
