<?xml version="1.0" encoding="utf-8"?>
<!-- Generator: Adobe Illustrator 16.2.0, SVG Export Plug-In . SVG Version: 6.00 Build 0)  -->
<!DOCTYPE svg PUBLIC "-//W3C//DTD SVG 1.0//EN" "http://www.w3.org/TR/2001/REC-SVG-20010904/DTD/svg10.dtd">
<svg version="1.0" id="Layer_1" xmlns="http://www.w3.org/2000/svg" xmlns:xlink="http://www.w3.org/1999/xlink" x="0px" y="0px"
	 width="114.48px" height="114.84px" viewBox="0 0 114.48 114.84" enable-background="new 0 0 114.48 114.84" xml:space="preserve">
<g>
	<path fill="#FFD64A" d="M61.498,39.003c3.191,0.212,6.438,0.126,9.563,0.697c7.016,1.279,12.014,5.532,15.688,11.496
		c2.101,3.407,3.191,7.218,4.457,10.958c1.68,4.963,3.333,9.935,5.006,14.9c1.745,5.18,0.285,10.75-3.838,14.307
		c-0.721,0.623-1.617,1.072-2.492,1.471c-0.467,0.213-0.785,0.377-0.67,0.917c0.405,1.876-0.537,2.667-2.188,3.41
		c-8.21,3.696-16.354,7.541-24.51,11.358c-0.678,0.316-1.214,0.358-1.917,0.03c-8.646-4.028-17.306-8.028-25.977-12.003
		c-0.7-0.32-1.062-0.675-0.935-1.459c0.217-1.333-0.239-2.011-1.581-2.703c-3.353-1.73-5.078-4.844-5.9-8.441
		c-0.516-2.252-0.323-4.506,0.407-6.692c2.247-6.724,4.462-13.46,6.796-20.154c2.139-6.133,5.692-11.238,11.33-14.696
		c3.396-2.084,7.118-3.099,11.09-3.187c1.885-0.042,3.771-0.007,5.656-0.007C61.49,39.137,61.494,39.07,61.498,39.003z
		 M63.328,104.077c0.233-0.063,0.386-0.082,0.52-0.144c7.086-3.287,14.172-6.576,21.249-9.886c0.228-0.106,0.354-0.429,0.529-0.651
		c-0.231-0.166-0.44-0.397-0.698-0.487c-5.166-1.78-6.854-8.044-3.207-12.118c0.784-0.877,1.744-1.633,2.728-2.291
		c0.905-0.605,1.237-1.279,1.217-2.385c-0.076-4.083-0.029-8.17-0.029-12.254c0-0.338,0-0.678,0-1.114
		c-0.42,0.17-0.738,0.285-1.045,0.427c-6.801,3.159-13.594,6.334-20.407,9.463c-0.694,0.317-0.872,0.691-0.87,1.41
		c0.023,9.678,0.017,19.355,0.017,29.035C63.328,103.389,63.328,103.695,63.328,104.077z M37.266,62.686
		c0,3.826-0.005,7.467,0.003,11.109c0.002,1.254-0.324,2.678,0.161,3.715c0.448,0.957,1.815,1.463,2.721,2.237
		c2.261,1.935,3.365,4.36,2.825,7.358c-0.511,2.824-2.169,4.732-4.86,5.752c-0.31,0.117-0.563,0.381-0.843,0.576
		c0.271,0.254,0.503,0.601,0.824,0.75c6.911,3.211,13.835,6.402,20.756,9.596c0.264,0.121,0.537,0.225,0.847,0.354
		c0.028-0.229,0.05-0.32,0.05-0.412c0.001-9.992-0.005-19.982,0.02-29.973c0.001-0.6-0.272-0.805-0.735-1.018
		c-4.249-1.947-8.491-3.91-12.734-5.869C43.342,65.497,40.387,64.129,37.266,62.686z M83.133,59.91
		c-3.136-1.411-6.056-2.704-8.951-4.046c-0.552-0.255-0.962-0.206-1.481,0.054c-4.566,2.292-9.146,4.557-13.724,6.83
		c-2.047,1.018-4.095,2.037-6.238,3.104c0.365,0.188,0.631,0.336,0.905,0.463c2.333,1.078,4.682,2.125,6.993,3.246
		c0.667,0.324,1.191,0.276,1.831-0.023c5.478-2.57,10.966-5.115,16.449-7.667C80.246,61.251,81.576,60.635,83.133,59.91z
		 M69.186,53.642c-2.354-1.063-4.583-2.042-6.784-3.081c-0.632-0.298-1.14-0.269-1.764,0.013
		c-6.548,2.951-13.106,5.872-19.661,8.804c-0.327,0.146-0.646,0.313-1.091,0.532c0.431,0.222,0.723,0.386,1.025,0.525
		c2.277,1.053,4.567,2.078,6.829,3.164c0.572,0.274,1.006,0.254,1.568-0.029c6.309-3.159,12.633-6.291,18.95-9.431
		C68.533,54.004,68.796,53.852,69.186,53.642z"/>
	<path fill="#FFD64A" d="M48.189,94.492c0.315,0.111,0.631,0.221,1.104,0.388c0-1.358,0-2.631,0-3.903c0-0.502,0-1.006,0-1.508
		c-0.001-1.078-0.001-1.078-0.959-1.703c0.618-0.666,1.225-1.318,1.899-2.047c0.646,1.28,1.246,2.471,1.903,3.773
		c-0.343-0.051-0.563-0.083-0.906-0.135c0,2.09-0.006,4.146,0.013,6.203c0.002,0.143,0.153,0.348,0.288,0.414
		c0.919,0.455,1.852,0.879,2.92,1.377c0-2.188,0.034-4.215-0.035-6.24c-0.011-0.313-0.493-0.609-0.848-1.016
		c0.521-0.572,1.118-1.228,1.809-1.984c0.66,1.307,1.273,2.521,1.964,3.888c-0.396-0.123-0.641-0.198-0.98-0.306
		c0,2.092-0.021,4.094,0.024,6.095c0.007,0.248,0.313,0.599,0.563,0.709c0.6,0.261,0.698,0.633,0.454,1.259
		c-1.979-0.917-3.936-1.824-5.893-2.734c-0.909-0.422-1.806-0.879-2.731-1.262C48.174,95.51,47.936,95.161,48.189,94.492z"/>
	<circle fill="#FFD64A" cx="61.426" cy="20.69" r="14.625"/>
</g>
</svg>
