<?xml version="1.0" encoding="utf-8"?>
<!-- Generator: Adobe Illustrator 16.2.0, SVG Export Plug-In . SVG Version: 6.00 Build 0)  -->
<!DOCTYPE svg PUBLIC "-//W3C//DTD SVG 1.0//EN" "http://www.w3.org/TR/2001/REC-SVG-20010904/DTD/svg10.dtd">
<svg version="1.0" id="Layer_1" xmlns="http://www.w3.org/2000/svg" xmlns:xlink="http://www.w3.org/1999/xlink" x="0px" y="0px"
	 width="55.92px" height="38.641px" viewBox="0 0 55.92 38.641" enable-background="new 0 0 55.92 38.641" xml:space="preserve">
<g>
	<path fill="#737373" d="M0.24,18.719c0.13-0.532,0.263-1.064,0.39-1.599c0.841-3.563,4.171-6.213,7.842-6.231
		c1.52-0.009,3.043-0.071,4.557,0.021c1.135,0.069,1.657-0.268,1.473-1.448c-0.035-0.229-0.005-0.47-0.005-1.004
		c2.361,1.352,4.541,2.599,6.981,3.994c-2.392,1.375-4.572,2.629-6.906,3.971c-0.053-0.843-0.094-1.499-0.138-2.193
		c-2.367,0-4.741-0.27-7.022,0.071c-2.489,0.373-4.016,2.772-3.751,5.078c0.324,2.831,2.28,4.6,5.269,4.667
		c2.317,0.053,4.637,0.012,6.956,0.015c1.539,0.002,1.539,0.004,1.539,1.596c0,0.28,0.096,0.616-0.025,0.826
		c-0.176,0.307-0.51,0.747-0.774,0.745c-3.072-0.018-6.156,0.041-9.212-0.214c-3.556-0.298-6.396-3.269-6.869-6.792
		C0.496,19.873,0.344,19.54,0.24,19.2C0.24,19.04,0.24,18.88,0.24,18.719z"/>
	<path fill="#737373" d="M27.383,19.507c0-5.755-0.003-11.511,0.002-17.266c0.002-1.639,0.145-1.793,1.774-1.795
		c5.875-0.01,11.75,0.014,17.626-0.021c1.017-0.006,1.427,0.27,1.382,1.355c-0.08,1.955,0.027,3.918-0.043,5.874
		c-0.038,1.027,0.355,1.317,1.316,1.29c1.799-0.051,3.599,0.011,5.396-0.023c0.762-0.014,1.068,0.244,1.068,1.033
		c-0.018,9.073-0.02,18.146,0,27.218c0.003,1.201-0.657,1.506-1.674,1.506c-2.758-0.002-5.516,0.004-8.272,0.004
		c-5.556,0.001-11.11,0.004-16.667-0.002c-1.79-0.003-1.906-0.125-1.907-1.903C27.381,31.018,27.383,25.262,27.383,19.507z
		 M41.638,14.549c-3.275,0-6.551,0.043-9.824-0.023c-1.099-0.022-1.233,0.463-1.207,1.362c0.025,0.859-0.024,1.509,1.211,1.498
		c6.55-0.053,13.102-0.053,19.65,0c1.24,0.011,1.178-0.646,1.206-1.502c0.03-0.904-0.116-1.38-1.211-1.357
		C48.188,14.591,44.913,14.549,41.638,14.549z M41.522,22.168c3.315,0,6.633-0.042,9.947,0.024c1.104,0.021,1.229-0.479,1.203-1.371
		c-0.023-0.86,0.028-1.503-1.21-1.493c-6.551,0.056-13.104,0.056-19.653,0c-1.246-0.01-1.175,0.648-1.203,1.499
		c-0.03,0.901,0.115,1.387,1.209,1.365C35.051,22.126,38.288,22.169,41.522,22.168z M41.622,26.973c3.273,0,6.55-0.042,9.822,0.023
		c1.063,0.021,1.277-0.398,1.229-1.333c-0.042-0.839,0.061-1.531-1.191-1.521c-6.549,0.05-13.099,0.05-19.646-0.001
		c-1.211-0.011-1.22,0.599-1.23,1.485c-0.013,0.885,0.082,1.394,1.194,1.37C35.071,26.929,38.349,26.973,41.622,26.973z
		 M41.58,31.775c3.319,0,6.64-0.03,9.957,0.02c0.92,0.015,1.219-0.304,1.126-1.176c-0.079-0.742,0.281-1.649-1.066-1.643
		c-6.638,0.029-13.275,0.029-19.914,0c-1.348-0.007-0.986,0.9-1.064,1.643c-0.094,0.874,0.207,1.189,1.127,1.176
		C35.022,31.745,38.302,31.775,41.58,31.775z"/>
	<path fill="#737373" d="M50.942,0.767c1.707,1.905,3.16,3.527,4.807,5.363c-1.559,0-2.908,0.025-4.256-0.027
		c-0.191-0.009-0.52-0.396-0.526-0.614C50.92,4.032,50.942,2.572,50.942,0.767z"/>
</g>
</svg>
