<?xml version="1.0" encoding="utf-8"?>
<!-- Generator: Adobe Illustrator 16.2.0, SVG Export Plug-In . SVG Version: 6.00 Build 0)  -->
<!DOCTYPE svg PUBLIC "-//W3C//DTD SVG 1.0//EN" "http://www.w3.org/TR/2001/REC-SVG-20010904/DTD/svg10.dtd">
<svg version="1.0" id="Layer_1" xmlns="http://www.w3.org/2000/svg" xmlns:xlink="http://www.w3.org/1999/xlink" x="0px" y="0px"
	 width="26.172px" height="39.115px" viewBox="0 0 26.172 39.115" enable-background="new 0 0 26.172 39.115" xml:space="preserve">
<path fill="#1E3E6C" d="M17.45,0c0.615,0.134,1.246,0.215,1.842,0.41c3.35,1.094,5.564,4.144,5.59,7.715
	c0.019,2.251,0.009,4.504-0.06,6.755c-0.03,1.057-0.229,2.108-0.341,3.164c-0.016,0.155,0,0.341,0.072,0.475
	c2.883,5.376,1.857,11.742-2.612,15.91c-2.181,2.032-4.786,3.154-7.763,3.411c-5.867,0.507-11.286-2.995-13.3-8.379
	c-1.365-3.651-1.132-7.239,0.646-10.713c0.157-0.306,0.216-0.577,0.147-0.922c-0.297-1.523-0.355-3.07-0.37-4.617
	C1.289,11.524,1.289,9.84,1.3,8.156c0.029-4.101,2.898-7.433,6.941-8.074C8.405,0.056,8.571,0.028,8.736,0
	C11.641,0,14.545,0,17.45,0z M13.092,3.985c-1.22,0-2.44-0.003-3.662,0.001C8.69,3.99,7.995,4.172,7.354,4.544
	C5.959,5.352,5.098,7.02,5.34,8.433c0.105,0.611,0.202,1.224,0.308,1.835c0.127,0.734,0.346,1.432,0.844,2.009
	c0.479,0.558,1.02,0.685,1.698,0.419c3.271-1.28,6.543-1.278,9.813,0.002c0.668,0.262,1.22,0.159,1.668-0.405
	c0.257-0.323,0.484-0.699,0.611-1.088c0.186-0.565,0.28-1.162,0.385-1.75c0.094-0.516,0.231-1.043,0.205-1.557
	c-0.115-2.245-1.896-3.901-4.148-3.912C15.513,3.981,14.303,3.985,13.092,3.985z"/>
</svg>
