<?xml version="1.0" encoding="utf-8"?>
<!-- Generator: Adobe Illustrator 16.2.0, SVG Export Plug-In . SVG Version: 6.00 Build 0)  -->
<!DOCTYPE svg PUBLIC "-//W3C//DTD SVG 1.0//EN" "http://www.w3.org/TR/2001/REC-SVG-20010904/DTD/svg10.dtd">
<svg version="1.0" id="Layer_1" xmlns="http://www.w3.org/2000/svg" xmlns:xlink="http://www.w3.org/1999/xlink" x="0px" y="0px"
	 width="57.6px" height="29.76px" viewBox="0 0 57.6 29.76" enable-background="new 0 0 57.6 29.76" xml:space="preserve">
<g>
	<path fill="#737373" d="M0.24,13.44c0.13-0.533,0.264-1.064,0.39-1.598C1.471,8.279,4.801,5.629,8.472,5.61
		c1.521-0.008,3.043-0.071,4.557,0.021c1.136,0.068,1.657-0.268,1.474-1.448c-0.035-0.231-0.005-0.473-0.005-1.005
		c2.36,1.351,4.541,2.598,6.98,3.994c-2.392,1.375-4.572,2.629-6.906,3.971c-0.053-0.842-0.094-1.499-0.138-2.194
		c-2.367,0-4.741-0.269-7.021,0.073C4.923,9.395,3.396,11.794,3.661,14.1c0.323,2.831,2.279,4.6,5.269,4.667
		c2.317,0.053,4.637,0.012,6.956,0.015c1.539,0.001,1.539,0.003,1.539,1.596c0,0.28,0.096,0.615-0.025,0.826
		c-0.176,0.307-0.51,0.747-0.773,0.745c-3.072-0.018-6.156,0.039-9.212-0.215c-3.557-0.297-6.396-3.268-6.869-6.792
		c-0.047-0.347-0.199-0.68-0.303-1.02C0.24,13.76,0.24,13.6,0.24,13.44z"/>
	<path fill="#737373" d="M57.566,24.192c0,1.521-0.019,3.041,0.009,4.561c0.013,0.716-0.272,1.007-0.99,0.998
		c-1.76-0.023-3.521-0.04-5.279,0.008c-0.909,0.025-1.24-0.359-1.154-1.213c0.112-1.117-0.325-1.545-1.509-1.529
		c-4.639,0.059-9.279,0.058-13.918,0c-1.175-0.016-1.629,0.385-1.455,1.517c0.149,0.977-0.309,1.254-1.225,1.228
		c-1.719-0.049-3.44-0.037-5.159-0.005c-0.777,0.015-1.131-0.188-1.165-1.067c-0.229-6.008,0.336-11.944,1.384-17.855
		C27.638,7.814,28,4.763,28.383,1.72c0.111-0.891,0.46-1.222,1.373-1.219C37.675,0.527,45.595,0.529,53.514,0.5
		c0.96-0.003,1.293,0.32,1.426,1.28c0.813,5.838,1.745,11.66,2.522,17.502c0.214,1.609,0.032,3.273,0.032,4.912
		C57.519,24.192,57.542,24.192,57.566,24.192z M31.254,25.004c0.451,0,0.807,0,1.161,0c6.119,0,12.238,0.028,18.357-0.024
		c1.153-0.011,1.637,0.311,1.456,1.476c-0.145,0.935,0.267,1.344,1.213,1.235c0.315-0.035,0.643-0.028,0.959-0.002
		c0.837,0.071,1.149-0.313,1.122-1.129c-0.037-1.08-0.006-2.16-0.008-3.24c-0.003-1.731-0.034-1.769-1.729-1.77
		c-6.881-0.003-13.76-0.001-20.64-0.001c-1.399,0-2.8,0.007-4.2,0.002c-0.633-0.002-1.134,0.169-1.142,0.911
		c-0.015,1.479-0.032,2.96,0.025,4.438c0.011,0.261,0.34,0.658,0.598,0.734c1.914,0.563,2.665-0.007,2.736-1.996
		C31.172,25.481,31.208,25.327,31.254,25.004z M42.659,11.036c0,2.436,0.015,4.872-0.009,7.308
		c-0.009,0.859,0.317,1.233,1.206,1.197c1.196-0.049,2.397-0.058,3.594,0.002c0.915,0.045,1.202-0.323,1.127-1.194
		c-0.184-2.1-0.332-4.204-0.476-6.307c-0.184-2.703-0.343-5.407-0.523-8.11c-0.063-0.921-0.443-1.483-1.507-1.375
		c-0.712,0.072-1.438,0.045-2.154,0.007c-0.934-0.048-1.281,0.37-1.271,1.284C42.678,6.244,42.658,8.64,42.659,11.036z
		 M40.644,11.071c0-1.838,0.018-3.677-0.003-5.515c-0.038-3.388,0.495-2.957-2.991-2.983C35.925,2.56,35.818,2.689,35.7,4.484
		c-0.111,1.712-0.246,3.422-0.368,5.134c-0.202,2.823-0.38,5.647-0.616,8.467c-0.088,1.057,0.182,1.568,1.358,1.464
		c1.07-0.094,2.159-0.075,3.233-0.004c1.075,0.071,1.381-0.372,1.354-1.399C40.603,15.788,40.644,13.429,40.644,11.071z
		 M53.003,19.522c0.479,0,0.958,0.004,1.438-0.002c0.598-0.006,0.854-0.246,0.762-0.898c-0.719-4.965-1.402-9.934-2.118-14.899
		c-0.167-1.163-0.729-1.353-2.641-1.156c-1.09,0.112-0.865,0.877-0.822,1.509c0.3,4.372,0.652,8.74,0.938,13.112
		C50.711,19.526,50.666,19.528,53.003,19.522z M30.318,19.528c2.355,0,2.323,0,2.419-2.334c0.065-1.588,0.249-3.171,0.36-4.758
		c0.205-2.943,0.408-5.887,0.574-8.833c0.017-0.304-0.13-0.771-0.355-0.909c-1.271-0.778-2.945,0.053-3.154,1.509
		c-0.625,4.372-1.245,8.744-1.885,13.112C27.953,19.531,27.938,19.528,30.318,19.528z"/>
</g>
</svg>
