<?xml version="1.0" encoding="utf-8"?>
<!-- Generator: Adobe Illustrator 16.2.0, SVG Export Plug-In . SVG Version: 6.00 Build 0)  -->
<!DOCTYPE svg PUBLIC "-//W3C//DTD SVG 1.0//EN" "http://www.w3.org/TR/2001/REC-SVG-20010904/DTD/svg10.dtd">
<svg version="1.0" id="Layer_1" xmlns="http://www.w3.org/2000/svg" xmlns:xlink="http://www.w3.org/1999/xlink" x="0px" y="0px"
	 width="31.547px" height="36.377px" viewBox="0 0 31.547 36.377" enable-background="new 0 0 31.547 36.377" xml:space="preserve">
<g>
	<g>
		<path fill="#1E3E6C" d="M31.541,12.12c0,2.564-0.005,5.128,0.006,7.691c0.001,0.317-0.092,0.549-0.318,0.764
			c-1.072,1.018-2.396,1.49-3.811,1.746c-2.466,0.443-4.814-0.068-7.083-0.992c-1.024-0.417-2.009-0.953-2.978-1.495
			c-2.678-1.498-5.468-2.238-8.489-1.239c-0.786,0.26-1.5,0.734-2.252,1.102c-0.131,0.063-0.322,0.152-0.418,0.102
			c-0.096-0.051-0.151-0.262-0.151-0.402C6.04,14.312,6.038,9.227,6.053,4.143c0-0.176,0.136-0.414,0.283-0.517
			c2.51-1.766,5.274-2.057,8.158-1.236c1.116,0.317,2.191,0.823,3.229,1.354c2.071,1.06,4.189,1.967,6.496,2.362
			C25.586,6.339,26.952,6.407,28.305,6c1.094-0.329,1.961-0.965,2.645-1.876c0.095-0.127,0.281-0.186,0.427-0.276
			c0.056,0.15,0.159,0.301,0.16,0.451c0.01,2.608,0.007,5.215,0.007,7.822C31.542,12.12,31.542,12.12,31.541,12.12z"/>
		<path fill="#1E3E6C" d="M4.097,36.377c0.04-0.507,0.113-1.002,0.113-1.497c0.007-7.488,0.005-14.979,0.005-22.466
			c0-2.694-0.004-5.388,0.006-8.083C4.223,4.034,4.239,3.699,4.374,3.45c0.127-0.234,0.412-0.508,0.643-0.523
			C5.205,2.915,5.49,3.225,5.598,3.455c0.129,0.274,0.153,0.616,0.156,0.929C5.769,5.876,5.761,7.368,5.761,8.86
			c0,8.648-0.002,17.295,0.006,25.943c0,0.511,0.088,1.022,0.138,1.575C5.296,36.377,4.729,36.377,4.097,36.377z"/>
		<path fill="#1E3E6C" d="M5.859,1.599c0.003,0.474-0.407,0.89-0.882,0.894C4.495,2.498,4.094,2.099,4.09,1.611
			C4.086,1.119,4.474,0.726,4.966,0.724C5.452,0.722,5.856,1.118,5.859,1.599z"/>
		<path fill="#1E3E6C" d="M0,34.569c0.152,0.039,0.3,0.113,0.448,0.113c2.239,0.006,4.479,0.004,6.718,0.004
			c0.806,0,1.611-0.004,2.417,0.006c0.089,0.002,0.189,0.018,0.264,0.152c0.07,0.127,0.152,0.412,0.156,0.643
			c0.004,0.188-0.089,0.474-0.158,0.582c-0.082,0.129-0.184,0.152-0.278,0.156c-0.446,0.015-0.892,0.006-1.338,0.006
			c-2.586,0-5.172-0.002-7.757,0.006c-0.153,0-0.306,0.089-0.471,0.139C0,35.769,0,35.202,0,34.569z"/>
	</g>
</g>
</svg>
