<?xml version="1.0" encoding="utf-8"?>
<!-- Generator: Adobe Illustrator 16.2.0, SVG Export Plug-In . SVG Version: 6.00 Build 0)  -->
<!DOCTYPE svg PUBLIC "-//W3C//DTD SVG 1.0//EN" "http://www.w3.org/TR/2001/REC-SVG-20010904/DTD/svg10.dtd">
<svg version="1.0" id="Layer_1" xmlns="http://www.w3.org/2000/svg" xmlns:xlink="http://www.w3.org/1999/xlink" x="0px" y="0px"
	 width="87.84px" height="114.84px" viewBox="0 0 87.84 114.84" enable-background="new 0 0 87.84 114.84" xml:space="preserve">
<g>
	<path fill="#737373" d="M0.24,112.561c0-30.08,0-60.161,0-90.241c0.22-0.212,0.511-0.386,0.647-0.643
		c0.75-1.421,1.979-2.095,3.51-2.116c3.719-0.051,7.438-0.007,11.158-0.032c0.77-0.005,1.048,0.247,1.03,1.048
		c-0.052,2.238-0.032,4.479-0.02,6.718c0.01,2.001,1.197,3.22,3.176,3.22c16.277,0.007,32.554,0.007,48.829,0
		c1.961-0.001,3.173-1.24,3.185-3.224c0.013-2.24,0.021-4.479-0.015-6.719c-0.012-0.687,0.137-1.046,0.908-1.042
		c3.84,0.024,7.68-0.032,11.518,0.05c1.375,0.029,2.502,0.732,3.212,1.997c0.162,0.288,0.465,0.497,0.703,0.741
		c0,30.08,0,60.161,0,90.241c-0.96,0.959-1.92,1.92-2.88,2.879c-27.36,0-54.72,0-82.08,0c-0.761-0.789-1.519-1.582-2.286-2.364
		C0.652,112.889,0.439,112.73,0.24,112.561z M53.039,83.78c-5.236,0-10.475-0.009-15.711,0.005
		c-1.808,0.005-3.018,1.169-3.028,2.844c-0.011,1.689,1.192,2.914,2.963,2.916c10.514,0.014,21.029,0.012,31.543-0.009
		c0.496,0,1.049-0.115,1.477-0.354c1.257-0.707,1.781-2.065,1.408-3.38c-0.33-1.159-1.541-2.013-2.939-2.016
		C63.514,83.777,58.275,83.783,53.039,83.78z M53.128,48.087c-5.276,0-10.554-0.009-15.83,0.005
		c-1.79,0.005-3.001,1.195-3.001,2.876c0,1.678,1.21,2.879,2.997,2.881c10.474,0.012,20.947,0.012,31.42-0.009
		c0.535-0.001,1.134-0.117,1.593-0.374c1.262-0.708,1.768-2.074,1.375-3.389c-0.336-1.122-1.525-1.981-2.844-1.984
		C63.602,48.082,58.365,48.088,53.128,48.087z M52.962,71.711c5.276,0,10.554,0.012,15.832-0.006
		c1.745-0.006,2.976-1.243,2.976-2.903c-0.002-1.663-1.224-2.854-3.006-2.854c-10.476-0.01-20.949-0.012-31.424,0.009
		c-0.536,0.001-1.136,0.108-1.594,0.366c-1.247,0.701-1.726,2.055-1.328,3.4c0.338,1.143,1.492,1.979,2.833,1.983
		C42.488,71.719,47.725,71.711,52.962,71.711z M20.731,90.921c2.399,0.022,4.306-1.795,4.341-4.139
		c0.037-2.455-1.808-4.362-4.228-4.371c-2.391-0.009-4.262,1.828-4.277,4.196C16.553,89.006,18.38,90.898,20.731,90.921z
		 M16.568,68.832c0.005,2.38,1.857,4.236,4.234,4.243c2.429,0.007,4.292-1.882,4.272-4.332c-0.019-2.354-1.908-4.187-4.301-4.175
		C18.403,64.58,16.563,66.445,16.568,68.832z M20.84,55.225c2.373-0.004,4.227-1.863,4.233-4.244
		c0.006-2.38-1.841-4.245-4.217-4.255c-2.445-0.011-4.302,1.851-4.289,4.298C16.581,53.389,18.453,55.229,20.84,55.225z"/>
	<path fill="#737373" d="M47.04,0.24c0.745,0.241,1.483,0.507,2.235,0.72C52,1.734,54.779,2.563,55.963,5.444
		c0.502,1.222,0.355,2.732,0.4,4.115c0.056,1.737,0.01,1.741,1.714,1.742c2.278,0.002,4.558,0.025,6.836-0.011
		c0.819-0.013,1.108,0.242,1.099,1.104c-0.043,3.757-0.045,7.516,0.002,11.273c0.012,0.874-0.301,1.094-1.107,1.093
		c-13.834-0.015-27.665-0.016-41.498,0c-0.815,0.001-1.112-0.234-1.101-1.1c0.046-3.757,0.046-7.516,0-11.273
		c-0.011-0.87,0.293-1.109,1.106-1.097c2.358,0.034,4.719-0.042,7.076,0.034c1.186,0.038,1.51-0.404,1.482-1.533
		c-0.035-1.386-0.122-2.853,0.269-4.148c0.649-2.156,2.559-3.188,4.533-3.953c1.032-0.4,2.149-0.58,3.216-0.897
		c0.446-0.133,0.862-0.366,1.292-0.553C43.2,0.24,45.12,0.24,47.04,0.24z"/>
</g>
</svg>
