<?xml version="1.0" encoding="utf-8"?>
<!-- Generator: Adobe Illustrator 16.2.0, SVG Export Plug-In . SVG Version: 6.00 Build 0)  -->
<!DOCTYPE svg PUBLIC "-//W3C//DTD SVG 1.0//EN" "http://www.w3.org/TR/2001/REC-SVG-20010904/DTD/svg10.dtd">
<svg version="1.0" id="Layer_1" xmlns="http://www.w3.org/2000/svg" xmlns:xlink="http://www.w3.org/1999/xlink" x="0px" y="0px"
	 width="168.979px" height="213.416px" viewBox="0 0 168.979 213.416" enable-background="new 0 0 168.979 213.416"
	 xml:space="preserve">
<g>
	<path d="M1,2.182c55.66,0,111.319,0,166.979,0c0.085,1.994,0.243,3.988,0.244,5.981c0.014,51.787,0.012,103.574,0.009,155.361
		c0,6.853-0.01,6.867-6.812,6.867c-51.287,0.004-102.575,0.004-153.862,0c-6.801,0-6.811-0.017-6.812-6.867
		C0.744,111.737,0.743,59.95,0.756,8.163C0.757,6.169,0.915,4.175,1,2.182z M166.724,86.426c0-25.816-0.088-51.634,0.089-77.45
		c0.028-4.165-0.735-5.673-5.375-5.657c-51.3,0.186-102.601,0.16-153.9,0.033c-3.985-0.01-5.396,0.791-5.384,5.126
		c0.155,51.8,0.154,103.601,0.002,155.401c-0.013,4.319,1.38,5.156,5.384,5.146c51.301-0.127,102.602-0.153,153.901,0.031
		c4.658,0.018,5.399-1.529,5.371-5.68C166.637,137.728,166.724,112.077,166.724,86.426z"/>
	<path d="M119.985,211.155c-3.802-4.107-2.124-9.174-2.128-13.814c-0.004-3.844-0.993-5.076-4.985-5.033
		c-19.251,0.207-38.507,0.205-57.758,0c-3.982-0.041-4.996,1.174-4.989,5.028c0.008,4.644,1.646,9.706-2.129,13.819
		c-11.332,0-22.664,0-33.996,0c-3.979-4.455-1.895-9.862-2.147-14.844c-0.151-3.004-0.933-4.254-4.002-3.938
		c-2.864,0.295-5.667,0.057-7.849-2.216c0-5.666,0-11.332,0-16.998c1.917-1.875,4.244-2.288,6.858-2.286
		c51.754,0.043,103.509,0.043,155.262-0.001c2.616-0.002,4.938,0.419,6.858,2.287c0,5.666,0,11.332,0,16.998
		c-2.183,2.266-4.992,2.567-7.846,2.204c-3.949-0.502-5.048,1.037-5.027,4.951c0.025,4.647,1.654,9.721-2.125,13.842
		C142.648,211.155,131.317,211.155,119.985,211.155z M84.513,172.418c-23.987,0-47.975,0.003-71.961-0.001
		c-12.732-0.002-11.25-0.902-11.291,11.215c-0.024,7.215,0.042,7.264,7.241,7.264c49.14,0.002,98.281,0,147.421-0.004
		c13.39,0,11.729,1.123,11.792-11.707c0.032-6.539-0.209-6.76-6.743-6.763C135.486,172.413,110,172.419,84.513,172.418z
		 M21.491,192.406c-9.384,0.136-8.152-1.113-8.218,6.516c-0.093,10.976-0.029,10.978,7.976,10.979
		c8.489,0.003,8.489,0.003,8.493-8.502C29.744,192.406,29.744,192.406,21.491,192.406z M32.255,200.575
		c0,1.49,0.03,2.984-0.007,4.475c-0.061,2.358,0.471,4.842,3.182,4.663c4.367-0.288,9.316,2.287,12.979-2.08
		c0.44-0.526,0.286-1.597,0.311-2.418c0.044-1.491,0.018-2.983,0.018-4.475c0.001-8.334,0.001-8.334-8.409-8.334
		C32.25,192.407,32.25,192.407,32.255,200.575z M127.405,192.406c-9.285,0.138-8.083-1.118-8.145,6.589
		c-0.088,10.902-0.028,10.902,8.051,10.906c8.416,0.002,8.416,0.002,8.418-8.577C135.731,192.406,135.731,192.406,127.405,192.406z
		 M138.241,200.469c0,1.492,0.032,2.984-0.008,4.476c-0.062,2.332,0.369,4.884,3.08,4.757c4.388-0.206,9.301,2.187,13.049-1.97
		c0.453-0.502,0.314-1.59,0.343-2.41c0.05-1.49,0.021-2.983,0.021-4.475c0.001-8.439,0.001-8.439-8.304-8.439
		C138.237,192.406,138.237,192.406,138.241,200.469z"/>
	<path fill="none" d="M166.724,86.426c0,25.651-0.087,51.302,0.088,76.951c0.028,4.149-0.712,5.696-5.371,5.681
		c-51.3-0.187-102.601-0.16-153.901-0.031c-4.004,0.01-5.396-0.827-5.384-5.146C2.309,112.08,2.31,60.279,2.154,8.479
		C2.141,4.143,3.552,3.342,7.537,3.352c51.3,0.127,102.601,0.153,153.9-0.033c4.64-0.017,5.403,1.492,5.375,5.657
		C166.636,34.792,166.724,60.609,166.724,86.426z M84.735,91.229c0,21.497-0.014,42.993,0.009,64.487
		c0.007,7.303,2.305,9.678,9.429,9.688c19.83,0.031,39.659,0.029,59.488,0.003c7.221-0.011,9.561-2.337,9.563-9.552
		c0.02-42.826,0.021-85.65-0.001-128.476c-0.003-7.138-2.375-9.436-9.674-9.445c-19.663-0.024-39.325-0.022-58.988-0.001
		c-7.557,0.008-9.811,2.26-9.817,9.808C84.723,48.903,84.735,70.066,84.735,91.229z M84.243,91.926
		c0-21.496,0.018-42.992-0.011-64.488c-0.009-7.18-2.354-9.494-9.614-9.503c-19.663-0.026-39.326-0.022-58.988-0.002
		c-7.6,0.008-9.875,2.245-9.877,9.748c-0.016,42.659-0.016,85.317,0,127.975c0.002,7.51,2.272,9.745,9.869,9.753
		c19.496,0.02,38.992,0.017,58.488,0.001c7.918-0.006,10.121-2.175,10.127-9.996C84.255,134.251,84.243,113.088,84.243,91.926z
		 M84.027,12.435c16.654,0,33.31,0.001,49.962-0.002c1.332,0,2.666-0.002,3.996-0.057c1.043-0.043,2.007-0.288,2.065-1.609
		c0.058-1.306-0.785-1.72-1.891-1.773c-1.163-0.057-2.33-0.063-3.496-0.063c-33.476-0.003-66.95-0.003-100.426,0
		c-1.166,0-2.333,0.005-3.494,0.07c-1.125,0.063-1.893,0.559-1.806,1.841c0.069,1.01,0.734,1.434,1.633,1.487
		c1.329,0.079,2.661,0.103,3.992,0.103C51.052,12.437,67.54,12.435,84.027,12.435z M14.173,11.255
		c-0.143-2.512-1.377-4.112-3.964-4.189c-2.812-0.084-4.389,1.457-4.323,4.276c0.059,2.57,1.594,3.971,4.151,3.958
		C12.618,15.288,13.942,13.8,14.173,11.255z M25.171,11.149c-0.206-2.538-1.504-4.052-4.088-4.09
		c-2.555-0.038-4.114,1.341-4.198,3.912c-0.092,2.81,1.455,4.38,4.274,4.324C23.747,15.243,25.002,13.666,25.171,11.149z
		 M152.171,10.871c-0.292-2.225-1.517-3.803-4.125-3.815c-2.558-0.013-4.104,1.366-4.177,3.936c-0.08,2.814,1.479,4.372,4.296,4.303
		C150.752,15.231,151.999,13.644,152.171,10.871z M163.15,11.365c-0.095-2.547-1.303-4.177-3.885-4.296
		c-2.795-0.129-4.421,1.366-4.4,4.198c0.021,2.567,1.514,4.006,4.077,4.035C161.515,15.329,162.877,13.875,163.15,11.365z"/>
	<path fill="none" d="M84.513,172.419c25.487,0,50.973-0.006,76.459,0.004c6.533,0.002,6.774,0.225,6.743,6.764
		c-0.063,12.83,1.599,11.705-11.792,11.707c-49.141,0.004-98.281,0.006-147.421,0.004c-7.199,0-7.267-0.051-7.241-7.265
		c0.041-12.118-1.442-11.218,11.291-11.215C36.538,172.421,60.525,172.418,84.513,172.419z M88.988,184.407
		c5.828,0,11.657-0.037,17.484,0.019c2.231,0.021,3.819-0.21,3.814-3.141c-0.004-2.683-1.061-3.423-3.563-3.406
		c-11.49,0.081-22.979,0.081-34.47,0c-2.498-0.019-3.562,0.717-3.564,3.403c-0.004,2.928,1.579,3.167,3.813,3.143
		C77.997,184.368,83.493,184.407,88.988,184.407z M9.892,185.332c2.527-0.128,4.133-1.356,4.222-3.942
		c0.098-2.808-1.433-4.396-4.256-4.344c-2.568,0.049-3.979,1.572-3.979,4.131C5.88,183.755,7.361,185.09,9.892,185.332z
		 M26.171,181.233c-0.144-2.512-1.377-4.111-3.964-4.188c-2.812-0.084-4.389,1.457-4.323,4.276c0.059,2.568,1.594,3.97,4.151,3.957
		C24.616,185.267,25.941,183.778,26.171,181.233z M151.153,181.315c-0.106-2.539-1.319-4.162-3.904-4.271
		c-2.799-0.117-4.413,1.39-4.38,4.22c0.028,2.566,1.532,3.996,4.096,4.014C149.538,185.297,150.891,183.833,151.153,181.315z
		 M163.154,181.118c-0.216-2.547-1.525-4.053-4.107-4.079c-2.557-0.026-4.105,1.36-4.178,3.931
		c-0.081,2.814,1.479,4.372,4.295,4.305C161.75,185.211,162.999,183.626,163.154,181.118z"/>
	<path d="M84.735,91.229c0-21.163-0.013-42.325,0.008-63.488c0.007-7.547,2.261-9.799,9.817-9.808
		c19.663-0.021,39.325-0.023,58.988,0.001c7.299,0.009,9.671,2.307,9.674,9.445c0.021,42.825,0.021,85.649,0.001,128.476
		c-0.003,7.215-2.343,9.541-9.563,9.552c-19.829,0.026-39.658,0.028-59.488-0.003c-7.124-0.01-9.421-2.385-9.429-9.688
		C84.722,134.22,84.735,112.724,84.735,91.229z M86.244,91.461c0,21.142-0.01,42.283,0.005,63.424
		c0.004,7.284,1.767,9.013,9.181,9.017c19.145,0.014,38.288,0.018,57.432-0.002c7.024-0.006,8.854-1.825,8.856-8.84
		c0.014-42.283,0.013-84.565,0-126.849c-0.002-6.943-1.865-8.764-8.931-8.771c-19.145-0.018-38.288-0.016-57.433-0.001
		c-7.333,0.006-9.103,1.777-9.106,9.097C86.236,49.511,86.244,70.486,86.244,91.461z"/>
	<path d="M84.243,91.926c0,21.162,0.012,42.325-0.007,63.488c-0.006,7.821-2.208,9.989-10.127,9.996
		c-19.496,0.015-38.992,0.018-58.488-0.001c-7.597-0.008-9.867-2.243-9.869-9.753c-0.016-42.658-0.016-85.316,0-127.975
		c0.002-7.503,2.277-9.74,9.877-9.748c19.663-0.02,39.326-0.023,58.988,0.002c7.26,0.009,9.605,2.323,9.614,9.503
		C84.26,48.935,84.243,70.43,84.243,91.926z M82.735,91.793c0-21.142,0.011-42.283-0.005-63.424
		c-0.005-7.059-1.825-8.919-8.774-8.927c-19.311-0.021-38.62-0.021-57.932,0c-6.94,0.007-8.763,1.874-8.765,8.937
		C7.249,70.495,7.25,112.61,7.258,154.728c0.001,7.393,1.745,9.168,9.024,9.174c19.144,0.017,38.287,0.017,57.431,0
		c7.278-0.006,9.013-1.774,9.017-9.183C82.743,133.743,82.735,112.769,82.735,91.793z"/>
	<path d="M84.027,12.435c-16.487,0-32.975,0.002-49.463-0.004c-1.331,0-2.664-0.024-3.992-0.103
		c-0.898-0.053-1.563-0.477-1.633-1.487C28.852,9.558,29.619,9.063,30.744,9c1.163-0.065,2.33-0.07,3.494-0.07
		c33.476-0.003,66.95-0.003,100.426,0c1.166,0,2.333,0.007,3.496,0.063c1.104,0.053,1.948,0.468,1.891,1.773
		c-0.059,1.322-1.021,1.566-2.065,1.609c-1.33,0.055-2.664,0.057-3.996,0.057C117.336,12.436,100.682,12.435,84.027,12.435z
		 M32.075,10.517c0.02,0.078,0.04,0.156,0.061,0.233c34.903,0,69.806,0,104.709,0c0-0.078,0-0.156,0-0.233
		C101.921,10.517,66.998,10.517,32.075,10.517z"/>
	<path d="M14.173,11.255c-0.23,2.544-1.555,4.033-4.135,4.045c-2.559,0.013-4.093-1.388-4.151-3.958
		c-0.065-2.819,1.512-4.36,4.323-4.276C12.796,7.144,14.031,8.743,14.173,11.255z M12.718,11.128c-0.2-1.729-1.14-2.701-2.894-2.623
		c-1.507,0.067-2.428,0.984-2.498,2.484c-0.082,1.737,0.845,2.816,2.604,2.861C11.691,13.896,12.577,12.851,12.718,11.128z"/>
	<path d="M25.171,11.149c-0.168,2.517-1.424,4.094-4.011,4.146c-2.82,0.057-4.366-1.514-4.274-4.324
		c0.084-2.571,1.644-3.95,4.198-3.912C23.667,7.097,24.965,8.611,25.171,11.149z M21.069,13.9c1.744-0.212,2.697-1.178,2.602-2.921
		c-0.083-1.497-1.002-2.418-2.512-2.472c-1.742-0.062-2.804,0.879-2.832,2.635C18.297,12.904,19.354,13.776,21.069,13.9z"/>
	<path d="M152.171,10.871c-0.173,2.773-1.419,4.36-4.006,4.423c-2.816,0.069-4.375-1.488-4.296-4.303
		c0.072-2.57,1.619-3.948,4.177-3.936C150.655,7.068,151.88,8.646,152.171,10.871z M147.841,8.462
		c-1.739,0.262-2.675,1.257-2.529,2.992c0.124,1.48,1.051,2.393,2.577,2.404c1.751,0.013,2.773-0.958,2.762-2.707
		C150.641,9.384,149.548,8.551,147.841,8.462z"/>
	<path d="M163.15,11.365c-0.271,2.511-1.635,3.964-4.208,3.936c-2.563-0.028-4.058-1.468-4.077-4.035
		c-0.021-2.832,1.605-4.327,4.4-4.198C161.847,7.188,163.055,8.818,163.15,11.365z M159,13.9c1.721-0.183,2.71-1.096,2.656-2.857
		c-0.046-1.517-0.957-2.441-2.448-2.532c-1.729-0.105-2.833,0.8-2.898,2.565C156.244,12.833,157.273,13.736,159,13.9z"/>
	<path d="M88.988,184.407c-5.494,0-10.99-0.039-16.484,0.019c-2.233,0.023-3.816-0.215-3.813-3.143
		c0.004-2.687,1.066-3.421,3.564-3.403c11.49,0.08,22.979,0.081,34.47,0c2.502-0.018,3.559,0.723,3.563,3.406
		c0.005,2.931-1.583,3.162-3.814,3.141C100.645,184.37,94.816,184.407,88.988,184.407z M89.54,179.419
		c-5.314,0-10.629-0.037-15.943,0.025c-1.354,0.016-3.346-0.53-3.188,1.91c0.13,2.022,1.884,1.516,3.086,1.521
		c10.628,0.042,21.257,0.044,31.886,0.001c1.354-0.006,3.346,0.529,3.188-1.911c-0.13-2.022-1.883-1.505-3.086-1.519
		C100.169,179.386,94.854,179.419,89.54,179.419z"/>
	<path d="M9.892,185.332c-2.531-0.242-4.011-1.576-4.013-4.154c-0.001-2.56,1.41-4.083,3.979-4.131
		c2.823-0.053,4.354,1.536,4.256,4.343C14.025,183.974,12.418,185.204,9.892,185.332z M12.75,181
		c-0.237-1.369-0.971-2.546-2.77-2.515c-1.755,0.029-2.703,1.063-2.659,2.812c0.039,1.519,0.958,2.437,2.447,2.534
		C11.51,183.944,12.489,182.998,12.75,181z"/>
	<path d="M26.171,181.233c-0.23,2.545-1.556,4.033-4.135,4.045c-2.559,0.013-4.093-1.389-4.151-3.957
		c-0.065-2.819,1.512-4.36,4.323-4.276C24.794,177.123,26.029,178.722,26.171,181.233z M24.712,180.931
		c-0.312-1.715-1.334-2.633-3.062-2.438c-1.47,0.165-2.358,1.125-2.331,2.647c0.033,1.754,1.037,2.742,2.781,2.689
		C23.878,183.774,24.664,182.646,24.712,180.931z"/>
	<path d="M151.153,181.315c-0.262,2.519-1.614,3.981-4.188,3.963c-2.563-0.018-4.066-1.447-4.096-4.014
		c-0.032-2.83,1.581-4.337,4.38-4.22C149.833,177.153,151.045,178.776,151.153,181.315z M149.701,181.194
		c-0.153-1.717-1.032-2.729-2.801-2.715c-1.527,0.014-2.462,0.916-2.586,2.396c-0.144,1.722,0.748,2.851,2.507,2.953
		C148.573,183.931,149.505,182.923,149.701,181.194z"/>
	<path d="M163.154,181.118c-0.155,2.509-1.404,4.094-3.99,4.156c-2.815,0.067-4.375-1.49-4.295-4.305
		c0.072-2.57,1.623-3.957,4.178-3.931C161.628,177.065,162.938,178.569,163.154,181.118z M159,183.915
		c1.404-0.182,2.59-0.855,2.662-2.664c0.06-1.518-0.757-2.516-2.229-2.736c-1.72-0.26-2.901,0.592-3.116,2.313
		C156.104,182.547,157.049,183.573,159,183.915z"/>
</g>
</svg>
