<?xml version="1.0" encoding="utf-8"?>
<!-- Generator: Adobe Illustrator 16.2.0, SVG Export Plug-In . SVG Version: 6.00 Build 0)  -->
<!DOCTYPE svg PUBLIC "-//W3C//DTD SVG 1.0//EN" "http://www.w3.org/TR/2001/REC-SVG-20010904/DTD/svg10.dtd">
<svg version="1.0" id="Layer_1" xmlns="http://www.w3.org/2000/svg" xmlns:xlink="http://www.w3.org/1999/xlink" x="0px" y="0px"
	 width="75.121px" height="52.561px" viewBox="0 0 75.121 52.561" enable-background="new 0 0 75.121 52.561" xml:space="preserve">
<g>
	<path fill="#737373" d="M5.76,0.24c10.88,0,21.76,0,32.64,0c2.355,0.971,2.703,1.5,2.703,4.152c0.001,9.958,0.001,19.917,0,29.875
		c0,1.926-0.057,1.98-1.938,1.98c-11.358,0-22.716,0-34.075,0c-1.958,0-2.104-0.144-2.104-2.107c-0.001-9.878-0.001-19.758,0-29.636
		C2.987,1.878,3.424,1.208,5.76,0.24z"/>
	<path fill="#737373" d="M75.36,44.16c-0.644,0.231-1.278,0.637-1.928,0.661c-2.236,0.083-4.478,0.013-6.716,0.044
		c-0.688,0.009-1.047-0.121-1.234-0.903c-0.902-3.794-4.578-6.668-8.477-6.729c-3.81-0.06-7.549,2.697-8.573,6.44
		c-0.263,0.959-0.66,1.215-1.624,1.204c-4.957-0.054-9.914-0.043-14.871-0.007c-0.814,0.006-1.083-0.237-1.376-1.029
		c-0.528-1.429-1.359-2.745-2.083-4.146c5.122,0,10.438,0,15.938,0c0-0.597,0-1.058,0-1.52c0-9.434-0.002-18.868,0-28.303
		c0-2.292,0.619-2.908,2.914-2.911c2.959-0.003,5.918-0.004,8.875-0.004c3.229,0,5.775,1.29,7.594,3.991
		c2.027,3.013,4.084,6.006,6.113,9.018c1.096,1.626,1.666,3.401,1.645,5.396c-0.045,4.277-0.014,8.555-0.014,12.832
		c0,0.429,0,0.858,0,1.075c1.39,0.382,2.603,0.714,3.816,1.048C75.36,41.6,75.36,42.88,75.36,44.16z M56.931,22.314
		c2.115,0,4.234,0.042,6.348-0.033c0.479-0.017,1.125-0.333,1.354-0.716c0.188-0.313,0.009-1.023-0.245-1.396
		c-1.55-2.271-3.123-4.531-4.794-6.716c-0.369-0.481-1.153-0.875-1.764-0.902c-2.353-0.104-4.711-0.054-7.066-0.037
		c-1.236,0.009-1.686,0.416-1.705,1.635c-0.036,2.156-0.033,4.313-0.002,6.468c0.02,1.297,0.451,1.688,1.767,1.695
		C52.858,22.324,54.895,22.315,56.931,22.314z"/>
	<path fill="#737373" d="M21.36,52.8c-1.052-0.435-2.211-0.711-3.137-1.334c-2.575-1.73-3.407-5.047-2.15-7.945
		c1.181-2.727,4.242-4.272,7.292-3.686c2.938,0.566,5.167,3.277,5.192,6.316c0.025,3.09-2.116,5.734-5.206,6.433
		c-0.267,0.061-0.528,0.144-0.792,0.216C22.16,52.8,21.76,52.8,21.36,52.8z M25.435,46.229c0.009-1.893-1.487-3.439-3.362-3.478
		c-1.876-0.038-3.536,1.611-3.51,3.488c0.025,1.854,1.598,3.398,3.46,3.395C23.914,49.632,25.425,48.124,25.435,46.229z"/>
	<path fill="#737373" d="M56.4,52.8c-1.632-0.41-3.189-0.918-4.361-2.267c-1.914-2.203-2.209-5.288-0.66-7.767
		c1.533-2.455,4.496-3.605,7.266-2.822c2.859,0.809,4.73,3.227,4.76,6.149c0.032,3.285-2.115,5.894-5.357,6.518
		c-0.232,0.044-0.459,0.125-0.687,0.188C57.041,52.8,56.72,52.8,56.4,52.8z M60.312,46.266c0.023-1.9-1.436-3.45-3.309-3.515
		c-1.891-0.063-3.504,1.526-3.506,3.455c0,1.905,1.488,3.412,3.388,3.429C58.781,49.652,60.289,48.169,60.312,46.266z"/>
	<path fill="#737373" d="M0.24,40.56c0.548-0.311,1.093-0.88,1.646-0.89c4.588-0.071,9.178-0.041,13.735-0.041
		c-0.9,1.68-1.797,3.354-2.798,5.221c-3.527,0-7.353,0.031-11.177-0.041C1.172,44.8,0.709,44.23,0.24,43.92
		C0.24,42.8,0.24,41.68,0.24,40.56z"/>
</g>
</svg>
