<?xml version="1.0" encoding="utf-8"?>
<!-- Generator: Adobe Illustrator 16.2.0, SVG Export Plug-In . SVG Version: 6.00 Build 0)  -->
<!DOCTYPE svg PUBLIC "-//W3C//DTD SVG 1.0//EN" "http://www.w3.org/TR/2001/REC-SVG-20010904/DTD/svg10.dtd">
<svg version="1.0" id="Layer_1" xmlns="http://www.w3.org/2000/svg" xmlns:xlink="http://www.w3.org/1999/xlink" x="0px" y="0px"
	 width="87.041px" height="115.2px" viewBox="0 0 87.041 115.2" enable-background="new 0 0 87.041 115.2" xml:space="preserve">
<g>
	<path fill="#737373" d="M84.161,115.44c-26.881,0-53.76,0-80.64,0c-0.88-0.96-1.76-1.92-2.64-2.88c0-36.479,0-72.96,0-109.44
		c0.88-0.96,1.76-1.92,2.64-2.88c20.08,0,40.16,0,60.24,0c0.01,7.989,0.04,15.979,0.004,23.967
		c-0.004,1.073,0.317,1.346,1.356,1.339c7.071-0.041,14.142-0.02,21.213-0.025c0.315,0,0.631-0.053,0.946-0.082
		c0,29.04,0,58.08,0,87.12C86.241,113.52,85.201,114.48,84.161,115.44z M44.099,43.354c-1.759,0-3.518,0-5.277,0
		c-8.633,0-17.266,0.017-25.899-0.022c-1.055-0.005-1.413,0.288-1.351,1.354c0.087,1.474,0.022,2.956,0.022,4.435
		c0,1.603,0.001,1.604,1.653,1.604c20.543,0,41.087,0,61.63,0c0.24,0,0.481-0.02,0.72,0.002c0.721,0.065,0.996-0.243,0.979-0.973
		c-0.036-1.638-0.099-3.283,0.016-4.914c0.089-1.268-0.387-1.517-1.562-1.512C64.722,43.373,54.41,43.354,44.099,43.354z
		 M44.099,65.125c10.352,0,20.703-0.013,31.055,0.021c1.057,0.003,1.52-0.222,1.438-1.386c-0.103-1.471-0.024-2.956-0.024-4.436
		c0-1.567-0.002-1.57-1.567-1.57c-14.188-0.001-28.377,0-42.566,0c-6.475,0-12.95,0.021-19.424-0.02
		c-1.057-0.007-1.519,0.222-1.439,1.387c0.103,1.512,0.099,3.041,0.002,4.553c-0.075,1.166,0.316,1.48,1.472,1.477
		C23.394,65.108,33.746,65.125,44.099,65.125z M44.075,79.526c2.718,0,5.436,0,8.152,0c7.674,0,15.349-0.02,23.021,0.021
		c1.07,0.007,1.4-0.315,1.338-1.364c-0.083-1.394-0.021-2.796-0.021-4.194c0-1.832,0-1.834-1.783-1.834c-20.465,0-40.927,0-61.391,0
		c-0.28,0-0.562,0.021-0.839-0.002c-0.734-0.064-0.984,0.268-0.969,0.984c0.035,1.598,0.01,3.197,0.011,4.796
		c0,1.59,0.001,1.593,1.545,1.593C23.451,79.526,33.763,79.526,44.075,79.526z M44.161,86.555c-10.392,0-20.783,0.015-31.175-0.021
		c-1.097-0.005-1.485,0.289-1.414,1.41c0.094,1.473,0.022,2.956,0.023,4.436c0.001,1.543,0.001,1.547,1.591,1.547
		c17.106,0,34.211,0,51.319,0c3.637,0,7.273-0.022,10.911,0.016c0.882,0.01,1.202-0.266,1.168-1.164
		c-0.062-1.596-0.095-3.201,0.008-4.794c0.077-1.198-0.374-1.456-1.495-1.452C64.784,86.571,54.474,86.555,44.161,86.555z"/>
	<path fill="#737373" d="M71.254,0.598C76.589,6.526,81.7,12.205,86.972,18.063c-5.381,0-10.505,0-15.718,0
		C71.254,12.33,71.254,6.623,71.254,0.598z"/>
</g>
</svg>
