<?xml version="1.0" encoding="utf-8"?>
<!-- Generator: Adobe Illustrator 16.2.0, SVG Export Plug-In . SVG Version: 6.00 Build 0)  -->
<!DOCTYPE svg PUBLIC "-//W3C//DTD SVG 1.0//EN" "http://www.w3.org/TR/2001/REC-SVG-20010904/DTD/svg10.dtd">
<svg version="1.0" id="Layer_1" xmlns="http://www.w3.org/2000/svg" xmlns:xlink="http://www.w3.org/1999/xlink" x="0px" y="0px"
	 width="39.359px" height="48px" viewBox="0 0 39.359 48" enable-background="new 0 0 39.359 48" xml:space="preserve">
<g>
	<path fill="#737373" d="M39.6,16.08c0,10.72,0,21.439,0,32.16c-13.12,0-26.24,0-39.36,0c0-10.721,0-21.44,0-32.16
		C6.72,10.8,13.2,5.52,19.68,0.24c0.16,0,0.32,0,0.48,0C26.64,5.52,33.12,10.8,39.6,16.08z M7.636,25.598
		c0.268-1.974,0.275-3.678,0.771-5.226c0.511-1.591,1.286-3.203,2.339-4.484c1.031-1.256,2.436-2.354,3.898-3.067
		c1.493-0.728,3.238-1.152,4.903-1.263c2.626-0.176,5.116,0.533,7.324,2.091c4.048,2.855,5.406,6.945,5.309,11.945
		c0.827-0.667,1.388-1.231,2.049-1.633c1.979-1.203,2.556-2.94,2.295-5.161c-0.097-0.822-0.297-1.406-0.945-1.929
		c-5.005-4.042-9.996-8.104-14.969-12.187c-0.563-0.463-0.907-0.383-1.431,0.046C14.3,8.736,9.392,12.708,4.509,16.711
		c-0.444,0.364-1.056,0.854-1.091,1.324C3.318,19.37,3.015,21.02,3.643,22C4.557,23.426,6.215,24.375,7.636,25.598z M19.91,16.095
		c-1.005-0.126-1.825-0.002-1.684,1.393c0.02,0.18-0.377,0.46-0.633,0.601c-1.646,0.904-2.3,2.325-1.937,4.103
		c0.305,1.493,1.453,2.304,2.854,2.763c0.753,0.248,1.571,0.385,2.236,0.779c0.412,0.246,0.864,0.926,0.799,1.328
		c-0.064,0.398-0.717,0.889-1.188,0.994c-1.01,0.225-1.87,0.051-2.027-1.315c-0.102-0.867-1.054-1.114-2.36-0.827
		c-0.902,0.199-0.702,0.909-0.614,1.438c0.213,1.285,0.977,2.243,2.091,2.902c0.575,0.34,0.984,0.697,0.939,1.48
		c-0.015,0.25,0.466,0.678,0.791,0.766c0.483,0.131,1.057,0.131,1.539-0.003c0.316-0.088,0.78-0.536,0.757-0.783
		c-0.077-0.815,0.393-1.091,0.972-1.418c1.532-0.862,2.248-2.165,2.107-3.959c-0.123-1.567-1.136-2.422-2.37-3.05
		c-0.804-0.41-1.754-0.532-2.561-0.937c-0.449-0.225-0.783-0.739-1.057-1.191c-0.041-0.067,0.497-0.638,0.84-0.75
		c0.648-0.211,1.531-0.321,1.671,0.567c0.234,1.5,1.217,1.353,2.264,1.341c0.699-0.007,0.892-0.322,0.884-0.958
		c-0.018-1.52-0.881-2.491-2.027-3.319c-0.29-0.209-0.689-0.528-0.703-0.812C21.442,16.145,20.816,15.987,19.91,16.095z"/>
</g>
</svg>
